<svg xmlns="http://www.w3.org/2000/svg" width="51.695" height="43.941" viewBox="0 0 51.695 43.941">
  <g id="balance-scale" transform="translate(0)">
    <path id="Path_7" data-name="Path 7" d="M21.291,34.476l.512-.564V31.135l-8.388-17.7h-3.9l-8.386,17.7v2.912l.456.495a13.392,13.392,0,0,0,9.824,4.306h.046a13.392,13.392,0,0,0,9.84-4.373Zm-2.935-1.918A9.792,9.792,0,0,1,11.44,35.4H11.4a9.791,9.791,0,0,1-6.833-2.731V31.91l6.893-14.551L18.357,31.91Z" transform="translate(-1.125 -2.229)" fill="#fff"/>
    <path id="Path_8" data-name="Path 8" d="M33.665,13.43h-3.9l-8.386,17.7v2.912l.456.495a13.392,13.392,0,0,0,9.824,4.306H31.7a13.392,13.392,0,0,0,9.84-4.373l.512-.564V31.135Zm4.941,19.128A9.792,9.792,0,0,1,31.689,35.4h-.035a9.791,9.791,0,0,1-6.833-2.731V31.91l6.893-14.551L38.607,31.91Z" transform="translate(9.642 -2.229)" fill="#fff"/>
    <path id="Path_9" data-name="Path 9" d="M25.7,17.928a6.055,6.055,0,0,0,4.056-4.056H41.213V10.425H29.761a6.03,6.03,0,0,0-11.558,0H6.75v3.446H18.2a6.055,6.055,0,0,0,4.056,4.056V46.612h-11.2v3.446H36.906V46.612H25.7ZM21.4,12.149a2.586,2.586,0,1,1,2.586,2.586A2.586,2.586,0,0,1,21.4,12.149Z" transform="translate(1.866 -6.117)" fill="#fff"/>
  </g>
</svg>
