<svg xmlns="http://www.w3.org/2000/svg" width="39.547" height="43.941" viewBox="0 0 39.547 43.941">
  <g id="bx-notepad" transform="translate(0 0)">
    <path id="Path_5" data-name="Path 5" d="M39.653,7.394H33.062V3H28.667V7.394H19.879V3H15.485V7.394H8.894A4.4,4.4,0,0,0,4.5,11.788V42.547a4.4,4.4,0,0,0,4.394,4.394H39.653a4.4,4.4,0,0,0,4.394-4.394V11.788A4.4,4.4,0,0,0,39.653,7.394ZM8.894,42.547V13.985H39.653v-2.2l0,30.759Z" transform="translate(-4.5 -3)" fill="#fff"/>
    <path id="Path_6" data-name="Path 6" d="M10.5,13.5H32.47v4.394H10.5Zm0,8.788H21.485v4.394H10.5Z" transform="translate(-1.712 1.879)" fill="#fff"/>
  </g>
</svg>
