<svg xmlns="http://www.w3.org/2000/svg" width="51.823" height="43.941" viewBox="0 0 51.823 43.941">
  <g id="Group_11" data-name="Group 11" transform="translate(0 0)">
    <path id="Path_4" data-name="Path 4" d="M45.984,60.273l5.839-4.324-5.047-17.01L20.8,39.772l-2.5,3.887-8.9-2.14L0,60.918,4.28,64.6,2.02,68.1a4.916,4.916,0,0,0,4.868,7.54,4.912,4.912,0,0,0,4.728,3.588,4.962,4.962,0,0,0,.737-.057,4.924,4.924,0,0,0,8.875,1.341l.671-1.039,3.933,2.607.016.011a4.89,4.89,0,0,0,2.662.79,4.975,4.975,0,0,0,1.045-.112,4.919,4.919,0,0,0,3.885-4.65,4.987,4.987,0,0,0,.756-.1,4.928,4.928,0,0,0,3.888-4.65,4.976,4.976,0,0,0,.753-.1,4.919,4.919,0,0,0,3.885-4.653,4.925,4.925,0,0,0,3.263-8.338ZM22.654,43.051l21.655-.694,3.65,12.3-4.854,3.595L24.542,46.166l-5.269,8-.008.012A1.587,1.587,0,1,1,16.6,52.451ZM7.489,71.633a1.587,1.587,0,1,1-2.665-1.722l3.337-5.165a1.587,1.587,0,0,1,2.666,1.722Zm5.468,3.533a1.587,1.587,0,1,1-2.665-1.722l3.337-5.165A1.587,1.587,0,0,1,16.294,70Zm8.805-1.631L18.425,78.7a1.587,1.587,0,0,1-2.665-1.722L19.1,71.813a1.576,1.576,0,0,1,1-.69,1.606,1.606,0,0,1,.336-.036,1.588,1.588,0,0,1,1.33,2.448Zm22.013-8.978a1.587,1.587,0,0,1-2.194.472l-1.107-.715h0l-5.165-3.337-1.811,2.8,1.107.716,4.058,2.622a1.587,1.587,0,0,1-1.722,2.666l-5.165-3.337-1.811,2.8,4.058,2.622A1.587,1.587,0,0,1,32.3,74.535l-4.409-2.849-1.811,2.8,3.3,2.133a1.587,1.587,0,0,1-1.715,2.67l-3.956-2.622.855-1.323A4.92,4.92,0,0,0,19.7,67.809a4.91,4.91,0,0,0-5.466-3.534A4.922,4.922,0,0,0,6.256,61.9L4.122,60.064l7.107-14.672,5.152,1.239L13.8,50.642a4.924,4.924,0,0,0,8.267,5.351l3.439-5.22,17.8,11.59a1.586,1.586,0,0,1,.471,2.194Z" transform="translate(0 -38.939)" fill="#fff"/>
  </g>
</svg>
