<svg xmlns="http://www.w3.org/2000/svg" width="67.613" height="43.941" viewBox="0 0 67.613 43.941">
  <g id="ios-people" transform="translate(0 0)">
    <path id="Path_1" data-name="Path 1" d="M43.217,41.555c-1.686-.6-4.442-.632-5.663-1.1a7.944,7.944,0,0,1-2.619-1.221c-.437-.527-.437-4.292-.437-4.292a6.939,6.939,0,0,0,1.491-2.107,23.378,23.378,0,0,0,.722-4.142s.994.422,1.386-1.566c.332-1.718.964-2.619.8-3.885s-.874-.964-.874-.964S38.9,21,38.9,16.648c0-4.487-3.388-8.9-9.728-8.9s-9.742,4.427-9.742,8.9c0,4.352.859,5.633.859,5.633s-.707-.3-.874.964.452,2.167.8,3.885c.392,2,1.386,1.566,1.386,1.566a23.844,23.844,0,0,0,.722,4.142,6.939,6.939,0,0,0,1.491,2.107s0,3.765-.437,4.292a7.728,7.728,0,0,1-2.619,1.206c-1.206.467-3.96.527-5.663,1.129a10.628,10.628,0,0,0-6.9,10.119H50.1a10.607,10.607,0,0,0-6.881-10.134Z" transform="translate(4.609 -7.749)" fill="#fff"/>
    <path id="Path_2" data-name="Path 2" d="M18.554,30.272s3.6-.12,5.029-1.4c-2.334-3.538-1.069-7.665-1.551-11.52S19.366,11.207,15,11.207h-.06c-4.217,0-6.489,2.289-6.971,6.144s.859,8.434-1.536,11.52c1.431,1.3,5.044,1.251,5.044,1.251a7.657,7.657,0,0,1-.15,2.529,3.812,3.812,0,0,1-1.808.829,34.963,34.963,0,0,0-3.9,1.084,6.342,6.342,0,0,0-3.4,5.6H14.307c.332-1.206,2.6-3.358,4.819-4.487a10.171,10.171,0,0,1,3.72-.784s.572-.9-1.311-1.251a12.821,12.821,0,0,1-2.891-1.009C18.357,32.3,18.554,30.272,18.554,30.272Z" transform="translate(-2.215 -3.801)" fill="#fff"/>
    <path id="Path_3" data-name="Path 3" d="M28.837,30.272s-3.6-.12-5.029-1.4c2.334-3.538,1.069-7.665,1.551-11.52s2.666-6.144,7.033-6.144h.06c4.217,0,6.489,2.289,6.971,6.144s-.859,8.434,1.536,11.52c-1.431,1.3-5.044,1.251-5.044,1.251a7.657,7.657,0,0,0,.15,2.529,3.812,3.812,0,0,0,1.808.829,34.964,34.964,0,0,1,3.9,1.084,6.342,6.342,0,0,1,3.4,5.6H33.084c-.332-1.206-2.6-3.358-4.819-4.487a10.171,10.171,0,0,0-3.72-.784s-.572-.9,1.311-1.251a12.821,12.821,0,0,0,2.891-1.009c.287-.332.09-2.364.09-2.364Z" transform="translate(22.437 -3.801)" fill="#fff"/>
  </g>
</svg>
