<svg xmlns="http://www.w3.org/2000/svg" width="73.987" height="56.082" viewBox="0 0 73.987 56.082">
  <g id="Group_12" data-name="Group 12" transform="translate(0)">
    <g id="search-circle-outline" transform="translate(33.472 20.252)">
      <path id="Path_29" data-name="Path 29" d="M27.177,11.25c-8.8,0-15.926,6.272-15.926,14.01s7.131,14.01,15.926,14.01S43.1,33,43.1,25.26,35.972,11.25,27.177,11.25Z" transform="translate(-11.25 -11.25)" fill="none" stroke="#fff" stroke-miterlimit="10" stroke-width="2.25"/>
      <path id="Path_30" data-name="Path 30" d="M19.943,19.943,31.525,30.131" transform="translate(7.402 4.111)" fill="none" stroke="#fff" stroke-linecap="round" stroke-miterlimit="10" stroke-width="2.25"/>
    </g>
    <g id="file-group-line" transform="translate(0)">
      <path id="Path_31" data-name="Path 31" d="M48.783,50.871H13.936A1.831,1.831,0,0,1,12,49.168V11.7A1.831,1.831,0,0,1,13.936,10H48.783a1.831,1.831,0,0,1,1.936,1.7V49.168A1.831,1.831,0,0,1,48.783,50.871ZM15.872,47.465H46.847V13.406H15.872Z" transform="translate(3.488 3.624)" fill="#fff"/>
      <path id="Path_32" data-name="Path 32" d="M16,16H39.232v3.406H16Z" transform="translate(7.231 7.841)" fill="#fff"/>
      <path id="Path_33" data-name="Path 33" d="M16,20H39.232v3.406H16Z" transform="translate(7.231 10.653)" fill="#fff"/>
      <path id="Path_34" data-name="Path 34" d="M16,24H39.232v3.406H16Z" transform="translate(7.231 13.465)" fill="#fff"/>
      <path id="Path_35" data-name="Path 35" d="M7.872,39.465V5.406H42.719V3.7A1.831,1.831,0,0,0,40.783,2H5.936A1.831,1.831,0,0,0,4,3.7V41.168a1.831,1.831,0,0,0,1.936,1.7H7.872Z" transform="translate(-4 -2)" fill="#fff"/>
      <path id="Path_36" data-name="Path 36" d="M11.872,43.465V9.406H46.719V7.7A1.831,1.831,0,0,0,44.783,6H9.936A1.831,1.831,0,0,0,8,7.7V45.168a1.831,1.831,0,0,0,1.936,1.7h1.936Z" transform="translate(-0.256 0.812)" fill="#fff"/>
    </g>
  </g>
</svg>
