<?xml version="1.0" standalone="no"?>
<!DOCTYPE svg PUBLIC "-//W3C//DTD SVG 1.1//EN" "http://www.w3.org/Graphics/SVG/1.1/DTD/svg11.dtd" >
<svg xmlns="http://www.w3.org/2000/svg" xmlns:xlink="http://www.w3.org/1999/xlink" version="1.1">
<metadata>
Created by FontForge 20170731 at Fri May 12 15:44:10 2017
 By Aleksey,,,
Copyright (c) 2016 by Radomir Tinkov. All rights reserved.
</metadata>
<defs>
<font id="GilroyGEO-Heavy" horiz-adv-x="600" >
  <font-face 
    font-family="Gilroy GEO Heavy"
    font-weight="900"
    font-stretch="normal"
    units-per-em="1000"
    panose-1="0 0 10 0 0 0 0 0 0 0"
    ascent="800"
    descent="-200"
    x-height="500"
    cap-height="700"
    bbox="-487 -284 1253 990"
    underline-thickness="50"
    underline-position="-200"
    unicode-range="U+0020-FB02"
  />
<missing-glyph horiz-adv-x="500" 
d="M93 -200v1000h317v-1000h-317zM168 700h65v-37h-66v-33h166v33h-66v37h66v33h-165v-33zM167 500h166v34h-66v70h-100v-104zM200 534v36h33v-36h-33zM167 440h66v-37h-66v-33h100v70h66v33h-166v-33zM300 347h-133v-34h166v100h-33v-66zM233 235h34v23h33v-47h-100v80h-33
v-113h166v113h-100v-56zM167 5h166v113h-166v-113zM200 38v47h100v-47h-100zM167 -51h70l-70 -47v-33h166v33h-102l70 47h32v33h-166v-33z" />
    <glyph glyph-name="fi" unicode="fi" horiz-adv-x="575" 
d="M350 0v324h-97v-324h-185v324h-58v176h58q0 106 66 161t196 55q72 0 135 -16v-152q-67 10 -120 10q-92 0 -92 -58h282v-500h-185z" />
    <glyph glyph-name="fl" unicode="fl" horiz-adv-x="575" 
d="M436 712.5q46 -3.5 99 -12.5v-700h-185v562q-8 1 -25 1q-32 0 -52 -16t-20 -47h57v-176h-57v-324h-185v324h-58v176h58q0 106 66 161t196 55q60 0 106 -3.5z" />
    <glyph glyph-name="f_f" unicode="ff" horiz-adv-x="615" 
d="M558.5 549q-20.5 -14 -20.5 -39v-10h77v-176h-77v-324h-185v324h-100v-324h-185v324h-58v176h58q0 102 60 159.5t175 57.5q18 0 27 -1v-166q-36 3 -56.5 -11t-20.5 -39h100v10q0 102 60 159.5t175 57.5q18 0 27 -1v-166q-36 3 -56.5 -11z" />
    <glyph glyph-name="f_f_i" unicode="ffi" horiz-adv-x="860" 
d="M635 0v324h-97v-324h-185v324h-100v-324h-185v324h-58v176h58q0 102 60 159.5t175 57.5q18 0 27 -1v-166q-36 3 -56.5 -11t-20.5 -39h100v10q0 106 66 161t196 55q72 0 135 -16v-152q-67 10 -120 10q-92 0 -92 -58v-10h282v-500h-185z" />
    <glyph glyph-name="f_f_l" unicode="ffl" horiz-adv-x="860" 
d="M721 722.5q46 -3.5 99 -12.5v-710h-185v572q-8 1 -25 1q-32 0 -52 -16t-20 -47v-10h57v-176h-57v-324h-185v324h-100v-324h-185v324h-58v176h58q0 102 60 159.5t175 57.5q18 0 27 -1v-166q-36 3 -56.5 -11t-20.5 -39h100v10q0 106 66 161t196 55q60 0 106 -3.5z" />
    <glyph glyph-name=".notdef" horiz-adv-x="500" 
d="M93 -200v1000h317v-1000h-317zM168 700h65v-37h-66v-33h166v33h-66v37h66v33h-165v-33zM167 500h166v34h-66v70h-100v-104zM200 534v36h33v-36h-33zM167 440h66v-37h-66v-33h100v70h66v33h-166v-33zM300 347h-133v-34h166v100h-33v-66zM233 235h34v23h33v-47h-100v80h-33
v-113h166v113h-100v-56zM167 5h166v113h-166v-113zM200 38v47h100v-47h-100zM167 -51h70l-70 -47v-33h166v33h-102l70 47h32v33h-166v-33z" />
    <glyph glyph-name=".null" horiz-adv-x="0" 
 />
    <glyph glyph-name="nonmarkingreturn" horiz-adv-x="333" 
 />
    <glyph glyph-name="space" unicode=" " horiz-adv-x="200" 
 />
    <glyph glyph-name="exclam" unicode="!" horiz-adv-x="310" 
d="M40 700h230v-200l-35 -240h-160l-35 240v200zM73.5 18.5q-33.5 33.5 -33.5 81.5t33.5 81.5t81.5 33.5t81.5 -33.5t33.5 -81.5t-33.5 -81.5t-81.5 -33.5t-81.5 33.5z" />
    <glyph glyph-name="quotedbl" unicode="&#x22;" horiz-adv-x="490" 
d="M220 700l-20 -280h-130l-20 280h170zM440 700l-20 -280h-130l-20 280h170z" />
    <glyph glyph-name="numbersign" unicode="#" horiz-adv-x="643" 
d="M497 320h96l-21 -130h-97l-23 -140h-144l23 140h-72l-23 -140h-144l23 140h-95l21 130h96l10 60h-96l21 130h97l23 140h144l-23 -140h72l23 140h144l-23 -140h94l-21 -130h-95zM291 380l-10 -60h72l10 60h-72z" />
    <glyph glyph-name="dollar" unicode="$" horiz-adv-x="565" 
d="M489 53.5q-61 -58.5 -164 -67.5v-86h-70v85q-91 6 -154 49.5t-86 115.5l176 95q15 -61 64 -75v95l-4 1q-74 26 -120 52t-72.5 67.5t-26.5 104.5q0 96 62 156.5t161 68.5v85h70v-86q70 -8 125 -44.5t87 -106.5l-171 -92q-14 44 -41 56v-99l6 -2q78 -29 118.5 -49
t70.5 -60.5t30 -107.5q0 -97 -61 -155.5zM229.5 470q7.5 -8 25.5 -16v77q-33 -10 -33 -40q0 -13 7.5 -21zM360 205q0 12 -8.5 20t-26.5 15v-71q35 7 35 36z" />
    <glyph glyph-name="percent" unicode="%" horiz-adv-x="868" 
d="M125.5 361.5q-44.5 25.5 -70 69t-25.5 95.5t25.5 95.5t70 69t99.5 25.5q54 0 98 -25.5t69.5 -69t25.5 -95.5t-25.5 -95.5t-69.5 -69t-98 -25.5q-55 0 -99.5 25.5zM700 567l-471 -497l-72 41l470 498zM259 491q14 15 14 35q0 21 -14 35.5t-35 14.5t-34.5 -14.5
t-13.5 -35.5t13.5 -35.5t34.5 -14.5t35 15zM545.5 9.5q-44.5 25.5 -70 69t-25.5 95.5t25.5 95.5t70 69t99.5 25.5q54 0 98 -25.5t69.5 -69t25.5 -95.5t-25.5 -95.5t-69.5 -69t-98 -25.5q-55 0 -99.5 25.5zM679 139q14 15 14 35q0 21 -14 35.5t-35 14.5t-34.5 -14.5
t-13.5 -35.5t13.5 -35.5t34.5 -14.5t35 15z" />
    <glyph glyph-name="ampersand" unicode="&#x26;" horiz-adv-x="683" 
d="M467 33q-83 -49 -183 -49q-79 0 -136.5 29.5t-87.5 79t-30 109.5q0 58 28 106t85 83q-36 54 -36 115q0 60 30.5 108t84.5 75t121 27q88 0 151 -38t104 -124l-167 -97q-15 38 -33.5 55.5t-42.5 17.5q-21 0 -32 -11.5t-11 -29.5q0 -15 10 -29.5t25 -31.5t20 -23l105 -119
q21 44 30 93l156 -91q-23 -74 -66 -137l81 -92l-151 -87zM353 158l-98 107q-24 -23 -24 -53q0 -26 19.5 -44t57.5 -18q23 0 45 8z" />
    <glyph glyph-name="quotesingle" unicode="'" horiz-adv-x="270" 
d="M220 700l-20 -280h-130l-20 280h170z" />
    <glyph glyph-name="parenleft" unicode="(" horiz-adv-x="335" 
d="M40 350q0 230 110 450h185q-110 -220 -110 -450t110 -450h-185q-110 220 -110 450z" />
    <glyph glyph-name="parenright" unicode=")" horiz-adv-x="335" 
d="M110 350q0 230 -110 450h185q110 -220 110 -450t-110 -450h-185q110 220 110 450z" />
    <glyph glyph-name="asterisk" unicode="*" horiz-adv-x="410" 
d="M278 507l58 -71l-88 -54l-43 79l-43 -79l-88 54l58 71l-92 -10v104l92 -10l-58 71l88 54l43 -79l43 79l88 -54l-58 -71l92 10v-104z" />
    <glyph glyph-name="plus" unicode="+" horiz-adv-x="560" 
d="M370 260v-160h-180v160h-160v180h160v160h180v-160h160v-180h-160z" />
    <glyph glyph-name="comma" unicode="," horiz-adv-x="315" 
d="M40 -140l30 335h210l-90 -335h-150z" />
    <glyph glyph-name="hyphen" unicode="-" horiz-adv-x="500" 
d="M450 391v-174h-400v174h400z" />
    <glyph glyph-name="period" unicode="." horiz-adv-x="300" 
d="M68.5 18.5q-33.5 33.5 -33.5 81.5t33.5 81.5t81.5 33.5t81.5 -33.5t33.5 -81.5t-33.5 -81.5t-81.5 -33.5t-81.5 33.5z" />
    <glyph glyph-name="slash" unicode="/" horiz-adv-x="520" 
d="M420 800h80l-400 -900h-80z" />
    <glyph glyph-name="zero" unicode="0" horiz-adv-x="630" 
d="M154.5 29.5q-66.5 45.5 -100.5 128t-34 192.5t34 192.5t100.5 128t160.5 45.5t160.5 -45.5t100.5 -128t34 -192.5t-34 -192.5t-100.5 -128t-160.5 -45.5t-160.5 45.5zM386.5 220q23.5 42 23.5 130t-23.5 130t-71.5 42t-71.5 -42t-23.5 -130t23.5 -130t71.5 -42t71.5 42z
" />
    <glyph glyph-name="one" unicode="1" horiz-adv-x="427" 
d="M367 0h-200v491l-121 -29l-46 167l197 71h170v-700z" />
    <glyph glyph-name="two" unicode="2" horiz-adv-x="546" 
d="M248 393l18 19q25 26 35 40t10 30q0 17 -12 28.5t-35 11.5q-28 0 -49 -18.5t-34 -52.5l-176 96q35 83 103.5 126t152.5 43q66 0 123 -25.5t92 -75t35 -119.5q0 -44 -14.5 -80.5t-37.5 -67.5t-62 -75l-71 -79h200v-194h-506v146z" />
    <glyph glyph-name="three" unicode="3" horiz-adv-x="545" 
d="M484.5 344.5q40.5 -49.5 40.5 -124.5q0 -78 -35 -131t-94 -79t-131 -26q-92 0 -161 42t-99 124l176 101q21 -73 84 -73q27 0 43.5 14t16.5 38q0 25 -16 37.5t-44 12.5h-43l-78 116l94 110h-211v194h460v-154l-111 -132q68 -20 108.5 -69.5z" />
    <glyph glyph-name="four" unicode="4" horiz-adv-x="575" 
d="M500 102v-102h-196v102h-294v180l193 418h227l-196 -418h70v98h196v-98h70v-180h-70z" />
    <glyph glyph-name="five" unicode="5" horiz-adv-x="550" 
d="M416.5 429.5q54.5 -25.5 86.5 -76.5t32 -125q0 -79 -35 -134t-94 -82.5t-131 -27.5q-99 0 -169.5 42t-100.5 124l176 101q10 -36 32 -54.5t62 -18.5q27 0 43.5 13t16.5 38q0 26 -17 37.5t-43 11.5h-230l29 422h421v-194h-238l-4 -51h42q67 0 121.5 -25.5z" />
    <glyph glyph-name="six" unicode="6" horiz-adv-x="560" 
d="M492.5 392.5q57.5 -65.5 57.5 -161.5q0 -72 -33.5 -128t-94.5 -87.5t-142 -31.5t-142.5 31.5t-94.5 87.5t-33 128q0 78 38 136l208 333h224l-143 -226q98 -16 155.5 -81.5zM331.5 180q18.5 17 18.5 51t-18.5 51t-51.5 17t-51.5 -17t-18.5 -51t18.5 -51t51.5 -17t51.5 17z
" />
    <glyph glyph-name="seven" unicode="7" horiz-adv-x="490" 
d="M480 536l-208 -536h-220l196 506h-258v194h490v-164z" />
    <glyph glyph-name="eight" unicode="8" horiz-adv-x="564" 
d="M525 294q24 -44 24 -97q0 -98 -69 -154.5t-198 -56.5t-198 56.5t-69 154.5q0 53 24 97t71 72q-71 53 -71 140q0 64 31.5 111.5t86.5 72t125 24.5t125 -24.5t86.5 -72t31.5 -111.5q0 -87 -71 -140q47 -28 71 -72zM235.5 525q-16.5 -13 -16.5 -38t16.5 -38t46.5 -13
q28 0 45.5 13t17.5 38t-17.5 38t-45.5 13q-30 0 -46.5 -13zM331.5 181.5q17.5 15.5 17.5 43.5t-17.5 43.5t-49.5 15.5t-49.5 -15.5t-17.5 -43.5t17.5 -43.5t49.5 -15.5t49.5 15.5z" />
    <glyph glyph-name="nine" unicode="9" horiz-adv-x="560" 
d="M512 333l-208 -333h-224l143 226q-98 16 -155.5 81.5t-57.5 161.5q0 72 33.5 128t94.5 87.5t142 31.5t142.5 -31.5t94.5 -87.5t33 -128q0 -78 -38 -136zM228.5 520q-18.5 -17 -18.5 -51t18.5 -51t51.5 -17t51.5 17t18.5 51t-18.5 51t-51.5 17t-51.5 -17z" />
    <glyph glyph-name="colon" unicode=":" horiz-adv-x="300" 
d="M68.5 318.5q-33.5 33.5 -33.5 81.5t33.5 81.5t81.5 33.5t81.5 -33.5t33.5 -81.5t-33.5 -81.5t-81.5 -33.5t-81.5 33.5zM68.5 18.5q-33.5 33.5 -33.5 81.5t33.5 81.5t81.5 33.5t81.5 -33.5t33.5 -81.5t-33.5 -81.5t-81.5 -33.5t-81.5 33.5z" />
    <glyph glyph-name="semicolon" unicode=";" horiz-adv-x="320" 
d="M88.5 318.5q-33.5 33.5 -33.5 81.5t33.5 81.5t81.5 33.5t81.5 -33.5t33.5 -81.5t-33.5 -81.5t-81.5 -33.5t-81.5 33.5zM40 -140l30 335h210l-90 -335h-150z" />
    <glyph glyph-name="less" unicode="&#x3c;" horiz-adv-x="510" 
d="M220 350l260 -86v-194l-450 195v170l450 195v-194z" />
    <glyph glyph-name="equal" unicode="=" horiz-adv-x="500" 
d="M470 555v-180h-440v180h440zM470 325v-180h-440v180h440z" />
    <glyph glyph-name="greater" unicode="&#x3e;" horiz-adv-x="510" 
d="M480 265l-450 -195v194l260 86l-260 86v194l450 -195v-170z" />
    <glyph glyph-name="question" unicode="?" horiz-adv-x="532" 
d="M187.5 342.5q22.5 33.5 63.5 71.5q28 27 39.5 41.5t11.5 32.5q0 16 -11 26t-30 10q-49 0 -82 -73l-169 96q36 85 105 127t154 42q66 0 119 -24t83.5 -68.5t30.5 -104.5q0 -42 -14.5 -75t-35 -55.5t-51.5 -50.5q-29 -25 -42.5 -42t-13.5 -36h-180q0 49 22.5 82.5z
M173.5 18.5q-33.5 33.5 -33.5 81.5t33.5 81.5t81.5 33.5t81.5 -33.5t33.5 -81.5t-33.5 -81.5t-81.5 -33.5t-81.5 33.5z" />
    <glyph glyph-name="at" unicode="@" horiz-adv-x="764" 
d="M575 562.5q80 -49.5 122 -128.5t42 -164q0 -110 -41 -169.5t-127 -59.5q-55 0 -92.5 23.5t-52.5 62.5q-36 -42 -94 -42q-69 0 -110.5 46t-41.5 119t41.5 119t110.5 46q51 0 86 -33v21h152v-236q0 -30 10 -45t34 -15q33 0 54 38.5t21 124.5q0 82 -39.5 149.5t-108 107
t-152.5 39.5q-87 0 -159 -42t-113.5 -114t-41.5 -160q0 -90 43 -162t118.5 -113t170.5 -41q82 0 143 20v-49q-62 -17 -143 -17q-108 0 -195 46.5t-137 129.5t-50 186q0 99 47.5 182t131 131.5t185.5 48.5q106 0 186 -49.5zM405.5 216q11.5 13 11.5 34t-11.5 34t-30.5 13
t-31 -13t-12 -34t12 -34t31 -13t30.5 13z" />
    <glyph glyph-name="A" unicode="A" horiz-adv-x="660" 
d="M229 90l-24 -90h-215l223 700h234l223 -700h-215l-24 90h-202zM330 465l-58 -215h116z" />
    <glyph glyph-name="B" unicode="B" horiz-adv-x="605" 
d="M566.5 296.5q23.5 -39.5 23.5 -90.5q0 -96 -62.5 -151t-181.5 -55h-296v700h278q118 0 180 -51t62 -146q0 -91 -70 -142q43 -25 66.5 -64.5zM250 434l77 1q19 2 31 13.5t12 32.5q0 23 -16 35t-38 12h-66v-94zM374 186q16 14 16 36q0 21 -12 33.5t-33 15.5l-95 1v-100h84
q24 0 40 14z" />
    <glyph glyph-name="C" unicode="C" horiz-adv-x="718" 
d="M203.5 32q-83.5 48 -131 132t-47.5 186t47.5 186t131 132t187.5 48q97 0 179 -46t128 -124l-174 -100q-17 34 -53 54t-80 20q-49 0 -86.5 -22t-58.5 -61t-21 -87t21 -87t58.5 -61t86.5 -22q45 0 80.5 20t52.5 55l174 -100q-46 -79 -128 -125t-179 -46q-104 0 -187.5 48z
" />
    <glyph glyph-name="D" unicode="D" horiz-adv-x="705" 
d="M513 654q78 -46 122.5 -126t44.5 -178t-44.5 -178t-122.5 -126t-173 -46h-290v700h290q95 0 173 -46zM440.5 237.5q39.5 43.5 39.5 112.5t-39.5 112.5t-100.5 43.5h-80v-312h80q61 0 100.5 43.5z" />
    <glyph glyph-name="E" unicode="E" horiz-adv-x="540" 
d="M510 0h-460v700h455v-182h-255v-76h230v-180h-230v-78h260v-184z" />
    <glyph glyph-name="F" unicode="F" horiz-adv-x="515" 
d="M250 415h230v-194h-230v-221h-200v700h435v-194h-235v-91z" />
    <glyph glyph-name="G" unicode="G" horiz-adv-x="772" 
d="M703.5 153q-43.5 -79 -123 -124t-183.5 -45q-108 0 -193 48t-132 131.5t-47 185.5q0 103 47.5 187t130.5 132t186 48q98 0 179.5 -44t128.5 -119l-170 -97q-19 29 -54 46.5t-80 17.5q-75 0 -121.5 -48t-46.5 -124q0 -45 18 -86t57.5 -67t100.5 -26q104 0 139 74h-149v170
h356v-83q0 -98 -43.5 -177z" />
    <glyph glyph-name="H" unicode="H" horiz-adv-x="670" 
d="M620 0h-200v258h-170v-258h-200v700h200v-248h170v248h200v-700z" />
    <glyph glyph-name="I" unicode="I" horiz-adv-x="300" 
d="M250 0h-200v700h200v-700z" />
    <glyph glyph-name="J" unicode="J" horiz-adv-x="567" 
d="M115 20q-60 36 -95 108l168 99q13 -27 31.5 -38t46.5 -11q30 0 45.5 15t15.5 42v465h200v-470q0 -115 -68 -180.5t-192 -65.5q-92 0 -152 36z" />
    <glyph glyph-name="K" unicode="K" horiz-adv-x="636" 
d="M250 300v-300h-200v700h200v-280l164 280h222l-208 -340l218 -360h-222z" />
    <glyph glyph-name="L" unicode="L" horiz-adv-x="490" 
d="M480 0h-430v700h200v-506h230v-194z" />
    <glyph glyph-name="M" unicode="M" horiz-adv-x="830" 
d="M580 0v341l-156 -262h-18l-156 262v-341h-200v700h200l165 -285l165 285h200v-700h-200z" />
    <glyph glyph-name="N" unicode="N" horiz-adv-x="680" 
d="M630 0h-160l-220 320v-320h-200v700h160l220 -320v320h200v-700z" />
    <glyph glyph-name="O" unicode="O" horiz-adv-x="792" 
d="M209 32.5q-85 48.5 -134.5 132t-49.5 185.5t49.5 185.5t134.5 132t187 48.5t187 -48.5t134.5 -132t49.5 -185.5t-49.5 -185.5t-134.5 -132t-187 -48.5t-187 48.5zM484 202q39 22 61 61t22 87t-22 87t-61 61t-88 22t-88 -22t-61 -61t-22 -87t22 -87t61 -61t88 -22t88 22z
" />
    <glyph glyph-name="P" unicode="P" horiz-adv-x="595" 
d="M459 669.5q58 -30.5 92 -87.5t34 -133t-34 -133t-92 -87.5t-129 -30.5h-80v-198h-200v700h280q71 0 129 -30.5zM369 407.5q16 15.5 16 41.5t-16 41.5t-39 15.5h-80v-114h80q23 0 39 15.5z" />
    <glyph glyph-name="Q" unicode="Q" horiz-adv-x="797" 
d="M696 131l56 -61l-137 -120l-62 67q-74 -33 -157 -33q-102 0 -187 48.5t-134.5 132t-49.5 185.5t49.5 185.5t134.5 132t187 48.5t187 -48.5t134.5 -132t49.5 -185.5q0 -123 -71 -219zM317 274l138 119l100 -109q12 30 12 66q0 48 -22 87t-61 61t-88 22t-88 -22t-61 -61
t-22 -87t22 -87t61 -61t88 -22h7z" />
    <glyph glyph-name="R" unicode="R" horiz-adv-x="625" 
d="M250 221v-220h-200v700h280q75 0 135.5 -30t95 -86t34.5 -130q0 -62 -28.5 -112t-79.5 -81l138 -261h-214l-111 220h-50zM326 387q32 -1 50.5 16t18.5 48t-18.5 48.5t-50.5 17.5h-76v-130h76z" />
    <glyph glyph-name="S" unicode="S" horiz-adv-x="585" 
d="M112 31.5q-76 47.5 -102 128.5l171 99q18 -46 49.5 -67.5t76.5 -21.5q35 0 51.5 9.5t16.5 26.5q0 20 -19.5 30t-66.5 23q-29 7 -38 10q-97 29 -153 82.5t-56 142.5q0 63 31.5 113.5t88.5 79.5t132 29q89 0 159.5 -42t103.5 -121l-166 -97q-15 38 -40.5 56t-55.5 18
q-26 0 -39.5 -10.5t-13.5 -26.5q0 -22 23.5 -34t90.5 -31q68 -20 113.5 -43t75.5 -66t30 -111q0 -107 -73.5 -165.5t-199.5 -58.5q-114 0 -190 47.5z" />
    <glyph glyph-name="T" unicode="T" horiz-adv-x="550" 
d="M375 506v-506h-200v506h-165v194h530v-194h-165z" />
    <glyph glyph-name="U" unicode="U" horiz-adv-x="650" 
d="M176.5 15q-64.5 31 -100.5 88t-36 131v466h200v-444q0 -39 21 -63t64 -24t64 24t21 63v444h200v-466q0 -74 -36 -131t-100.5 -88t-148.5 -31t-148.5 31z" />
    <glyph glyph-name="V" unicode="V" horiz-adv-x="670" 
d="M220 700l115 -445l115 445h220l-223 -700h-224l-223 700h220z" />
    <glyph glyph-name="W" unicode="W" horiz-adv-x="1010" 
d="M220 700l95 -385l113 385h154l113 -385l95 385h220l-198 -700h-197l-110 374l-110 -374h-197l-198 700h220z" />
    <glyph glyph-name="X" unicode="X" horiz-adv-x="645" 
d="M323 168l-101 -168h-222l212 354l-207 346h222l96 -160l95 160h222l-206 -346l211 -354h-222z" />
    <glyph glyph-name="Y" unicode="Y" horiz-adv-x="674" 
d="M437 0h-200v266l-237 434h222l115 -246l115 246h222l-237 -434v-266z" />
    <glyph glyph-name="Z" unicode="Z" horiz-adv-x="545" 
d="M525 0h-495v154l223 352h-218v194h480v-154l-223 -352h233v-194z" />
    <glyph glyph-name="bracketleft" unicode="[" horiz-adv-x="340" 
d="M225 76h95v-176h-280v900h280v-176h-95v-548z" />
    <glyph glyph-name="backslash" unicode="\" horiz-adv-x="520" 
d="M100 800l400 -900h-80l-400 900h80z" />
    <glyph glyph-name="bracketright" unicode="]" horiz-adv-x="340" 
d="M20 -100v176h95v548h-95v176h280v-900h-280z" />
    <glyph glyph-name="asciicircum" unicode="^" horiz-adv-x="580" 
d="M360 330l-70 147l-70 -147h-200l206 370h128l206 -370h-200z" />
    <glyph glyph-name="underscore" unicode="_" horiz-adv-x="510" 
d="M490 -17v-174h-470v174h470z" />
    <glyph glyph-name="grave" unicode="`" horiz-adv-x="330" 
d="M20 700l116 -150h174l-80 150h-210z" />
    <glyph glyph-name="a" unicode="a" horiz-adv-x="606" 
d="M566 0h-185v45q-48 -59 -134 -59q-67 0 -119 34.5t-81 94.5t-29 135t29 135t81 94.5t119 34.5q86 0 134 -59v45h185v-500zM356.5 183q24.5 27 24.5 67t-24.5 67t-64.5 27t-64.5 -27t-24.5 -67t24.5 -67t64.5 -27t64.5 27z" />
    <glyph glyph-name="b" unicode="b" horiz-adv-x="606" 
d="M478 479.5q52 -34.5 81 -94.5t29 -135t-29 -135t-81 -94.5t-119 -34.5q-86 0 -134 59v-45h-185v700h185v-245q48 59 134 59q67 0 119 -34.5zM378.5 183q24.5 27 24.5 67t-24.5 67t-64.5 27t-64.5 -27t-24.5 -67t24.5 -67t64.5 -27t64.5 27z" />
    <glyph glyph-name="c" unicode="c" horiz-adv-x="525" 
d="M149 20.5q-61 34.5 -96 95t-35 134.5t35 134.5t96 95t136 34.5q74 0 135.5 -35.5t94.5 -95.5l-156 -89q-11 19 -30.5 30.5t-43.5 11.5q-35 0 -58.5 -24.5t-23.5 -61.5t23.5 -61.5t58.5 -24.5q24 0 44 12t30 31l156 -90q-33 -61 -94.5 -96t-135.5 -35q-75 0 -136 34.5z
" />
    <glyph glyph-name="d" unicode="d" horiz-adv-x="606" 
d="M566 0h-185v45q-48 -59 -134 -59q-67 0 -119 34.5t-81 94.5t-29 135t29 135t81 94.5t119 34.5q86 0 134 -59v245h185v-700zM356.5 183q24.5 27 24.5 67t-24.5 67t-64.5 27t-64.5 -27t-24.5 -67t24.5 -67t64.5 -27t64.5 27z" />
    <glyph glyph-name="e" unicode="e" horiz-adv-x="560" 
d="M245 147.5q26 -10.5 62 -10.5q24 0 44 7t41 25l121 -102q-38 -41 -93.5 -61t-118.5 -20q-85 0 -149.5 34.5t-99 94t-34.5 133.5q0 75 34.5 135.5t95 95.5t136.5 35q75 0 134.5 -34.5t93 -94t33.5 -133.5q0 -33 -8 -65h-332q14 -29 40 -39.5zM289 366q-30 0 -53 -15
t-34 -45h168q-17 60 -81 60z" />
    <glyph glyph-name="f" unicode="f" horiz-adv-x="330" 
d="M273.5 539q-20.5 -14 -20.5 -39h77v-176h-77v-324h-185v324h-58v176h58q0 102 60 159.5t175 57.5q18 0 27 -1v-166q-36 3 -56.5 -11z" />
    <glyph glyph-name="g" unicode="g" horiz-adv-x="613" 
d="M573 15q0 -79 -37 -131t-96.5 -76t-128.5 -24q-88 0 -156 32t-101 90l150 87q19 -26 42.5 -37.5t54.5 -11.5q35 0 61 17.5t26 53.5v50q-48 -59 -134 -59q-66 0 -118.5 34t-81.5 92t-29 128t29 128t81.5 92t118.5 34q86 0 134 -59v45h185v-485zM363.5 196q24.5 26 24.5 64
t-24.5 64t-64.5 26t-64.5 -26t-24.5 -64t24.5 -64t64.5 -26t64.5 26z" />
    <glyph glyph-name="h" unicode="h" horiz-adv-x="575" 
d="M490.5 457.5q49.5 -56.5 49.5 -168.5v-289h-185v269q0 33 -16.5 50t-45.5 17q-33 0 -50.5 -21t-17.5 -58v-257h-185v700h185v-249q46 63 134 63q82 0 131.5 -56.5z" />
    <glyph glyph-name="i" unicode="i" horiz-adv-x="265" 
d="M60.5 568.5q-30.5 30.5 -30.5 71.5t30.5 71.5t72.5 30.5q41 0 71.5 -30.5t30.5 -71.5t-30.5 -71.5t-71.5 -30.5q-42 0 -72.5 30.5zM225 500v-500h-185v500h185z" />
    <glyph glyph-name="j" unicode="j" horiz-adv-x="280" 
d="M75.5 568.5q-30.5 30.5 -30.5 71.5t30.5 71.5t72.5 30.5q41 0 71.5 -30.5t30.5 -71.5t-30.5 -71.5t-71.5 -30.5q-42 0 -72.5 30.5zM240 500v-500q0 -112 -54 -164.5t-167 -52.5q-19 0 -29 1v166q34 -3 49.5 9t15.5 41v500h185z" />
    <glyph glyph-name="k" unicode="k" horiz-adv-x="550" 
d="M225 200v-200h-185v700h185v-394l105 194h210l-152 -250l162 -250h-205z" />
    <glyph glyph-name="l" unicode="l" horiz-adv-x="265" 
d="M225 730v-730h-185v730h185z" />
    <glyph glyph-name="m" unicode="m" horiz-adv-x="850" 
d="M766 459.5q49 -54.5 49 -155.5v-304h-185v279q0 26 -13 41.5t-38 15.5q-30 0 -44.5 -20.5t-14.5 -53.5v-262h-185v279q0 26 -13 41.5t-38 15.5q-30 0 -44.5 -20.5t-14.5 -53.5v-262h-185v500h185v-47q23 28 57.5 44.5t78.5 16.5q86 0 125 -62q54 62 144 62
q87 0 136 -54.5z" />
    <glyph glyph-name="n" unicode="n" horiz-adv-x="575" 
d="M490.5 457.5q49.5 -56.5 49.5 -168.5v-289h-185v269q0 33 -16.5 50t-45.5 17q-33 0 -50.5 -21t-17.5 -58v-257h-185v500h185v-49q46 63 134 63q82 0 131.5 -56.5z" />
    <glyph glyph-name="o" unicode="o" horiz-adv-x="574" 
d="M152 21q-62 35 -98 95t-36 134t36 134.5t97.5 95t135.5 34.5t135.5 -34.5t97.5 -95t36 -134.5t-36 -134.5t-97.5 -95t-135.5 -34.5q-73 0 -135 35zM347.5 186.5q23.5 24.5 23.5 63.5t-23.5 63.5t-60.5 24.5t-60.5 -24.5t-23.5 -63.5t23.5 -63.5t60.5 -24.5t60.5 24.5z
" />
    <glyph glyph-name="p" unicode="p" horiz-adv-x="606" 
d="M478 479.5q52 -34.5 81 -94.5t29 -135t-29 -135t-81 -94.5t-119 -34.5q-86 0 -134 59v-245h-185v700h185v-45q48 59 134 59q67 0 119 -34.5zM378.5 183q24.5 27 24.5 67t-24.5 67t-64.5 27t-64.5 -27t-24.5 -67t24.5 -67t64.5 -27t64.5 27z" />
    <glyph glyph-name="q" unicode="q" horiz-adv-x="606" 
d="M566 -200h-185v245q-48 -59 -134 -59q-67 0 -119 34.5t-81 94.5t-29 135t29 135t81 94.5t119 34.5q86 0 134 -59v45h185v-700zM356.5 183q24.5 27 24.5 67t-24.5 67t-64.5 27t-64.5 -27t-24.5 -67t24.5 -67t64.5 -27t64.5 27z" />
    <glyph glyph-name="r" unicode="r" horiz-adv-x="390" 
d="M280 482q41 28 95 28v-200q-16 2 -24 2q-53 0 -89.5 -32t-36.5 -94v-186h-185v500h185v-97q14 51 55 79z" />
    <glyph glyph-name="s" unicode="s" horiz-adv-x="484" 
d="M235 335q16 -6 50 -12q53 -10 90.5 -23.5t65.5 -47.5t28 -93q0 -63 -34.5 -102t-85.5 -55t-105 -16q-88 0 -146.5 27.5t-87.5 91.5l161 72q19 -51 71 -51q16 0 25 6t9 16q0 12 -15.5 18.5t-50.5 14.5q-50 11 -86 25.5t-62.5 47.5t-26.5 88t30 94t77.5 58.5t99.5 19.5
q79 0 133.5 -29t83.5 -98l-153 -55q-18 42 -56 42q-15 0 -23 -5.5t-8 -15.5q0 -12 16 -18z" />
    <glyph glyph-name="t" unicode="t" horiz-adv-x="400" 
d="M265 216q0 -30 16.5 -40.5t52.5 -10.5q23 0 36 1v-166q-46 -7 -90 -7q-107 0 -153.5 51.5t-46.5 161.5v118h-70v176h70v85l185 55v-140h105v-176h-105v-108z" />
    <glyph glyph-name="u" unicode="u" horiz-adv-x="575" 
d="M535 0h-185v49q-46 -63 -134 -63q-82 0 -131.5 56.5t-49.5 168.5v289h185v-269q0 -33 16.5 -50t45.5 -17q33 0 50.5 21t17.5 58v257h185v-500z" />
    <glyph glyph-name="v" unicode="v" horiz-adv-x="570" 
d="M380 0h-190l-190 500h205l80 -250l80 250h205z" />
    <glyph glyph-name="w" unicode="w" horiz-adv-x="830" 
d="M665 0h-188l-62 235l-62 -235h-188l-145 500h195l58 -277l72 277h140l72 -277l58 277h195z" />
    <glyph glyph-name="x" unicode="x" horiz-adv-x="570" 
d="M285 112l-80 -112h-205l183 256l-175 244h205l72 -101l72 101h205l-174 -244l182 -256h-205z" />
    <glyph glyph-name="y" unicode="y" horiz-adv-x="570" 
d="M400 1q-37 -109 -115 -157.5t-206 -43.5v175q51 0 78 7.5t43 27.5l-200 490h210l89 -267l61 267h210z" />
    <glyph glyph-name="z" unicode="z" horiz-adv-x="495" 
d="M460 0h-420v130l164 200h-154v170h400v-130l-164 -200h174v-170z" />
    <glyph glyph-name="braceleft" unicode="{" horiz-adv-x="365" 
d="M317 -108q-106 0 -159 51.5t-53 145.5v125q0 27 -15 39t-44 12l-16 -1v175l16 -1q29 0 44 12t15 39v125q0 94 53 145.5t159 51.5q18 0 28 -1v-166q-5 1 -14 1q-41 0 -41 -31v-125q0 -104 -83 -137q83 -35 83 -138v-125q0 -31 41 -31q9 0 14 1v-166q-10 -1 -28 -1z" />
    <glyph glyph-name="bar" unicode="|" horiz-adv-x="285" 
d="M235 720v-920h-185v920h185z" />
    <glyph glyph-name="braceright" unicode="}" horiz-adv-x="365" 
d="M34 58q41 0 41 31v125q0 103 83 138q-83 33 -83 137v125q0 31 -41 31q-9 0 -14 -1v166q10 1 28 1q106 0 159 -51.5t53 -145.5v-125q0 -27 15 -39t44 -12l16 1v-175l-16 1q-29 0 -44 -12t-15 -39v-125q0 -94 -53 -145.5t-159 -51.5q-18 0 -28 1v166q5 -1 14 -1z" />
    <glyph glyph-name="asciitilde" unicode="~" horiz-adv-x="612" 
d="M515 269q-49 -48 -116 -48q-44 0 -93 23q-61 29 -87 29q-17 0 -27 -11.5t-18 -36.5l-144 65q18 89 67 137t116 48q44 0 93 -23q61 -29 86 -29q17 0 27.5 11.5t18.5 36.5l144 -65q-18 -89 -67 -137z" />
    <glyph glyph-name="exclamdown" unicode="&#xa1;" horiz-adv-x="310" 
d="M236.5 481.5q33.5 -33.5 33.5 -81.5t-33.5 -81.5t-81.5 -33.5t-81.5 33.5t-33.5 81.5t33.5 81.5t81.5 33.5t81.5 -33.5zM270 0v-200h-230v200l35 240h160z" />
    <glyph glyph-name="cent" unicode="&#xa2;" horiz-adv-x="525" 
d="M330 276.5q19 11.5 29 30.5l156 -90q-33 -61 -94.5 -96t-135.5 -35q-25 0 -53 5l-29 -91h-65l35 109q-71 30 -113 94.5t-42 146.5q0 74 35 134.5t96 95t136 34.5q18 0 50 -4l29 90h65l-35 -108q79 -35 121 -109l-156 -89q-7 14 -21 24l-50 -154q23 1 42 12.5zM230 285
l49 151q-33 -2 -54.5 -26t-21.5 -60q0 -41 27 -65z" />
    <glyph glyph-name="sterling" unicode="&#xa3;" horiz-adv-x="570" 
d="M570 0h-550v194h57v81h-47v140h47v67q0 76 34 128.5t87.5 79t113.5 26.5q90 0 151.5 -39.5t97.5 -124.5l-173 -93q-21 69 -66 69q-22 0 -33.5 -16.5t-11.5 -42.5v-54h183v-140h-183v-81h293v-194z" />
    <glyph glyph-name="currency" unicode="&#xa4;" horiz-adv-x="526" 
d="M436 222l70 -69l-46 -46l-71 71q-55 -38 -126 -38t-126 38l-71 -71l-46 46l69 69q-43 56 -43 128t43 128l-69 69l46 46l71 -71q55 38 126 38t126 -38l71 71l46 -46l-70 -69q44 -55 44 -128t-44 -128zM294.5 319.5q11.5 11.5 11.5 30.5t-11.5 30.5t-31.5 11.5t-31.5 -11.5
t-11.5 -30.5t11.5 -30.5t31.5 -11.5t31.5 11.5z" />
    <glyph glyph-name="yen" unicode="&#xa5;" horiz-adv-x="654" 
d="M577 377v-100h-134l-6 -11v-31h140v-100h-140v-135h-200v135h-160v100h160v31l-6 11h-154v100h99l-176 323h222l115 -246l115 246h222l-176 -323h79z" />
    <glyph glyph-name="brokenbar" unicode="&#xa6;" horiz-adv-x="285" 
d="M235 720v-370h-185v370h185zM235 170v-370h-185v370h185z" />
    <glyph glyph-name="section" unicode="&#xa7;" horiz-adv-x="537" 
d="M465 171q32 -42 32 -106q0 -57 -31 -97t-83 -60t-114 -20q-82 0 -142 31t-89 96l153 78q14 -30 33 -43.5t45 -13.5q44 0 44 29q0 16 -19 26t-60 24q-43 16 -50 19q-69 28 -111.5 71t-42.5 115q0 38 14.5 69t40.5 53q-25 42 -25 97q0 57 30 97t78 60t100 20
q77 0 131.5 -31t89.5 -101l-148 -70q-19 62 -63 62q-15 0 -24.5 -7.5t-9.5 -19.5q0 -20 20.5 -32t66.5 -29q26 -9 54 -21q62 -27 97 -67.5t35 -109.5q0 -73 -52 -119zM224 297q14 -9 52 -25q14 -6 46 -16q15 11 15 29q0 14 -9.5 21.5t-24 13.5t-21.5 9q-10 5 -61 23
q-11 -11 -11 -27q0 -19 14 -28z" />
    <glyph glyph-name="dieresis" unicode="&#xa8;" horiz-adv-x="400" 
d="M45 555q-25 25 -25 60t25 60t60 25t60 -25t25 -60t-25 -60t-60 -25t-60 25zM245 555q-25 25 -25 60t25 60t60 25t60 -25t25 -60t-25 -60t-60 -25t-60 25z" />
    <glyph glyph-name="copyright" unicode="&#xa9;" horiz-adv-x="774" 
d="M205.5 36.5q-83.5 48.5 -132 132t-48.5 181.5t48.5 181.5t132 132t181.5 48.5t181.5 -48.5t132 -132t48.5 -181.5t-48.5 -181.5t-132 -132t-181.5 -48.5t-181.5 48.5zM543.5 76.5q71.5 42.5 113.5 115t42 158.5t-42 158.5t-113.5 115t-156.5 42.5t-156.5 -42.5
t-113.5 -115t-42 -158.5t42 -158.5t113.5 -115t156.5 -42.5t156.5 42.5zM290.5 180q-45.5 27 -72.5 72t-27 98t27 98t72.5 72t99.5 27q52 0 96 -25.5t71 -72.5l-127 -73q-15 24 -44 24q-22 0 -36 -15t-14 -35t14 -35t36 -15q29 0 44 24l128 -73q-27 -47 -71.5 -72.5
t-96.5 -25.5q-54 0 -99.5 27z" />
    <glyph glyph-name="guillemotleft" unicode="&#xab;" horiz-adv-x="577" 
d="M317 109h-152l-115 200l115 200h152l-115 -200zM527 109h-152l-115 200l115 200h152l-115 -200z" />
    <glyph glyph-name="logicalnot" unicode="&#xac;" horiz-adv-x="580" 
d="M550 140h-190v120h-330v180h520v-300z" />
    <glyph glyph-name="registered" unicode="&#xae;" horiz-adv-x="774" 
d="M568.5 663.5q83.5 -48.5 132 -132t48.5 -181.5t-48.5 -181.5t-132 -132t-181.5 -48.5t-181.5 48.5t-132 132t-48.5 181.5t48.5 181.5t132 132t181.5 48.5t181.5 -48.5zM543.5 76.5q71.5 42.5 113.5 115t42 158.5t-42 158.5t-113.5 115t-156.5 42.5t-156.5 -42.5
t-113.5 -115t-42 -158.5t42 -158.5t113.5 -115t156.5 -42.5t156.5 42.5zM552.5 340q-13.5 -30 -37.5 -50l71 -125h-151l-48 92h-13v-92h-142v370h194q37 0 69 -16.5t51.5 -46t19.5 -66.5q0 -36 -13.5 -66zM374 367h22q28 0 28 24t-28 24h-22v-48z" />
    <glyph glyph-name="macron" unicode="&#xaf;" horiz-adv-x="360" 
d="M340 689v-140h-320v140h320z" />
    <glyph glyph-name="degree" unicode="&#xb0;" horiz-adv-x="426" 
d="M119 474.5q-42 24.5 -65.5 65.5t-23.5 90q0 50 23.5 91t65.5 65t94 24t94 -24t65.5 -65t23.5 -91q0 -49 -23.5 -90t-65 -65.5t-94.5 -24.5q-52 0 -94 24.5zM241.5 601q10.5 11 10.5 29q0 17 -11 28.5t-28 11.5t-28 -11.5t-11 -28.5t11 -28.5t28 -11.5q18 0 28.5 11z" />
    <glyph glyph-name="plusminus" unicode="&#xb1;" horiz-adv-x="560" 
d="M530 360h-160v-130h-180v130h-160v180h160v130h180v-130h160v-180zM530 180v-180h-500v180h500z" />
    <glyph glyph-name="acute" unicode="&#xb4;" horiz-adv-x="330" 
d="M310 700h-210l-80 -150h174z" />
    <glyph glyph-name="uni00B5" unicode="&#xb5;" horiz-adv-x="595" 
d="M585 0h-80q-79 0 -120 50q-42 -66 -144 -66q-11 0 -16 1v-185h-185v700h185v-271q0 -33 16.5 -50t45.5 -17q33 0 50.5 21t17.5 58v259h185v-310q0 -14 8 -22t22 -8h15v-160z" />
    <glyph glyph-name="paragraph" unicode="&#xb6;" horiz-adv-x="760" 
d="M668 506v-706h-180v706h-58v-706h-180v440q-63 0 -115.5 31t-83.5 84t-31 115q0 63 30.5 116t83.5 83.5t116 30.5h490v-194h-72z" />
    <glyph glyph-name="periodcentered" unicode="&#xb7;" horiz-adv-x="300" 
d="M68.5 273.5q-33.5 33.5 -33.5 81.5t33.5 81.5t81.5 33.5t81.5 -33.5t33.5 -81.5t-33.5 -81.5t-81.5 -33.5t-81.5 33.5z" />
    <glyph glyph-name="cedilla" unicode="&#xb8;" horiz-adv-x="285" 
d="M248 -73q17 -19 17 -50q0 -51 -49 -78t-148 -27q-14 0 -48 2v114q30 -2 40 -2q55 0 55 16q0 8 -13.5 13t-39.5 7v78h150v-46q19 -8 36 -27z" />
    <glyph glyph-name="guillemotright" unicode="&#xbb;" horiz-adv-x="577" 
d="M202 109h-152l115 200l-115 200h152l115 -200zM412 109h-152l115 200l-115 200h152l115 -200z" />
    <glyph glyph-name="onequarter" unicode="&#xbc;" horiz-adv-x="825" 
d="M33 532l-33 120l132 48h121v-400h-142v251zM229 0h-130l410 700h130zM782 51v-51h-128v51h-190v120l110 229h147l-104 -229h37v66h128v-66h33v-120h-33z" />
    <glyph glyph-name="onehalf" unicode="&#xbd;" horiz-adv-x="810" 
d="M33 532l-33 120l132 48h121v-400h-142v251zM229 0h-130l410 700h130zM788 0h-306v102l140 131q27 25 27 41q0 18 -20 18q-23 0 -39 -42l-116 66q50 98 162 98q39 0 74 -16.5t56 -46.5t21 -69q0 -34 -17 -63.5t-53 -61.5l-36 -32h107v-125z" />
    <glyph glyph-name="threequarters" unicode="&#xbe;" horiz-adv-x="869" 
d="M282.5 323.5q-45.5 -37.5 -118.5 -37.5q-119 0 -164 98l114 65q7 -19 18 -29.5t32 -10.5q14 0 21 5.5t7 14.5q0 19 -23 19h-32l-50 75l48 54h-114v123h292v-89l-64 -72q37 -14 58 -41.5t21 -68.5q0 -68 -45.5 -105.5zM273 0h-130l410 700h130zM826 51v-51h-128v51h-190
v120l110 229h147l-104 -229h37v66h128v-66h33v-120h-33z" />
    <glyph glyph-name="questiondown" unicode="&#xbf;" horiz-adv-x="532" 
d="M358.5 481.5q33.5 -33.5 33.5 -81.5t-33.5 -81.5t-81.5 -33.5t-81.5 33.5t-33.5 81.5t33.5 81.5t81.5 33.5t81.5 -33.5zM344.5 157.5q-22.5 -33.5 -63.5 -71.5q-28 -27 -39.5 -41.5t-11.5 -32.5q0 -16 11 -26t30 -10q49 0 82 73l169 -96q-36 -85 -105 -127t-154 -42
q-66 0 -119 24t-83.5 68.5t-30.5 104.5q0 42 14.5 75t35 55.5t51.5 50.5q29 25 42.5 42t13.5 36h180q0 -49 -22.5 -82.5z" />
    <glyph glyph-name="Agrave" unicode="&#xc0;" horiz-adv-x="660" 
d="M140 900h210l80 -150h-174zM229 90l-24 -90h-215l223 700h234l223 -700h-215l-24 90h-202zM330 465l-58 -215h116z" />
    <glyph glyph-name="Aacute" unicode="&#xc1;" horiz-adv-x="660" 
d="M220 750l80 150h210l-116 -150h-174zM229 90l-24 -90h-215l223 700h234l223 -700h-215l-24 90h-202zM330 465l-58 -215h116z" />
    <glyph glyph-name="Acircumflex" unicode="&#xc2;" horiz-adv-x="660" 
d="M125 740l106 160h188l106 -160h-155l-45 58l-45 -58h-155zM229 90l-24 -90h-215l223 700h234l223 -700h-215l-24 90h-202zM330 465l-58 -215h116z" />
    <glyph glyph-name="Atilde" unicode="&#xc3;" horiz-adv-x="660" 
d="M305 767q-13 7 -20 7q-14 0 -14 -31h-120q0 87 33.5 127t85.5 40q27 0 64 -14q9 -4 22 -10.5t20 -6.5q14 0 14 31h120q0 -88 -33 -127.5t-84 -39.5q-34 0 -67 14q-8 3 -21 10zM229 90l-24 -90h-215l223 700h234l223 -700h-215l-24 90h-202zM330 465l-58 -215h116z" />
    <glyph glyph-name="Adieresis" unicode="&#xc4;" horiz-adv-x="660" 
d="M170 755q-25 25 -25 60t25 60t60 25t60 -25t25 -60t-25 -60t-60 -25t-60 25zM370 755q-25 25 -25 60t25 60t60 25t60 -25t25 -60t-25 -60t-60 -25t-60 25zM229 90l-24 -90h-215l223 700h234l223 -700h-215l-24 90h-202zM330 465l-58 -215h116z" />
    <glyph glyph-name="Aring" unicode="&#xc5;" horiz-adv-x="660" 
d="M229 90l-24 -90h-215l219 686q-28 36 -28 84q0 60 42 100t107 40q67 0 108 -39.5t41 -100.5q0 -48 -27 -85l218 -685h-215l-24 90h-202zM307 791.5q-8 -8.5 -8 -21.5t8 -21.5t23 -8.5t23.5 8.5t8.5 21.5t-8.5 21.5t-23.5 8.5t-23 -8.5zM330 465l-58 -215h116z" />
    <glyph glyph-name="AE" unicode="&#xc6;" horiz-adv-x="890" 
d="M860 0h-420v90h-182l-48 -90h-220l389 700h476v-182h-220v-76h195v-180h-195v-78h225v-184zM440 427l-95 -177h95v177z" />
    <glyph glyph-name="Ccedilla" unicode="&#xc7;" horiz-adv-x="718" 
d="M471.5 200q35.5 20 52.5 55l174 -100q-37 -62 -97 -104.5t-133 -58.5v-38q19 -8 36 -27t17 -50q0 -51 -49 -78t-148 -27q-14 0 -48 2v114q30 -2 40 -2q55 0 55 16q0 8 -13.5 13t-39.5 7v69q-86 15 -152.5 65.5t-103.5 127t-37 166.5q0 102 47.5 186t131 132t187.5 48
q97 0 179 -46t128 -124l-174 -100q-17 34 -53 54t-80 20q-49 0 -86.5 -22t-58.5 -61t-21 -87t21 -87t58.5 -61t86.5 -22q45 0 80.5 20z" />
    <glyph glyph-name="Egrave" unicode="&#xc8;" horiz-adv-x="540" 
d="M88 900h210l80 -150h-174zM510 0h-460v700h455v-182h-255v-76h230v-180h-230v-78h260v-184z" />
    <glyph glyph-name="Eacute" unicode="&#xc9;" horiz-adv-x="540" 
d="M168 750l80 150h210l-116 -150h-174zM510 0h-460v700h455v-182h-255v-76h230v-180h-230v-78h260v-184z" />
    <glyph glyph-name="Ecircumflex" unicode="&#xca;" horiz-adv-x="540" 
d="M73 740l106 160h188l106 -160h-155l-45 58l-45 -58h-155zM510 0h-460v700h455v-182h-255v-76h230v-180h-230v-78h260v-184z" />
    <glyph glyph-name="Edieresis" unicode="&#xcb;" horiz-adv-x="540" 
d="M118 755q-25 25 -25 60t25 60t60 25t60 -25t25 -60t-25 -60t-60 -25t-60 25zM318 755q-25 25 -25 60t25 60t60 25t60 -25t25 -60t-25 -60t-60 -25t-60 25zM510 0h-460v700h455v-182h-255v-76h230v-180h-230v-78h260v-184z" />
    <glyph glyph-name="Igrave" unicode="&#xcc;" horiz-adv-x="300" 
d="M-40 900l116 -150h174l-80 150h-210zM250 0h-200v700h200v-700z" />
    <glyph glyph-name="Iacute" unicode="&#xcd;" horiz-adv-x="300" 
d="M330 900h-210l-80 -150h174zM250 0h-200v700h200v-700z" />
    <glyph glyph-name="Icircumflex" unicode="&#xce;" horiz-adv-x="300" 
d="M-55 740l106 160h188l106 -160h-155l-45 58l-45 -58h-155zM250 700v-700h-200v700h200z" />
    <glyph glyph-name="Idieresis" unicode="&#xcf;" horiz-adv-x="300" 
d="M-10 755q-25 25 -25 60t25 60t60 25t60 -25t25 -60t-25 -60t-60 -25t-60 25zM190 755q-25 25 -25 60t25 60t60 25t60 -25t25 -60t-25 -60t-60 -25t-60 25zM250 0h-200v700h200v-700z" />
    <glyph glyph-name="Eth" unicode="&#xd0;" horiz-adv-x="725" 
d="M533 654q78 -46 122.5 -126t44.5 -178t-44.5 -178t-122.5 -126t-173 -46h-290v258h-70v174h70v268h290q95 0 173 -46zM460.5 237.5q39.5 43.5 39.5 112.5t-39.5 112.5t-100.5 43.5h-80v-74h120v-174h-120v-64h80q61 0 100.5 43.5z" />
    <glyph glyph-name="Ntilde" unicode="&#xd1;" horiz-adv-x="680" 
d="M179.5 870q33.5 40 85.5 40q27 0 64 -14q9 -4 22 -10.5t20 -6.5q14 0 14 31h120q0 -88 -33 -127.5t-84 -39.5q-34 0 -67 14q-8 3 -21 10t-20 7q-14 0 -14 -31h-120q0 87 33.5 127zM630 0h-160l-220 320v-320h-200v700h160l220 -320v320h200v-700z" />
    <glyph glyph-name="Ograve" unicode="&#xd2;" horiz-adv-x="792" 
d="M206 910l116 -150h174l-80 150h-210zM209 32.5q-85 48.5 -134.5 132t-49.5 185.5t49.5 185.5t134.5 132t187 48.5t187 -48.5t134.5 -132t49.5 -185.5t-49.5 -185.5t-134.5 -132t-187 -48.5t-187 48.5zM484 202q39 22 61 61t22 87t-22 87t-61 61t-88 22t-88 -22t-61 -61
t-22 -87t22 -87t61 -61t88 -22t88 22z" />
    <glyph glyph-name="Oacute" unicode="&#xd3;" horiz-adv-x="792" 
d="M576 910h-210l-80 -150h174zM209 32.5q-85 48.5 -134.5 132t-49.5 185.5t49.5 185.5t134.5 132t187 48.5t187 -48.5t134.5 -132t49.5 -185.5t-49.5 -185.5t-134.5 -132t-187 -48.5t-187 48.5zM484 202q39 22 61 61t22 87t-22 87t-61 61t-88 22t-88 -22t-61 -61t-22 -87
t22 -87t61 -61t88 -22t88 22z" />
    <glyph glyph-name="Ocircumflex" unicode="&#xd4;" horiz-adv-x="792" 
d="M191 750l106 160h188l106 -160h-155l-45 58l-45 -58h-155zM583 667.5q85 -48.5 134.5 -132t49.5 -185.5t-49.5 -185.5t-134.5 -132t-187 -48.5t-187 48.5t-134.5 132t-49.5 185.5t49.5 185.5t134.5 132t187 48.5t187 -48.5zM484 202q39 22 61 61t22 87t-22 87t-61 61
t-88 22t-88 -22t-61 -61t-22 -87t22 -87t61 -61t88 -22t88 22z" />
    <glyph glyph-name="Otilde" unicode="&#xd5;" horiz-adv-x="792" 
d="M250.5 880q33.5 40 85.5 40q27 0 64 -14q9 -4 22 -10.5t20 -6.5q14 0 14 31h120q0 -88 -33 -127.5t-84 -39.5q-34 0 -67 14q-8 3 -21 10t-20 7q-14 0 -14 -31h-120q0 87 33.5 127zM209 32.5q-85 48.5 -134.5 132t-49.5 185.5t49.5 185.5t134.5 132t187 48.5t187 -48.5
t134.5 -132t49.5 -185.5t-49.5 -185.5t-134.5 -132t-187 -48.5t-187 48.5zM484 202q39 22 61 61t22 87t-22 87t-61 61t-88 22t-88 -22t-61 -61t-22 -87t22 -87t61 -61t88 -22t88 22z" />
    <glyph glyph-name="Odieresis" unicode="&#xd6;" horiz-adv-x="792" 
d="M236 765q-25 25 -25 60t25 60t60 25t60 -25t25 -60t-25 -60t-60 -25t-60 25zM436 765q-25 25 -25 60t25 60t60 25t60 -25t25 -60t-25 -60t-60 -25t-60 25zM209 32.5q-85 48.5 -134.5 132t-49.5 185.5t49.5 185.5t134.5 132t187 48.5t187 -48.5t134.5 -132t49.5 -185.5
t-49.5 -185.5t-134.5 -132t-187 -48.5t-187 48.5zM484 202q39 22 61 61t22 87t-22 87t-61 61t-88 22t-88 -22t-61 -61t-22 -87t22 -87t61 -61t88 -22t88 22z" />
    <glyph glyph-name="multiply" unicode="&#xd7;" horiz-adv-x="553" 
d="M523 231l-127 -128l-119 120l-120 -120l-127 128l119 119l-119 119l127 128l120 -119l119 119l127 -128l-119 -119z" />
    <glyph glyph-name="Oslash" unicode="&#xd8;" horiz-adv-x="797" 
d="M744.5 491q27.5 -66 27.5 -141q0 -102 -49.5 -185.5t-134.5 -132t-187 -48.5q-110 0 -200 56l-44 -54l-75 42l53 64q-50 51 -77.5 117t-27.5 141q0 102 49.5 185.5t134.5 132t187 48.5q110 0 200 -56l44 54l75 -42l-53 -64q50 -51 77.5 -117zM262 248l212 257
q-33 15 -73 15q-49 0 -88 -22t-61 -61t-22 -87q0 -57 32 -102zM489 202q39 22 61 61t22 87q0 57 -32 102l-212 -257q33 -15 73 -15q49 0 88 22z" />
    <glyph glyph-name="Ugrave" unicode="&#xd9;" horiz-adv-x="650" 
d="M135 900l116 -150h174l-80 150h-210zM176.5 15q-64.5 31 -100.5 88t-36 131v466h200v-444q0 -78 85 -78t85 78v444h200v-466q0 -74 -36 -131t-100.5 -88t-148.5 -31t-148.5 31z" />
    <glyph glyph-name="Uacute" unicode="&#xda;" horiz-adv-x="650" 
d="M505 900h-210l-80 -150h174zM176.5 15q-64.5 31 -100.5 88t-36 131v466h200v-444q0 -78 85 -78t85 78v444h200v-466q0 -74 -36 -131t-100.5 -88t-148.5 -31t-148.5 31z" />
    <glyph glyph-name="Ucircumflex" unicode="&#xdb;" horiz-adv-x="650" 
d="M120 740l106 160h188l106 -160h-155l-45 58l-45 -58h-155zM610 234q0 -74 -36 -131t-100.5 -88t-148.5 -31t-148.5 31t-100.5 88t-36 131v466h200v-444q0 -78 85 -78t85 78v444h200v-466z" />
    <glyph glyph-name="Udieresis" unicode="&#xdc;" horiz-adv-x="650" 
d="M165 755q-25 25 -25 60t25 60t60 25t60 -25t25 -60t-25 -60t-60 -25t-60 25zM365 755q-25 25 -25 60t25 60t60 25t60 -25t25 -60t-25 -60t-60 -25t-60 25zM176.5 15q-64.5 31 -100.5 88t-36 131v466h200v-444q0 -78 85 -78t85 78v444h200v-466q0 -74 -36 -131t-100.5 -88
t-148.5 -31t-148.5 31z" />
    <glyph glyph-name="Yacute" unicode="&#xdd;" horiz-adv-x="674" 
d="M227 750l80 150h210l-116 -150h-174zM437 0h-200v266l-237 434h222l115 -246l115 246h222l-237 -434v-266z" />
    <glyph glyph-name="Thorn" unicode="&#xde;" horiz-adv-x="595" 
d="M459 571.5q58 -30.5 92 -87.5t34 -133t-34 -133t-92 -87.5t-129 -30.5h-80v-99h-200v700h200v-99h80q71 0 129 -30.5zM369 309.5q16 15.5 16 41.5t-16 41.5t-39 15.5h-80v-114h80q23 0 39 15.5z" />
    <glyph glyph-name="germandbls" unicode="&#xdf;" horiz-adv-x="559" 
d="M309 160q32 0 46 10.5t14 30.5q0 21 -11.5 45t-33.5 59q-19 30 -29.5 50.5t-10.5 36.5q0 13 4 24t12 27q9 18 13.5 32t4.5 31q0 22 -10.5 36t-33.5 14q-24 0 -36.5 -16.5t-12.5 -42.5v-497h-185v488q0 109 66 168.5t174 59.5q73 0 126 -26.5t80 -68.5t27 -88
q0 -27 -6.5 -44.5t-19.5 -40.5q-10 -15 -14.5 -26.5t-4.5 -24.5q0 -16 7.5 -33.5t23.5 -44.5q26 -43 40.5 -81t14.5 -88q0 -74 -45.5 -117.5t-147.5 -43.5q-37 0 -90 8v166q22 -3 38 -3z" />
    <glyph glyph-name="agrave" unicode="&#xe0;" horiz-adv-x="606" 
d="M113 700h210l80 -150h-174zM566 0h-185v45q-48 -59 -134 -59q-67 0 -119 34.5t-81 94.5t-29 135t29 135t81 94.5t119 34.5q86 0 134 -59v45h185v-500zM356.5 183q24.5 27 24.5 67t-24.5 67t-64.5 27t-64.5 -27t-24.5 -67t24.5 -67t64.5 -27t64.5 27z" />
    <glyph glyph-name="aacute" unicode="&#xe1;" horiz-adv-x="606" 
d="M193 550l80 150h210l-116 -150h-174zM566 0h-185v45q-48 -59 -134 -59q-67 0 -119 34.5t-81 94.5t-29 135t29 135t81 94.5t119 34.5q86 0 134 -59v45h185v-500zM356.5 183q24.5 27 24.5 67t-24.5 67t-64.5 27t-64.5 -27t-24.5 -67t24.5 -67t64.5 -27t64.5 27z" />
    <glyph glyph-name="acircumflex" unicode="&#xe2;" horiz-adv-x="606" 
d="M98 540l106 160h188l106 -160h-155l-45 58l-45 -58h-155zM566 0h-185v45q-48 -59 -134 -59q-67 0 -119 34.5t-81 94.5t-29 135t29 135t81 94.5t119 34.5q86 0 134 -59v45h185v-500zM356.5 183q24.5 27 24.5 67t-24.5 67t-64.5 27t-64.5 -27t-24.5 -67t24.5 -67t64.5 -27
t64.5 27z" />
    <glyph glyph-name="atilde" unicode="&#xe3;" horiz-adv-x="606" 
d="M278 567q-13 7 -20 7q-14 0 -14 -31h-120q0 87 33.5 127t85.5 40q27 0 64 -14q9 -4 22 -10.5t20 -6.5q14 0 14 31h120q0 -88 -33 -127.5t-84 -39.5q-34 0 -67 14q-8 3 -21 10zM566 0h-185v45q-48 -59 -134 -59q-67 0 -119 34.5t-81 94.5t-29 135t29 135t81 94.5t119 34.5
q86 0 134 -59v45h185v-500zM356.5 183q24.5 27 24.5 67t-24.5 67t-64.5 27t-64.5 -27t-24.5 -67t24.5 -67t64.5 -27t64.5 27z" />
    <glyph glyph-name="adieresis" unicode="&#xe4;" horiz-adv-x="606" 
d="M143 555q-25 25 -25 60t25 60t60 25t60 -25t25 -60t-25 -60t-60 -25t-60 25zM343 555q-25 25 -25 60t25 60t60 25t60 -25t25 -60t-25 -60t-60 -25t-60 25zM566 0h-185v45q-48 -59 -134 -59q-67 0 -119 34.5t-81 94.5t-29 135t29 135t81 94.5t119 34.5q86 0 134 -59v45
h185v-500zM356.5 183q24.5 27 24.5 67t-24.5 67t-64.5 27t-64.5 -27t-24.5 -67t24.5 -67t64.5 -27t64.5 27z" />
    <glyph glyph-name="aring" unicode="&#xe5;" horiz-adv-x="606" 
d="M196 570q-42 40 -42 100t42 100t107 40q67 0 108 -39.5t41 -100.5t-41 -100.5t-108 -39.5q-65 0 -107 40zM280 691.5q-8 -8.5 -8 -21.5t8 -21.5t23 -8.5t23.5 8.5t8.5 21.5t-8.5 21.5t-23.5 8.5t-23 -8.5zM566 0h-185v45q-48 -59 -134 -59q-67 0 -119 34.5t-81 94.5
t-29 135t29 135t81 94.5t119 34.5q86 0 134 -59v45h185v-500zM356.5 183q24.5 27 24.5 67t-24.5 67t-64.5 27t-64.5 -27t-24.5 -67t24.5 -67t64.5 -27t64.5 27z" />
    <glyph glyph-name="ae" unicode="&#xe6;" horiz-adv-x="922" 
d="M610.5 141.5q27.5 -14.5 63.5 -14.5q55 0 92 38l115 -93q-37 -45 -85 -65.5t-100 -20.5q-91 0 -150 57v-43h-165v34q-48 -48 -124 -48q-67 0 -121.5 34.5t-86 95t-31.5 134.5t31.5 134.5t86 95t121.5 34.5q76 0 124 -48v34h165v-37q53 51 134 51q63 0 115 -34.5t82 -94.5
t30 -133q0 -33 -8 -65h-330q14 -31 41.5 -45.5zM651 366q-29 0 -52 -15t-35 -45h169q-17 60 -82 60zM356.5 185q24.5 25 24.5 65t-24.5 65t-64.5 25t-64.5 -25t-24.5 -65t24.5 -65t64.5 -25t64.5 25z" />
    <glyph glyph-name="ccedilla" unicode="&#xe7;" horiz-adv-x="525" 
d="M329 176q20 12 30 31l156 -90q-24 -44 -63 -75t-88 -45v-43q19 -8 36 -27t17 -50q0 -51 -49 -78t-148 -27q-14 0 -48 2v114q30 -2 40 -2q55 0 55 16q0 8 -13.5 13t-39.5 7v73q-88 22 -142 91.5t-54 163.5q0 74 35 134.5t96 95t136 34.5q74 0 135.5 -35.5t94.5 -95.5
l-156 -89q-11 19 -30.5 30.5t-43.5 11.5q-35 0 -58.5 -24.5t-23.5 -61.5t23.5 -61.5t58.5 -24.5q24 0 44 12z" />
    <glyph glyph-name="egrave" unicode="&#xe8;" horiz-adv-x="560" 
d="M100 710h210l80 -150h-174zM245 147.5q26 -10.5 62 -10.5q24 0 44 7t41 25l121 -102q-38 -41 -93.5 -61t-118.5 -20q-85 0 -149.5 34.5t-99 94t-34.5 133.5q0 75 34.5 135.5t95 95.5t136.5 35q75 0 134.5 -34.5t93 -94t33.5 -133.5q0 -33 -8 -65h-332q14 -29 40 -39.5z
M289 366q-30 0 -53 -15t-34 -45h168q-17 60 -81 60z" />
    <glyph glyph-name="eacute" unicode="&#xe9;" horiz-adv-x="560" 
d="M180 560l80 150h210l-116 -150h-174zM245 147.5q26 -10.5 62 -10.5q24 0 44 7t41 25l121 -102q-38 -41 -93.5 -61t-118.5 -20q-85 0 -149.5 34.5t-99 94t-34.5 133.5q0 75 34.5 135.5t95 95.5t136.5 35q75 0 134.5 -34.5t93 -94t33.5 -133.5q0 -33 -8 -65h-332
q14 -29 40 -39.5zM289 366q-30 0 -53 -15t-34 -45h168q-17 60 -81 60z" />
    <glyph glyph-name="ecircumflex" unicode="&#xea;" horiz-adv-x="560" 
d="M85 550l106 160h188l106 -160h-155l-45 58l-45 -58h-155zM245 147.5q26 -10.5 62 -10.5q24 0 44 7t41 25l121 -102q-38 -41 -93.5 -61t-118.5 -20q-85 0 -149.5 34.5t-99 94t-34.5 133.5q0 75 34.5 135.5t95 95.5t136.5 35q75 0 134.5 -34.5t93 -94t33.5 -133.5
q0 -33 -8 -65h-332q14 -29 40 -39.5zM289 366q-30 0 -53 -15t-34 -45h168q-17 60 -81 60z" />
    <glyph glyph-name="edieresis" unicode="&#xeb;" horiz-adv-x="560" 
d="M130 565q-25 25 -25 60t25 60t60 25t60 -25t25 -60t-25 -60t-60 -25t-60 25zM330 565q-25 25 -25 60t25 60t60 25t60 -25t25 -60t-25 -60t-60 -25t-60 25zM245 147.5q26 -10.5 62 -10.5q24 0 44 7t41 25l121 -102q-38 -41 -93.5 -61t-118.5 -20q-85 0 -149.5 34.5t-99 94
t-34.5 133.5q0 75 34.5 135.5t95 95.5t136.5 35q75 0 134.5 -34.5t93 -94t33.5 -133.5q0 -33 -8 -65h-332q14 -29 40 -39.5zM289 366q-30 0 -53 -15t-34 -45h168q-17 60 -81 60z" />
    <glyph glyph-name="igrave" unicode="&#xec;" horiz-adv-x="265" 
d="M-30 700l76 -150h174l-40 150h-210zM40 500h185v-500h-185v500z" />
    <glyph glyph-name="iacute" unicode="&#xed;" horiz-adv-x="265" 
d="M290 700h-210l-40 -150h174zM225 500v-500h-185v500h185z" />
    <glyph glyph-name="icircumflex" unicode="&#xee;" horiz-adv-x="265" 
d="M-48 540l86 160h188l86 -160h-145l-35 53l-35 -53h-145zM225 500v-500h-185v500h185z" />
    <glyph glyph-name="idieresis" unicode="&#xef;" horiz-adv-x="265" 
d="M-14.5 563.5q-23.5 23.5 -23.5 56.5t23.5 56.5t56.5 23.5t56.5 -23.5t23.5 -56.5t-23.5 -56.5t-56.5 -23.5t-56.5 23.5zM165.5 563.5q-23.5 23.5 -23.5 56.5t23.5 56.5t56.5 23.5t56.5 -23.5t23.5 -56.5t-23.5 -56.5t-56.5 -23.5t-56.5 23.5zM225 500v-500h-185v500h185z
" />
    <glyph glyph-name="eth" unicode="&#xf0;" horiz-adv-x="562" 
d="M544 230q0 -74 -37 -130t-97.5 -86t-128.5 -30q-73 0 -133 30t-95 86t-35 130q0 54 25 102.5t69.5 82t98.5 44.5l-25 36l-121 -38v140l39 12l-64 91h212l27 -36l143 45v-140l-59 -18l135 -181q46 -63 46 -140zM337.5 169q21.5 20 21.5 57q0 24 -14 44q-24 29 -64 29
q-35 0 -56.5 -19.5t-21.5 -53.5q0 -37 21.5 -57t56.5 -20t56.5 20z" />
    <glyph glyph-name="ntilde" unicode="&#xf1;" horiz-adv-x="575" 
d="M270 577q-13 7 -20 7q-14 0 -14 -31h-120q0 87 33.5 127t85.5 40q27 0 64 -14q9 -4 22 -10.5t20 -6.5q14 0 14 31h120q0 -88 -33 -127.5t-84 -39.5q-34 0 -67 14q-8 3 -21 10zM490.5 457.5q49.5 -56.5 49.5 -168.5v-289h-185v269q0 33 -16.5 50t-45.5 17q-33 0 -50.5 -21
t-17.5 -58v-257h-185v500h185v-49q46 63 134 63q82 0 131.5 -56.5z" />
    <glyph glyph-name="ograve" unicode="&#xf2;" horiz-adv-x="574" 
d="M97 710l116 -150h174l-80 150h-210zM152 21q-62 35 -98 95t-36 134t36 134.5t97.5 95t135.5 34.5t135.5 -34.5t97.5 -95t36 -134.5t-36 -134.5t-97.5 -95t-135.5 -34.5q-73 0 -135 35zM347.5 186.5q23.5 24.5 23.5 63.5t-23.5 63.5t-60.5 24.5t-60.5 -24.5t-23.5 -63.5
t23.5 -63.5t60.5 -24.5t60.5 24.5z" />
    <glyph glyph-name="oacute" unicode="&#xf3;" horiz-adv-x="574" 
d="M467 710h-210l-80 -150h174zM152 21q-62 35 -98 95t-36 134t36 134.5t97.5 95t135.5 34.5t135.5 -34.5t97.5 -95t36 -134.5t-36 -134.5t-97.5 -95t-135.5 -34.5q-73 0 -135 35zM347.5 186.5q23.5 24.5 23.5 63.5t-23.5 63.5t-60.5 24.5t-60.5 -24.5t-23.5 -63.5
t23.5 -63.5t60.5 -24.5t60.5 24.5z" />
    <glyph glyph-name="ocircumflex" unicode="&#xf4;" horiz-adv-x="574" 
d="M82 550l106 160h188l106 -160h-155l-45 58l-45 -58h-155zM422.5 479.5q61.5 -34.5 97.5 -95t36 -134.5t-36 -134.5t-97.5 -95t-135.5 -34.5q-73 0 -135 35t-98 95t-36 134t36 134.5t97.5 95t135.5 34.5t135.5 -34.5zM347.5 186.5q23.5 24.5 23.5 63.5t-23.5 63.5
t-60.5 24.5t-60.5 -24.5t-23.5 -63.5t23.5 -63.5t60.5 -24.5t60.5 24.5z" />
    <glyph glyph-name="otilde" unicode="&#xf5;" horiz-adv-x="574" 
d="M141.5 680q33.5 40 85.5 40q27 0 64 -14q9 -4 22 -10.5t20 -6.5q14 0 14 31h120q0 -88 -33 -127.5t-84 -39.5q-34 0 -67 14q-8 3 -21 10t-20 7q-14 0 -14 -31h-120q0 87 33.5 127zM152 21q-62 35 -98 95t-36 134t36 134.5t97.5 95t135.5 34.5t135.5 -34.5t97.5 -95
t36 -134.5t-36 -134.5t-97.5 -95t-135.5 -34.5q-73 0 -135 35zM347.5 186.5q23.5 24.5 23.5 63.5t-23.5 63.5t-60.5 24.5t-60.5 -24.5t-23.5 -63.5t23.5 -63.5t60.5 -24.5t60.5 24.5z" />
    <glyph glyph-name="odieresis" unicode="&#xf6;" horiz-adv-x="574" 
d="M127 565q-25 25 -25 60t25 60t60 25t60 -25t25 -60t-25 -60t-60 -25t-60 25zM327 565q-25 25 -25 60t25 60t60 25t60 -25t25 -60t-25 -60t-60 -25t-60 25zM152 21q-62 35 -98 95t-36 134t36 134.5t97.5 95t135.5 34.5t135.5 -34.5t97.5 -95t36 -134.5t-36 -134.5
t-97.5 -95t-135.5 -34.5q-73 0 -135 35zM347.5 186.5q23.5 24.5 23.5 63.5t-23.5 63.5t-60.5 24.5t-60.5 -24.5t-23.5 -63.5t23.5 -63.5t60.5 -24.5t60.5 24.5z" />
    <glyph glyph-name="divide" unicode="&#xf7;" horiz-adv-x="540" 
d="M198.5 490.5q-28.5 28.5 -28.5 71.5t28.5 71.5t71.5 28.5t71.5 -28.5t28.5 -71.5t-28.5 -71.5t-71.5 -28.5t-71.5 28.5zM510 440v-180h-480v180h480zM198.5 66.5q-28.5 28.5 -28.5 71.5t28.5 71.5t71.5 28.5t71.5 -28.5t28.5 -71.5t-28.5 -71.5t-71.5 -28.5t-71.5 28.5z
" />
    <glyph glyph-name="oslash" unicode="&#xf8;" horiz-adv-x="574" 
d="M536.5 351q19.5 -47 19.5 -101q0 -74 -36 -134.5t-97.5 -95t-135.5 -34.5t-140 37l-30 -37l-61 34l37 46q-35 36 -55 83.5t-20 100.5q0 74 36 134.5t97.5 95t135.5 34.5q75 0 141 -37l30 37l61 -35l-37 -45q35 -36 54.5 -83zM211 210l101 125q-12 3 -25 3
q-37 0 -60.5 -24.5t-23.5 -63.5q0 -21 8 -40zM347.5 186.5q23.5 24.5 23.5 63.5q0 19 -7 38l-101 -123q12 -3 24 -3q37 0 60.5 24.5z" />
    <glyph glyph-name="ugrave" unicode="&#xf9;" horiz-adv-x="575" 
d="M95 700h210l80 -150h-174zM535 0h-185v49q-46 -63 -134 -63q-82 0 -131.5 56.5t-49.5 168.5v289h185v-269q0 -33 16.5 -50t45.5 -17q33 0 50.5 21t17.5 58v257h185v-500z" />
    <glyph glyph-name="uacute" unicode="&#xfa;" horiz-adv-x="575" 
d="M175 550l80 150h210l-116 -150h-174zM535 0h-185v49q-46 -63 -134 -63q-82 0 -131.5 56.5t-49.5 168.5v289h185v-269q0 -33 16.5 -50t45.5 -17q33 0 50.5 21t17.5 58v257h185v-500z" />
    <glyph glyph-name="ucircumflex" unicode="&#xfb;" horiz-adv-x="575" 
d="M80 540l106 160h188l106 -160h-155l-45 58l-45 -58h-155zM535 0h-185v49q-46 -63 -134 -63q-82 0 -131.5 56.5t-49.5 168.5v289h185v-269q0 -33 16.5 -50t45.5 -17q33 0 50.5 21t17.5 58v257h185v-500z" />
    <glyph glyph-name="udieresis" unicode="&#xfc;" horiz-adv-x="575" 
d="M125 555q-25 25 -25 60t25 60t60 25t60 -25t25 -60t-25 -60t-60 -25t-60 25zM325 555q-25 25 -25 60t25 60t60 25t60 -25t25 -60t-25 -60t-60 -25t-60 25zM535 0h-185v49q-46 -63 -134 -63q-82 0 -131.5 56.5t-49.5 168.5v289h185v-269q0 -33 16.5 -50t45.5 -17
q33 0 50.5 21t17.5 58v257h185v-500z" />
    <glyph glyph-name="yacute" unicode="&#xfd;" horiz-adv-x="570" 
d="M181 550l80 150h210l-116 -150h-174zM400 1q-37 -109 -115 -157.5t-206 -43.5v175q51 0 78 7.5t43 27.5l-200 490h210l89 -267l61 267h210z" />
    <glyph glyph-name="thorn" unicode="&#xfe;" horiz-adv-x="606" 
d="M478 479.5q52 -34.5 81 -94.5t29 -135t-29 -135t-81 -94.5t-119 -34.5q-86 0 -134 59v-245h-185v900h185v-245q48 59 134 59q67 0 119 -34.5zM378.5 183q24.5 27 24.5 67t-24.5 67t-64.5 27t-64.5 -27t-24.5 -67t24.5 -67t64.5 -27t64.5 27z" />
    <glyph glyph-name="ydieresis" unicode="&#xff;" horiz-adv-x="570" 
d="M131 555q-25 25 -25 60t25 60t60 25t60 -25t25 -60t-25 -60t-60 -25t-60 25zM331 555q-25 25 -25 60t25 60t60 25t60 -25t25 -60t-25 -60t-60 -25t-60 25zM400 1q-37 -109 -115 -157.5t-206 -43.5v175q51 0 78 7.5t43 27.5l-200 490h210l89 -267l61 267h210z" />
    <glyph glyph-name="Amacron" unicode="&#x100;" horiz-adv-x="660" 
d="M170 749v140h320v-140h-320zM229 90l-24 -90h-215l223 700h234l223 -700h-215l-24 90h-202zM330 465l-58 -215h116z" />
    <glyph glyph-name="amacron" unicode="&#x101;" horiz-adv-x="606" 
d="M143 549v140h320v-140h-320zM566 0h-185v45q-48 -59 -134 -59q-67 0 -119 34.5t-81 94.5t-29 135t29 135t81 94.5t119 34.5q86 0 134 -59v45h185v-500zM356.5 183q24.5 27 24.5 67t-24.5 67t-64.5 27t-64.5 -27t-24.5 -67t24.5 -67t64.5 -27t64.5 27z" />
    <glyph glyph-name="Abreve" unicode="&#x102;" horiz-adv-x="660" 
d="M193 775q-48 43 -48 127h150q0 -40 35 -40t35 40h150q0 -84 -48 -127t-137 -43t-137 43zM229 90l-24 -90h-215l223 700h234l223 -700h-215l-24 90h-202zM330 465l-58 -215h116z" />
    <glyph glyph-name="abreve" unicode="&#x103;" horiz-adv-x="606" 
d="M166 575q-48 43 -48 127h150q0 -40 35 -40t35 40h150q0 -84 -48 -127t-137 -43t-137 43zM566 0h-185v45q-48 -59 -134 -59q-67 0 -119 34.5t-81 94.5t-29 135t29 135t81 94.5t119 34.5q86 0 134 -59v45h185v-500zM356.5 183q24.5 27 24.5 67t-24.5 67t-64.5 27t-64.5 -27
t-24.5 -67t24.5 -67t64.5 -27t64.5 27z" />
    <glyph glyph-name="Aogonek" unicode="&#x104;" horiz-adv-x="660" 
d="M651 -90q10 0 19 3v-110q-42 -17 -88 -17q-48 0 -79 23t-31 68q0 29 15.5 61t43.5 62h-76l-24 90h-202l-24 -90h-215l223 700h234l223 -700q-40 -41 -40 -71q0 -19 21 -19zM330 465l-58 -215h116z" />
    <glyph glyph-name="aogonek" unicode="&#x105;" horiz-adv-x="606" 
d="M526 -71q0 -19 21 -19q10 0 19 3v-110q-42 -17 -88 -17q-48 0 -79 23t-31 68q0 29 15.5 61t43.5 62h-46v45q-48 -59 -134 -59q-67 0 -119 34.5t-81 94.5t-29 135t29 135t81 94.5t119 34.5q86 0 134 -59v45h185v-500q-40 -41 -40 -71zM356.5 183q24.5 27 24.5 67t-24.5 67
t-64.5 27t-64.5 -27t-24.5 -67t24.5 -67t64.5 -27t64.5 27z" />
    <glyph glyph-name="Cacute" unicode="&#x106;" horiz-adv-x="718" 
d="M571 910h-210l-80 -150h174zM203.5 32q-83.5 48 -131 132t-47.5 186t47.5 186t131 132t187.5 48q97 0 179 -46t128 -124l-174 -100q-17 34 -53 54t-80 20q-49 0 -86.5 -22t-58.5 -61t-21 -87t21 -87t58.5 -61t86.5 -22q45 0 80.5 20t52.5 55l174 -100q-46 -79 -128 -125
t-179 -46q-104 0 -187.5 48z" />
    <glyph glyph-name="cacute" unicode="&#x107;" horiz-adv-x="525" 
d="M464 710h-210l-80 -150h174zM149 20.5q-61 34.5 -96 95t-35 134.5t35 134.5t96 95t136 34.5q74 0 135.5 -35.5t94.5 -95.5l-156 -89q-11 19 -30.5 30.5t-43.5 11.5q-35 0 -58.5 -24.5t-23.5 -61.5t23.5 -61.5t58.5 -24.5q24 0 44 12t30 31l156 -90q-33 -61 -94.5 -96
t-135.5 -35q-75 0 -136 34.5z" />
    <glyph glyph-name="Cdotaccent" unicode="&#x10a;" horiz-adv-x="718" 
d="M324 778q-28 28 -28 67t28 67t67 28t67 -28t28 -67t-28 -67t-67 -28t-67 28zM203.5 32q-83.5 48 -131 132t-47.5 186t47.5 186t131 132t187.5 48q97 0 179 -46t128 -124l-174 -100q-17 34 -53 54t-80 20q-49 0 -86.5 -22t-58.5 -61t-21 -87t21 -87t58.5 -61t86.5 -22
q45 0 80.5 20t52.5 55l174 -100q-46 -79 -128 -125t-179 -46q-104 0 -187.5 48z" />
    <glyph glyph-name="cdotaccent" unicode="&#x10b;" horiz-adv-x="525" 
d="M217 578q-28 28 -28 67t28 67t67 28t67 -28t28 -67t-28 -67t-67 -28t-67 28zM149 20.5q-61 34.5 -96 95t-35 134.5t35 134.5t96 95t136 34.5q74 0 135.5 -35.5t94.5 -95.5l-156 -89q-11 19 -30.5 30.5t-43.5 11.5q-35 0 -58.5 -24.5t-23.5 -61.5t23.5 -61.5t58.5 -24.5
q24 0 44 12t30 31l156 -90q-33 -61 -94.5 -96t-135.5 -35q-75 0 -136 34.5z" />
    <glyph glyph-name="Ccaron" unicode="&#x10c;" horiz-adv-x="718" 
d="M341 910l45 -58l45 58h155l-106 -160h-188l-106 160h155zM471.5 200q35.5 20 52.5 55l174 -100q-46 -79 -128 -125t-179 -46q-104 0 -187.5 48t-131 132t-47.5 186t47.5 186t131 132t187.5 48q97 0 179 -46t128 -124l-174 -100q-17 34 -53 54t-80 20q-49 0 -86.5 -22
t-58.5 -61t-21 -87t21 -87t58.5 -61t86.5 -22q45 0 80.5 20z" />
    <glyph glyph-name="ccaron" unicode="&#x10d;" horiz-adv-x="525" 
d="M234 710l45 -58l45 58h155l-106 -160h-188l-106 160h155zM329 176q20 12 30 31l156 -90q-33 -61 -94.5 -96t-135.5 -35q-75 0 -136 34.5t-96 95t-35 134.5t35 134.5t96 95t136 34.5q74 0 135.5 -35.5t94.5 -95.5l-156 -89q-11 19 -30.5 30.5t-43.5 11.5
q-35 0 -58.5 -24.5t-23.5 -61.5t23.5 -61.5t58.5 -24.5q24 0 44 12z" />
    <glyph glyph-name="Dcaron" unicode="&#x10e;" horiz-adv-x="705" 
d="M280 900l45 -58l45 58h155l-106 -160h-188l-106 160h155zM513 654q78 -46 122.5 -126t44.5 -178t-44.5 -178t-122.5 -126t-173 -46h-290v700h290q95 0 173 -46zM440.5 237.5q39.5 43.5 39.5 112.5t-39.5 112.5t-100.5 43.5h-80v-312h80q61 0 100.5 43.5z" />
    <glyph glyph-name="dcaron" unicode="&#x10f;" horiz-adv-x="766" 
d="M566 700v-700h-185v45q-48 -59 -134 -59q-67 0 -119 34.5t-81 94.5t-29 135t29 135t81 94.5t119 34.5q86 0 134 -59v245h185zM746 470h-140l10 230h170zM356.5 183q24.5 27 24.5 67t-24.5 67t-64.5 27t-64.5 -27t-24.5 -67t24.5 -67t64.5 -27t64.5 27z" />
    <glyph glyph-name="Dcroat" unicode="&#x110;" horiz-adv-x="725" 
d="M533 654q78 -46 122.5 -126t44.5 -178t-44.5 -178t-122.5 -126t-173 -46h-290v258h-70v174h70v268h290q95 0 173 -46zM460.5 237.5q39.5 43.5 39.5 112.5t-39.5 112.5t-100.5 43.5h-80v-74h120v-174h-120v-64h80q61 0 100.5 43.5z" />
    <glyph glyph-name="dcroat" unicode="&#x111;" horiz-adv-x="621" 
d="M566 526v-526h-185v33q-49 -47 -124 -47q-67 0 -121.5 34t-86 92t-31.5 128t31.5 128t86 92t121.5 34q75 0 124 -47v79h-130v119h130v55h185v-55h55v-119h-55zM356 177q25 26 25 63t-25 63t-64 26t-64 -26t-25 -63t25 -63t64 -26t64 26z" />
    <glyph glyph-name="Emacron" unicode="&#x112;" horiz-adv-x="540" 
d="M118 749v140h320v-140h-320zM510 0h-460v700h455v-182h-255v-76h230v-180h-230v-78h260v-184z" />
    <glyph glyph-name="emacron" unicode="&#x113;" horiz-adv-x="560" 
d="M130 559v140h320v-140h-320zM245 147.5q26 -10.5 62 -10.5q24 0 44 7t41 25l121 -102q-38 -41 -93.5 -61t-118.5 -20q-85 0 -149.5 34.5t-99 94t-34.5 133.5q0 75 34.5 135.5t95 95.5t136.5 35q75 0 134.5 -34.5t93 -94t33.5 -133.5q0 -33 -8 -65h-332q14 -29 40 -39.5z
M289 366q-30 0 -53 -15t-34 -45h168q-17 60 -81 60z" />
    <glyph glyph-name="Edotaccent" unicode="&#x116;" horiz-adv-x="540" 
d="M211 768q-28 28 -28 67t28 67t67 28t67 -28t28 -67t-28 -67t-67 -28t-67 28zM510 0h-460v700h455v-182h-255v-76h230v-180h-230v-78h260v-184z" />
    <glyph glyph-name="edotaccent" unicode="&#x117;" horiz-adv-x="560" 
d="M223 578q-28 28 -28 67t28 67t67 28t67 -28t28 -67t-28 -67t-67 -28t-67 28zM245 147.5q26 -10.5 62 -10.5q24 0 44 7t41 25l121 -102q-38 -41 -93.5 -61t-118.5 -20q-85 0 -149.5 34.5t-99 94t-34.5 133.5q0 75 34.5 135.5t95 95.5t136.5 35q75 0 134.5 -34.5t93 -94
t33.5 -133.5q0 -33 -8 -65h-332q14 -29 40 -39.5zM289 366q-30 0 -53 -15t-34 -45h168q-17 60 -81 60z" />
    <glyph glyph-name="Eogonek" unicode="&#x118;" horiz-adv-x="540" 
d="M470 -71q0 -19 21 -19q10 0 19 3v-110q-42 -17 -88 -17q-48 0 -79 23t-31 68q0 29 15.5 61t43.5 62h-321v700h455v-182h-255v-76h230v-180h-230v-78h260v-184q-40 -41 -40 -71z" />
    <glyph glyph-name="eogonek" unicode="&#x119;" horiz-adv-x="560" 
d="M245 147.5q26 -10.5 62 -10.5q24 0 44 7t41 25l113 -96l8 4l-5 -6l5 -4q-16 -16 -25 -23q-41 -55 -54.5 -78.5t-13.5 -36.5q0 -19 21 -19q10 0 19 3v-110q-42 -17 -88 -17q-48 0 -79 23t-31 68q0 26 18.5 54.5t53.5 55.5q-11 -1 -33 -1q-85 0 -149.5 34.5t-99 94
t-34.5 133.5q0 75 34.5 135.5t95 95.5t136.5 35q75 0 134.5 -34.5t93 -94t33.5 -133.5q0 -33 -8 -65h-332q14 -29 40 -39.5zM289 366q-30 0 -53 -15t-34 -45h168q-17 60 -81 60z" />
    <glyph glyph-name="Ecaron" unicode="&#x11a;" horiz-adv-x="540" 
d="M228 900l45 -58l45 58h155l-106 -160h-188l-106 160h155zM510 0h-460v700h455v-182h-255v-76h230v-180h-230v-78h260v-184z" />
    <glyph glyph-name="ecaron" unicode="&#x11b;" horiz-adv-x="560" 
d="M240 710l45 -58l45 58h155l-106 -160h-188l-106 160h155zM245 147.5q26 -10.5 62 -10.5q24 0 44 7t41 25l121 -102q-38 -41 -93.5 -61t-118.5 -20q-85 0 -149.5 34.5t-99 94t-34.5 133.5q0 75 34.5 135.5t95 95.5t136.5 35q75 0 134.5 -34.5t93 -94t33.5 -133.5
q0 -33 -8 -65h-332q14 -29 40 -39.5zM289 366q-30 0 -53 -15t-34 -45h168q-17 60 -81 60z" />
    <glyph glyph-name="Gbreve" unicode="&#x11e;" horiz-adv-x="772" 
d="M254 785q-48 43 -48 127h150q0 -40 35 -40t35 40h150q0 -84 -48 -127t-137 -43t-137 43zM703.5 153q-43.5 -79 -123 -124t-183.5 -45q-108 0 -193 48t-132 131.5t-47 185.5q0 103 47.5 187t130.5 132t186 48q98 0 179.5 -44t128.5 -119l-170 -97q-19 29 -54 46.5
t-80 17.5q-75 0 -121.5 -48t-46.5 -124q0 -45 18 -86t57.5 -67t100.5 -26q104 0 139 74h-149v170h356v-83q0 -98 -43.5 -177z" />
    <glyph glyph-name="gbreve" unicode="&#x11f;" horiz-adv-x="613" 
d="M172 585q-48 43 -48 127h150q0 -40 35 -40t35 40h150q0 -84 -48 -127t-137 -43t-137 43zM573 15q0 -79 -37 -131t-96.5 -76t-128.5 -24q-88 0 -156 32t-101 90l150 87q19 -26 42.5 -37.5t54.5 -11.5q35 0 61 17.5t26 53.5v50q-48 -59 -134 -59q-66 0 -118.5 34t-81.5 92
t-29 128t29 128t81.5 92t118.5 34q86 0 134 -59v45h185v-485zM363.5 196q24.5 26 24.5 64t-24.5 64t-64.5 26t-64.5 -26t-24.5 -64t24.5 -64t64.5 -26t64.5 26z" />
    <glyph glyph-name="Gdotaccent" unicode="&#x120;" horiz-adv-x="772" 
d="M324 778q-28 28 -28 67t28 67t67 28t67 -28t28 -67t-28 -67t-67 -28t-67 28zM703.5 153q-43.5 -79 -123 -124t-183.5 -45q-108 0 -193 48t-132 131.5t-47 185.5q0 103 47.5 187t130.5 132t186 48q98 0 179.5 -44t128.5 -119l-170 -97q-19 29 -54 46.5t-80 17.5
q-75 0 -121.5 -48t-46.5 -124q0 -45 18 -86t57.5 -67t100.5 -26q104 0 139 74h-149v170h356v-83q0 -98 -43.5 -177z" />
    <glyph glyph-name="gdotaccent" unicode="&#x121;" horiz-adv-x="613" 
d="M242 578q-28 28 -28 67t28 67t67 28t67 -28t28 -67t-28 -67t-67 -28t-67 28zM573 15q0 -79 -37 -131t-96.5 -76t-128.5 -24q-88 0 -156 32t-101 90l150 87q19 -26 42.5 -37.5t54.5 -11.5q35 0 61 17.5t26 53.5v50q-48 -59 -134 -59q-66 0 -118.5 34t-81.5 92t-29 128
t29 128t81.5 92t118.5 34q86 0 134 -59v45h185v-485zM363.5 196q24.5 26 24.5 64t-24.5 64t-64.5 26t-64.5 -26t-24.5 -64t24.5 -64t64.5 -26t64.5 26z" />
    <glyph glyph-name="Gcommaaccent" unicode="&#x122;" horiz-adv-x="772" 
d="M703.5 153q-43.5 -79 -123 -124t-183.5 -45q-108 0 -193 48t-132 131.5t-47 185.5q0 103 47.5 187t130.5 132t186 48q98 0 179.5 -44t128.5 -119l-170 -97q-19 29 -54 46.5t-80 17.5q-75 0 -121.5 -48t-46.5 -124q0 -45 18 -86t57.5 -67t100.5 -26q104 0 139 74h-149v170
h356v-83q0 -98 -43.5 -177zM490 -54l-40 -230h-140l10 230h170z" />
    <glyph glyph-name="gcommaaccent" unicode="&#x123;" horiz-adv-x="613" 
d="M206 570l40 230h140l-10 -230h-170zM573 15q0 -79 -37 -131t-96.5 -76t-128.5 -24q-88 0 -156 32t-101 90l150 87q19 -26 42.5 -37.5t54.5 -11.5q35 0 61 17.5t26 53.5v50q-48 -59 -134 -59q-66 0 -118.5 34t-81.5 92t-29 128t29 128t81.5 92t118.5 34q86 0 134 -59v45
h185v-485zM363.5 196q24.5 26 24.5 64t-24.5 64t-64.5 26t-64.5 -26t-24.5 -64t24.5 -64t64.5 -26t64.5 26z" />
    <glyph glyph-name="Hbar" unicode="&#x126;" horiz-adv-x="710" 
d="M640 457v-457h-200v183h-170v-183h-200v457h-60v146h60v97h200v-97h170v97h200v-97h60v-146h-60zM270 457v-80h170v80h-170z" />
    <glyph glyph-name="hbar" unicode="&#x127;" horiz-adv-x="590" 
d="M505.5 432.5q49.5 -56.5 49.5 -168.5v-264h-185v244q0 33 -16.5 50t-45.5 17q-33 0 -50.5 -21t-17.5 -58v-232h-185v526h-55v119h55v55h185v-55h130v-119h-130v-100q46 63 134 63q82 0 131.5 -56.5z" />
    <glyph glyph-name="Imacron" unicode="&#x12a;" horiz-adv-x="300" 
d="M310 889v-140h-320v140h320zM250 0h-200v700h200v-700z" />
    <glyph glyph-name="imacron" unicode="&#x12b;" horiz-adv-x="265" 
d="M273 689v-140h-280v140h280zM225 500v-500h-185v500h185z" />
    <glyph glyph-name="Iogonek" unicode="&#x12e;" horiz-adv-x="300" 
d="M210 -71q0 -19 21 -19q10 0 19 3v-110q-42 -17 -88 -17q-48 0 -79 23t-31 68q0 29 15.5 61t43.5 62h-61v700h200v-700q-40 -41 -40 -71z" />
    <glyph glyph-name="iogonek" unicode="&#x12f;" horiz-adv-x="265" 
d="M60.5 568.5q-30.5 30.5 -30.5 71.5t30.5 71.5t72.5 30.5q41 0 71.5 -30.5t30.5 -71.5t-30.5 -71.5t-71.5 -30.5q-42 0 -72.5 30.5zM214 -90q10 0 19 3v-110q-42 -17 -88 -17q-48 0 -79 23t-31 68q0 30 10.5 62t30.5 61h-36v500h185v-500q-32 -40 -32 -71q0 -19 21 -19z
" />
    <glyph glyph-name="Idotaccent" unicode="&#x130;" horiz-adv-x="300" 
d="M83 768q-28 28 -28 67t28 67t67 28t67 -28t28 -67t-28 -67t-67 -28t-67 28zM250 0h-200v700h200v-700z" />
    <glyph glyph-name="dotlessi" unicode="&#x131;" horiz-adv-x="265" 
d="M225 500v-500h-185v500h185z" />
    <glyph glyph-name="Kcommaaccent" unicode="&#x136;" horiz-adv-x="636" 
d="M424 0l-174 300v-300h-200v700h200v-280l164 280h222l-208 -340l218 -360h-222zM406 -54l-40 -230h-140l10 230h170z" />
    <glyph glyph-name="kcommaaccent" unicode="&#x137;" horiz-adv-x="550" 
d="M40 0v700h185v-394l105 194h210l-152 -250l162 -250h-205l-120 200v-200h-185zM374 -54l-40 -230h-140l10 230h170z" />
    <glyph glyph-name="Lacute" unicode="&#x139;" horiz-adv-x="490" 
d="M42 750l80 150h210l-116 -150h-174zM480 0h-430v700h200v-506h230v-194z" />
    <glyph glyph-name="lacute" unicode="&#x13a;" horiz-adv-x="265" 
d="M330 910h-210l-80 -150h174zM225 730v-730h-185v730h185z" />
    <glyph glyph-name="Lcommaaccent" unicode="&#x13b;" horiz-adv-x="490" 
d="M480 0h-430v700h200v-506h230v-194zM354 -54l-40 -230h-140l10 230h170z" />
    <glyph glyph-name="lcommaaccent" unicode="&#x13c;" horiz-adv-x="265" 
d="M225 730v-730h-185v730h185zM45 -54l-10 -230h140l40 230h-170z" />
    <glyph glyph-name="Lcaron" unicode="&#x13d;" horiz-adv-x="490" 
d="M480 194v-194h-430v700h200v-506h230zM291 490l10 210h179l-39 -210h-150z" />
    <glyph glyph-name="lcaron" unicode="&#x13e;" horiz-adv-x="421" 
d="M225 730v-730h-185v730h185zM271 730l-10 -230h140l40 230h-170z" />
    <glyph glyph-name="Lslash" unicode="&#x141;" horiz-adv-x="510" 
d="M500 0h-430v197l-60 -34v193l60 34v310h200v-198l120 67v-193l-120 -67v-115h230v-194z" />
    <glyph glyph-name="lslash" unicode="&#x142;" horiz-adv-x="290" 
d="M238 311v-311h-185v202l-53 -31v173l53 31v355h185v-246l52 31v-173z" />
    <glyph glyph-name="Nacute" unicode="&#x143;" horiz-adv-x="680" 
d="M505 900h-210l-80 -150h174zM630 0h-160l-220 320v-320h-200v700h160l220 -320v320h200v-700z" />
    <glyph glyph-name="nacute" unicode="&#x144;" horiz-adv-x="575" 
d="M185 560l80 150h210l-116 -150h-174zM490.5 457.5q49.5 -56.5 49.5 -168.5v-289h-185v269q0 33 -16.5 50t-45.5 17q-33 0 -50.5 -21t-17.5 -58v-257h-185v500h185v-49q46 63 134 63q82 0 131.5 -56.5z" />
    <glyph glyph-name="Ncommaaccent" unicode="&#x145;" horiz-adv-x="680" 
d="M630 0h-160l-220 320v-320h-200v700h160l220 -320v320h200v-700zM274 -54l-10 -230h140l40 230h-170z" />
    <glyph glyph-name="ncommaaccent" unicode="&#x146;" horiz-adv-x="575" 
d="M490.5 457.5q49.5 -56.5 49.5 -168.5v-289h-185v269q0 33 -16.5 50t-45.5 17q-33 0 -50.5 -21t-17.5 -58v-257h-185v500h185v-49q46 63 134 63q82 0 131.5 -56.5zM387 -54l-40 -230h-140l10 230h170z" />
    <glyph glyph-name="Ncaron" unicode="&#x147;" horiz-adv-x="680" 
d="M275 900l45 -58l45 58h155l-106 -160h-188l-106 160h155zM630 0h-160l-220 320v-320h-200v700h160l220 -320v320h200v-700z" />
    <glyph glyph-name="ncaron" unicode="&#x148;" horiz-adv-x="575" 
d="M245 710l45 -58l45 58h155l-106 -160h-188l-106 160h155zM490.5 457.5q49.5 -56.5 49.5 -168.5v-289h-185v269q0 33 -16.5 50t-45.5 17q-33 0 -50.5 -21t-17.5 -58v-257h-185v500h185v-49q46 63 134 63q82 0 131.5 -56.5z" />
    <glyph glyph-name="Eng" unicode="&#x14a;" horiz-adv-x="680" 
d="M630 0q0 -112 -54 -164.5t-167 -52.5q-19 0 -29 1v166q34 -3 49.5 9t15.5 41v36l-195 284v-320h-200v700h160l220 -320v320h200v-700z" />
    <glyph glyph-name="eng" unicode="&#x14b;" horiz-adv-x="575" 
d="M490.5 457.5q49.5 -56.5 49.5 -168.5v-289q0 -105 -47 -154.5t-147 -49.5q-23 0 -36 1v157q22 -1 33.5 9.5t11.5 36.5v269q0 33 -16.5 50t-45.5 17q-33 0 -50.5 -21t-17.5 -58v-257h-185v500h185v-49q46 63 134 63q82 0 131.5 -56.5z" />
    <glyph glyph-name="Omacron" unicode="&#x14c;" horiz-adv-x="792" 
d="M556 899v-140h-320v140h320zM209 32.5q-85 48.5 -134.5 132t-49.5 185.5t49.5 185.5t134.5 132t187 48.5t187 -48.5t134.5 -132t49.5 -185.5t-49.5 -185.5t-134.5 -132t-187 -48.5t-187 48.5zM484 202q39 22 61 61t22 87t-22 87t-61 61t-88 22t-88 -22t-61 -61t-22 -87
t22 -87t61 -61t88 -22t88 22z" />
    <glyph glyph-name="omacron" unicode="&#x14d;" horiz-adv-x="574" 
d="M447 699v-140h-320v140h320zM152 21q-62 35 -98 95t-36 134t36 134.5t97.5 95t135.5 34.5t135.5 -34.5t97.5 -95t36 -134.5t-36 -134.5t-97.5 -95t-135.5 -34.5q-73 0 -135 35zM347.5 186.5q23.5 24.5 23.5 63.5t-23.5 63.5t-60.5 24.5t-60.5 -24.5t-23.5 -63.5
t23.5 -63.5t60.5 -24.5t60.5 24.5z" />
    <glyph glyph-name="Ohungarumlaut" unicode="&#x150;" horiz-adv-x="792" 
d="M440 910h-174l-80 -160h168zM653 910h-174l-90 -160h168zM209 32.5q-85 48.5 -134.5 132t-49.5 185.5t49.5 185.5t134.5 132t187 48.5t187 -48.5t134.5 -132t49.5 -185.5t-49.5 -185.5t-134.5 -132t-187 -48.5t-187 48.5zM484 202q39 22 61 61t22 87t-22 87t-61 61
t-88 22t-88 -22t-61 -61t-22 -87t22 -87t61 -61t88 -22t88 22z" />
    <glyph glyph-name="ohungarumlaut" unicode="&#x151;" horiz-adv-x="574" 
d="M331 710h-174l-80 -160h168zM544 710h-174l-90 -160h168zM152 21q-62 35 -98 95t-36 134t36 134.5t97.5 95t135.5 34.5t135.5 -34.5t97.5 -95t36 -134.5t-36 -134.5t-97.5 -95t-135.5 -34.5q-73 0 -135 35zM347.5 186.5q23.5 24.5 23.5 63.5t-23.5 63.5t-60.5 24.5
t-60.5 -24.5t-23.5 -63.5t23.5 -63.5t60.5 -24.5t60.5 24.5z" />
    <glyph glyph-name="OE" unicode="&#x152;" horiz-adv-x="955" 
d="M925 0h-420q-51 -16 -109 -16q-102 0 -187 48.5t-134.5 132t-49.5 185.5t49.5 185.5t134.5 132t187 48.5q58 0 109 -16h415v-182h-215v-76h190v-180h-190v-78h220v-184zM396 520q-49 0 -88 -22t-61 -61t-22 -87t22 -87t61 -61t88 -22q62 0 109 21v298q-47 21 -109 21z
" />
    <glyph glyph-name="oe" unicode="&#x153;" horiz-adv-x="910" 
d="M595 147.5q26 -10.5 62 -10.5q24 0 44 7t41 25l121 -102q-38 -41 -93.5 -61t-118.5 -20q-58 0 -105.5 20.5t-81.5 58.5q-32 -38 -79.5 -58.5t-107.5 -20.5q-77 0 -136 37.5t-91 97.5t-32 127q0 68 31.5 129t90.5 99t137 38q60 0 107.5 -20.5t79.5 -58.5q35 38 83 58.5
t107 20.5q68 0 123 -34.5t86.5 -94.5t31.5 -133q0 -33 -8 -65h-332q14 -29 40 -39.5zM639 366q-30 0 -53 -15t-34 -45h168q-17 60 -81 60zM347.5 186.5q23.5 24.5 23.5 63.5t-23.5 63.5t-60.5 24.5t-60.5 -24.5t-23.5 -63.5t23.5 -63.5t60.5 -24.5t60.5 24.5z" />
    <glyph glyph-name="Racute" unicode="&#x154;" horiz-adv-x="625" 
d="M180 750l80 150h210l-116 -150h-174zM250 221v-220h-200v700h280q75 0 135.5 -30t95 -86t34.5 -130q0 -62 -28.5 -112t-79.5 -81l138 -261h-214l-111 220h-50zM326 387q32 -1 50.5 16t18.5 48t-18.5 48.5t-50.5 17.5h-76v-130h76z" />
    <glyph glyph-name="racute" unicode="&#x155;" horiz-adv-x="390" 
d="M82 550l80 150h210l-116 -150h-174zM280 482q41 28 95 28v-200q-16 2 -24 2q-53 0 -89.5 -32t-36.5 -94v-186h-185v500h185v-97q14 51 55 79z" />
    <glyph glyph-name="Rcommaaccent" unicode="&#x156;" horiz-adv-x="625" 
d="M50 1v700h280q75 0 135.5 -30t95 -86t34.5 -130q0 -62 -28.5 -112t-79.5 -81l138 -261h-214l-111 220h-50v-220h-200zM250 387h76q32 -1 50.5 16t18.5 48t-18.5 48.5t-50.5 17.5h-76v-130zM414 -54l-40 -230h-140l10 230h170z" />
    <glyph glyph-name="rcommaaccent" unicode="&#x157;" horiz-adv-x="390" 
d="M280 482q41 28 95 28v-200q-16 2 -24 2q-53 0 -89.5 -32t-36.5 -94v-186h-185v500h185v-97q14 51 55 79zM212 -54l-40 -230h-140l10 230h170z" />
    <glyph glyph-name="Rcaron" unicode="&#x158;" horiz-adv-x="625" 
d="M240 900l45 -58l45 58h155l-106 -160h-188l-106 160h155zM250 221v-220h-200v700h280q75 0 135.5 -30t95 -86t34.5 -130q0 -62 -28.5 -112t-79.5 -81l138 -261h-214l-111 220h-50zM326 387q32 -1 50.5 16t18.5 48t-18.5 48.5t-50.5 17.5h-76v-130h76z" />
    <glyph glyph-name="rcaron" unicode="&#x159;" horiz-adv-x="390" 
d="M142 700l45 -58l45 58h155l-106 -160h-188l-106 160h155zM280 482q41 28 95 28v-200q-16 2 -24 2q-53 0 -89.5 -32t-36.5 -94v-186h-185v500h185v-97q14 51 55 79z" />
    <glyph glyph-name="Sacute" unicode="&#x15a;" horiz-adv-x="585" 
d="M466 910h-210l-80 -150h174zM112 31.5q-76 47.5 -102 128.5l171 99q18 -46 49.5 -67.5t76.5 -21.5q35 0 51.5 9.5t16.5 26.5q0 20 -19.5 30t-66.5 23q-29 7 -38 10q-97 29 -153 82.5t-56 142.5q0 63 31.5 113.5t88.5 79.5t132 29q89 0 159.5 -42t103.5 -121l-166 -97
q-15 38 -40.5 56t-55.5 18q-26 0 -39.5 -10.5t-13.5 -26.5q0 -22 23.5 -34t90.5 -31q68 -20 113.5 -43t75.5 -66t30 -111q0 -107 -73.5 -165.5t-199.5 -58.5q-114 0 -190 47.5z" />
    <glyph glyph-name="sacute" unicode="&#x15b;" horiz-adv-x="484" 
d="M129 560l80 150h210l-116 -150h-174zM235 335q16 -6 50 -12q53 -10 90.5 -23.5t65.5 -47.5t28 -93q0 -63 -34.5 -102t-85.5 -55t-105 -16q-88 0 -146.5 27.5t-87.5 91.5l161 72q19 -51 71 -51q16 0 25 6t9 16q0 12 -15.5 18.5t-50.5 14.5q-50 11 -86 25.5t-62.5 47.5
t-26.5 88t30 94t77.5 58.5t99.5 19.5q79 0 133.5 -29t83.5 -98l-153 -55q-18 42 -56 42q-15 0 -23 -5.5t-8 -15.5q0 -12 16 -18z" />
    <glyph glyph-name="Scedilla" unicode="&#x15e;" horiz-adv-x="585" 
d="M524 63.5q-51 -55.5 -143 -72.5v-37q19 -8 36 -27t17 -50q0 -51 -49 -78t-148 -27q-14 0 -48 2v114q30 -2 40 -2q55 0 55 16q0 8 -13.5 13t-39.5 7v67q-85 14 -142 59t-79 112l171 99q18 -46 49.5 -67.5t76.5 -21.5q35 0 51.5 9.5t16.5 26.5q0 20 -19.5 30t-66.5 23
q-29 7 -38 10q-97 29 -153 82.5t-56 142.5q0 63 31.5 113.5t88.5 79.5t132 29q89 0 159.5 -42t103.5 -121l-166 -97q-15 38 -40.5 56t-55.5 18q-26 0 -39.5 -10.5t-13.5 -26.5q0 -22 23.5 -34t90.5 -31q68 -20 113.5 -43t75.5 -66t30 -111q0 -89 -51 -144.5z" />
    <glyph glyph-name="scedilla" unicode="&#x15f;" horiz-adv-x="484" 
d="M430.5 52.5q-38.5 -39.5 -99.5 -55.5v-43q19 -8 36 -27t17 -50q0 -51 -49 -78t-148 -27q-14 0 -48 2v114q30 -2 40 -2q55 0 55 16q0 8 -13.5 13t-39.5 7v68q-62 8 -105 35.5t-66 79.5l161 72q19 -51 71 -51q16 0 25 6t9 16q0 12 -15.5 18.5t-50.5 14.5q-50 11 -86 25.5
t-62.5 47.5t-26.5 88t30 94t77.5 58.5t99.5 19.5q79 0 133.5 -29t83.5 -98l-153 -55q-18 42 -56 42q-15 0 -23 -5.5t-8 -15.5q0 -12 16 -18t50 -12q53 -10 90.5 -23.5t65.5 -47.5t28 -93q0 -67 -38.5 -106.5z" />
    <glyph glyph-name="Scaron" unicode="&#x160;" horiz-adv-x="585" 
d="M236 910l45 -58l45 58h155l-106 -160h-188l-106 160h155zM469.5 385q45.5 -23 75.5 -66t30 -111q0 -107 -73.5 -165.5t-199.5 -58.5q-114 0 -190 47.5t-102 128.5l171 99q18 -46 49.5 -67.5t76.5 -21.5q35 0 51.5 9.5t16.5 26.5q0 20 -19.5 30t-66.5 23q-29 7 -38 10
q-97 29 -153 82.5t-56 142.5q0 63 31.5 113.5t88.5 79.5t132 29q89 0 159.5 -42t103.5 -121l-166 -97q-15 38 -40.5 56t-55.5 18q-26 0 -39.5 -10.5t-13.5 -26.5q0 -22 23.5 -34t90.5 -31q68 -20 113.5 -43z" />
    <glyph glyph-name="scaron" unicode="&#x161;" horiz-adv-x="484" 
d="M189 710l45 -58l45 58h155l-106 -160h-188l-106 160h155zM235 335q16 -6 50 -12q53 -10 90.5 -23.5t65.5 -47.5t28 -93q0 -63 -34.5 -102t-85.5 -55t-105 -16q-88 0 -146.5 27.5t-87.5 91.5l161 72q19 -51 71 -51q16 0 25 6t9 16q0 12 -15.5 18.5t-50.5 14.5
q-50 11 -86 25.5t-62.5 47.5t-26.5 88t30 94t77.5 58.5t99.5 19.5q79 0 133.5 -29t83.5 -98l-153 -55q-18 42 -56 42q-15 0 -23 -5.5t-8 -15.5q0 -12 16 -18z" />
    <glyph glyph-name="uni0162" unicode="&#x162;" horiz-adv-x="550" 
d="M375 506v-506h-200v506h-165v194h530v-194h-165zM357 -54l-40 -230h-140l10 230h170z" />
    <glyph glyph-name="uni0163" unicode="&#x163;" horiz-adv-x="400" 
d="M265 216q0 -30 16.5 -40.5t52.5 -10.5q23 0 36 1v-166q-46 -7 -90 -7q-107 0 -153.5 51.5t-46.5 161.5v118h-70v176h70v85l185 55v-140h105v-176h-105v-108zM319 -44l-40 -230h-140l10 230h170z" />
    <glyph glyph-name="Tcaron" unicode="&#x164;" horiz-adv-x="550" 
d="M225 900l45 -58l45 58h155l-106 -160h-188l-106 160h155zM375 506v-506h-200v506h-165v194h530v-194h-165z" />
    <glyph glyph-name="tcaron" unicode="&#x165;" horiz-adv-x="446" 
d="M426 532h-130l10 190h160zM370 500v-176h-105v-108q0 -30 16.5 -40.5t52.5 -10.5q23 0 36 1v-166q-46 -7 -90 -7q-107 0 -153.5 51.5t-46.5 161.5v118h-70v176h70v85l185 55v-140h105z" />
    <glyph glyph-name="Tbar" unicode="&#x166;" horiz-adv-x="550" 
d="M375 412h100v-174h-100v-238h-200v238h-100v174h100v94h-165v194h530v-194h-165v-94z" />
    <glyph glyph-name="tbar" unicode="&#x167;" horiz-adv-x="400" 
d="M265 320h70v-120h-69q4 -20 20.5 -27.5t47.5 -7.5q23 0 36 1v-166q-46 -7 -90 -7q-105 0 -151.5 50t-48.5 157h-45v120h45v34h-70v146h70v85l185 55v-140h105v-146h-105v-34z" />
    <glyph glyph-name="Umacron" unicode="&#x16a;" horiz-adv-x="650" 
d="M485 889v-140h-320v140h320zM176.5 15q-64.5 31 -100.5 88t-36 131v466h200v-444q0 -78 85 -78t85 78v444h200v-466q0 -74 -36 -131t-100.5 -88t-148.5 -31t-148.5 31z" />
    <glyph glyph-name="umacron" unicode="&#x16b;" horiz-adv-x="575" 
d="M125 549v140h320v-140h-320zM535 0h-185v49q-46 -63 -134 -63q-82 0 -131.5 56.5t-49.5 168.5v289h185v-269q0 -33 16.5 -50t45.5 -17q33 0 50.5 21t17.5 58v257h185v-500z" />
    <glyph glyph-name="Uring" unicode="&#x16e;" horiz-adv-x="650" 
d="M218 750q-42 40 -42 100t42 100t107 40q67 0 108 -39.5t41 -100.5t-41 -100.5t-108 -39.5q-65 0 -107 40zM348.5 828.5q8.5 8.5 8.5 21.5t-8.5 21.5t-23.5 8.5t-23 -8.5t-8 -21.5t8 -21.5t23 -8.5t23.5 8.5zM176.5 15q-64.5 31 -100.5 88t-36 131v466h200v-444
q0 -78 85 -78t85 78v444h200v-466q0 -74 -36 -131t-100.5 -88t-148.5 -31t-148.5 31z" />
    <glyph glyph-name="uring" unicode="&#x16f;" horiz-adv-x="575" 
d="M178 570q-42 40 -42 100t42 100t107 40q67 0 108 -39.5t41 -100.5t-41 -100.5t-108 -39.5q-65 0 -107 40zM262 691.5q-8 -8.5 -8 -21.5t8 -21.5t23 -8.5t23.5 8.5t8.5 21.5t-8.5 21.5t-23.5 8.5t-23 -8.5zM535 0h-185v49q-46 -63 -134 -63q-82 0 -131.5 56.5t-49.5 168.5
v289h185v-269q0 -33 16.5 -50t45.5 -17q33 0 50.5 21t17.5 58v257h185v-500z" />
    <glyph glyph-name="Uhungarumlaut" unicode="&#x170;" horiz-adv-x="650" 
d="M369 900h-174l-80 -160h168zM582 900h-174l-90 -160h168zM176.5 15q-64.5 31 -100.5 88t-36 131v466h200v-444q0 -78 85 -78t85 78v444h200v-466q0 -74 -36 -131t-100.5 -88t-148.5 -31t-148.5 31z" />
    <glyph glyph-name="uhungarumlaut" unicode="&#x171;" horiz-adv-x="575" 
d="M75 540l80 160h174l-86 -160h-168zM368 700h174l-96 -160h-168zM535 500v-500h-185v49q-46 -63 -134 -63q-82 0 -131.5 56.5t-49.5 168.5v289h185v-269q0 -33 16.5 -50t45.5 -17q33 0 50.5 21t17.5 58v257h185z" />
    <glyph glyph-name="Uogonek" unicode="&#x172;" horiz-adv-x="650" 
d="M610 234q0 -59 -23 -107t-66 -82q-47 -41 -66 -66.5t-19 -49.5q0 -19 21 -19q10 0 19 3v-110q-42 -17 -88 -17q-48 0 -79 23t-31 68q0 51 45 107q-83 0 -147.5 31.5t-100 88t-35.5 130.5v466h200v-444q0 -78 85 -78t85 78v444h200v-466z" />
    <glyph glyph-name="uogonek" unicode="&#x173;" horiz-adv-x="575" 
d="M495 -71q0 -19 21 -19q10 0 19 3v-110q-42 -17 -88 -17q-48 0 -79 23t-31 68q0 29 15.5 61t43.5 62h-46v49q-46 -63 -134 -63q-82 0 -131.5 56.5t-49.5 168.5v289h185v-269q0 -33 16.5 -50t45.5 -17q33 0 50.5 21t17.5 58v257h185v-500q-40 -41 -40 -71z" />
    <glyph glyph-name="Wcircumflex" unicode="&#x174;" horiz-adv-x="1010" 
d="M325 740l106 160h188l106 -160h-155l-45 58l-45 -58h-155zM812 0h-197l-110 374l-110 -374h-197l-198 700h220l95 -385l113 385h154l113 -385l95 385h220z" />
    <glyph glyph-name="wcircumflex" unicode="&#x175;" horiz-adv-x="830" 
d="M210 540l106 160h188l106 -160h-155l-45 58l-45 -58h-155zM665 0h-188l-62 235l-62 -235h-188l-145 500h195l58 -277l72 277h140l72 -277l58 277h195z" />
    <glyph glyph-name="Ycircumflex" unicode="&#x176;" horiz-adv-x="674" 
d="M132 740l106 160h188l106 -160h-155l-45 58l-45 -58h-155zM437 0h-200v266l-237 434h222l115 -246l115 246h222l-237 -434v-266z" />
    <glyph glyph-name="ycircumflex" unicode="&#x177;" horiz-adv-x="570" 
d="M86 540l106 160h188l106 -160h-155l-45 58l-45 -58h-155zM400 1q-37 -109 -115 -157.5t-206 -43.5v175q51 0 78 7.5t43 27.5l-200 490h210l89 -267l61 267h210z" />
    <glyph glyph-name="Ydieresis" unicode="&#x178;" horiz-adv-x="674" 
d="M177 755q-25 25 -25 60t25 60t60 25t60 -25t25 -60t-25 -60t-60 -25t-60 25zM377 755q-25 25 -25 60t25 60t60 25t60 -25t25 -60t-25 -60t-60 -25t-60 25zM437 0h-200v266l-237 434h222l115 -246l115 246h222l-237 -434v-266z" />
    <glyph glyph-name="Zacute" unicode="&#x179;" horiz-adv-x="545" 
d="M171 750l80 150h210l-116 -150h-174zM525 0h-495v154l223 352h-218v194h480v-154l-223 -352h233v-194z" />
    <glyph glyph-name="zacute" unicode="&#x17a;" horiz-adv-x="495" 
d="M140 550l80 150h210l-116 -150h-174zM460 0h-420v130l164 200h-154v170h400v-130l-164 -200h174v-170z" />
    <glyph glyph-name="Zdotaccent" unicode="&#x17b;" horiz-adv-x="545" 
d="M214 768q-28 28 -28 67t28 67t67 28t67 -28t28 -67t-28 -67t-67 -28t-67 28zM525 0h-495v154l223 352h-218v194h480v-154l-223 -352h233v-194z" />
    <glyph glyph-name="zdotaccent" unicode="&#x17c;" horiz-adv-x="495" 
d="M183 568q-28 28 -28 67t28 67t67 28t67 -28t28 -67t-28 -67t-67 -28t-67 28zM460 0h-420v130l164 200h-154v170h400v-130l-164 -200h174v-170z" />
    <glyph glyph-name="Zcaron" unicode="&#x17d;" horiz-adv-x="545" 
d="M231 900l45 -58l45 58h155l-106 -160h-188l-106 160h155zM525 0h-495v154l223 352h-218v194h480v-154l-223 -352h233v-194z" />
    <glyph glyph-name="zcaron" unicode="&#x17e;" horiz-adv-x="495" 
d="M200 700l45 -58l45 58h155l-106 -160h-188l-106 160h155zM460 0h-420v130l164 200h-154v170h400v-130l-164 -200h174v-170z" />
    <glyph glyph-name="florin" unicode="&#x192;" horiz-adv-x="482" 
d="M259.5 672q57.5 44 141.5 44q39 0 81 -9v-180q-19 7 -33 7q-25 0 -43.5 -15.5t-23.5 -43.5l-6 -37h65v-176h-95l-50 -292q-16 -90 -73.5 -134t-141.5 -44q-39 0 -81 9v180q19 -7 33 -7q25 0 43.5 15.5t23.5 43.5l39 229h-58v176h88l17 100q16 90 73.5 134z" />
    <glyph glyph-name="Scommaaccent" unicode="&#x218;" horiz-adv-x="585" 
d="M112 31.5q-76 47.5 -102 128.5l171 99q18 -46 49.5 -67.5t76.5 -21.5q35 0 51.5 9.5t16.5 26.5q0 20 -19.5 30t-66.5 23q-29 7 -38 10q-97 29 -153 82.5t-56 142.5q0 63 31.5 113.5t88.5 79.5t132 29q89 0 159.5 -42t103.5 -121l-166 -97q-15 38 -40.5 56t-55.5 18
q-26 0 -39.5 -10.5t-13.5 -26.5q0 -22 23.5 -34t90.5 -31q68 -20 113.5 -43t75.5 -66t30 -111q0 -107 -73.5 -165.5t-199.5 -58.5q-114 0 -190 47.5zM233 -54l-10 -230h140l40 230h-170z" />
    <glyph glyph-name="scommaaccent" unicode="&#x219;" horiz-adv-x="484" 
d="M235 335q16 -6 50 -12q53 -10 90.5 -23.5t65.5 -47.5t28 -93q0 -63 -34.5 -102t-85.5 -55t-105 -16q-88 0 -146.5 27.5t-87.5 91.5l161 72q19 -51 71 -51q16 0 25 6t9 16q0 12 -15.5 18.5t-50.5 14.5q-50 11 -86 25.5t-62.5 47.5t-26.5 88t30 94t77.5 58.5t99.5 19.5
q79 0 133.5 -29t83.5 -98l-153 -55q-18 42 -56 42q-15 0 -23 -5.5t-8 -15.5q0 -12 16 -18zM353 -54l-40 -230h-140l10 230h170z" />
    <glyph glyph-name="uni021A" unicode="&#x21a;" horiz-adv-x="550" 
d="M375 506v-506h-200v506h-165v194h530v-194h-165zM357 -54l-40 -230h-140l10 230h170z" />
    <glyph glyph-name="uni021B" unicode="&#x21b;" horiz-adv-x="400" 
d="M265 216q0 -30 16.5 -40.5t52.5 -10.5q23 0 36 1v-166q-46 -7 -90 -7q-107 0 -153.5 51.5t-46.5 161.5v118h-70v176h70v85l185 55v-140h105v-176h-105v-108zM319 -44l-40 -230h-140l10 230h170z" />
    <glyph glyph-name="circumflex" unicode="&#x2c6;" horiz-adv-x="440" 
d="M220 598l-45 -58h-155l106 160h188l106 -160h-155z" />
    <glyph glyph-name="caron" unicode="&#x2c7;" horiz-adv-x="440" 
d="M314 540h-188l-106 160h155l45 -58l45 58h155z" />
    <glyph glyph-name="breve" unicode="&#x2d8;" horiz-adv-x="410" 
d="M68 575q-48 43 -48 127h150q0 -40 35 -40t35 40h150q0 -84 -48 -127t-137 -43t-137 43z" />
    <glyph glyph-name="dotaccent" unicode="&#x2d9;" horiz-adv-x="230" 
d="M48 568q-28 28 -28 67t28 67t67 28t67 -28t28 -67t-28 -67t-67 -28t-67 28z" />
    <glyph glyph-name="ring" unicode="&#x2da;" horiz-adv-x="338" 
d="M62 570q-42 40 -42 100t42 100t107 40q67 0 108 -39.5t41 -100.5t-41 -100.5t-108 -39.5q-65 0 -107 40zM192.5 648.5q8.5 8.5 8.5 21.5t-8.5 21.5t-23.5 8.5t-23 -8.5t-8 -21.5t8 -21.5t23 -8.5t23.5 8.5z" />
    <glyph glyph-name="ogonek" unicode="&#x2db;" horiz-adv-x="238" 
d="M51 -191q-31 23 -31 68q0 29 15.5 61t43.5 62h139q-40 -41 -40 -71q0 -19 21 -19q10 0 19 3v-110q-42 -17 -88 -17q-48 0 -79 23z" />
    <glyph glyph-name="tilde" unicode="&#x2dc;" horiz-adv-x="399" 
d="M53.5 670q33.5 40 85.5 40q27 0 64 -14q9 -4 22 -10.5t20 -6.5q14 0 14 31h120q0 -88 -33 -127.5t-84 -39.5q-34 0 -67 14q-8 3 -21 10t-20 7q-14 0 -14 -31h-120q0 87 33.5 127z" />
    <glyph glyph-name="hungarumlaut" unicode="&#x2dd;" horiz-adv-x="507" 
d="M274 700h-174l-80 -160h168zM487 700h-174l-90 -160h168z" />
    <glyph glyph-name="gravecomb" unicode="&#x300;" horiz-adv-x="0" 
d="M-310 700l116 -150h174l-80 150h-210z" />
    <glyph glyph-name="acutecomb" unicode="&#x301;" horiz-adv-x="0" 
d="M10 700h-210l-80 -150h174z" />
    <glyph glyph-name="uni0302" unicode="&#x302;" horiz-adv-x="0" 
d="M-220 598l-45 -58h-155l106 160h188l106 -160h-155z" />
    <glyph glyph-name="tildecomb" unicode="&#x303;" horiz-adv-x="0" 
d="M-345.5 670q33.5 40 85.5 40q27 0 64 -14q9 -4 22 -10.5t20 -6.5q14 0 14 31h120q0 -88 -33 -127.5t-84 -39.5q-34 0 -67 14q-8 3 -21 10t-20 7q-14 0 -14 -31h-120q0 87 33.5 127z" />
    <glyph glyph-name="uni0304" unicode="&#x304;" horiz-adv-x="0" 
d="M-20 689v-140h-320v140h320z" />
    <glyph glyph-name="uni0306" unicode="&#x306;" horiz-adv-x="0" 
d="M-352 575q-48 43 -48 127h150q0 -40 35 -40t35 40h150q0 -84 -48 -127t-137 -43t-137 43z" />
    <glyph glyph-name="uni0307" unicode="&#x307;" horiz-adv-x="0" 
d="M-182 568q-28 28 -28 67t28 67t67 28t67 -28t28 -67t-28 -67t-67 -28t-67 28z" />
    <glyph glyph-name="uni0308" unicode="&#x308;" horiz-adv-x="0" 
d="M-365 555q-25 25 -25 60t25 60t60 25t60 -25t25 -60t-25 -60t-60 -25t-60 25zM-165 555q-25 25 -25 60t25 60t60 25t60 -25t25 -60t-25 -60t-60 -25t-60 25z" />
    <glyph glyph-name="uni030A" unicode="&#x30a;" horiz-adv-x="0" 
d="M-276 570q-42 40 -42 100t42 100t107 40q67 0 108 -39.5t41 -100.5t-41 -100.5t-108 -39.5q-65 0 -107 40zM-145.5 648.5q8.5 8.5 8.5 21.5t-8.5 21.5t-23.5 8.5t-23 -8.5t-8 -21.5t8 -21.5t23 -8.5t23.5 8.5z" />
    <glyph glyph-name="uni030B" unicode="&#x30b;" horiz-adv-x="0" 
d="M-233 700h-174l-80 -160h168zM-20 700h-174l-90 -160h168z" />
    <glyph glyph-name="uni030C" unicode="&#x30c;" horiz-adv-x="0" 
d="M-126 540h-188l-106 160h155l45 -58l45 58h155z" />
    <glyph glyph-name="uni0312" unicode="&#x312;" horiz-adv-x="0" 
d="M-30 760l10 230h-140l-40 -230h170z" />
    <glyph glyph-name="uni0326" unicode="&#x326;" horiz-adv-x="0" 
d="M-190 -54l-10 -230h140l40 230h-170z" />
    <glyph glyph-name="uni0327" unicode="&#x327;" horiz-adv-x="0" 
d="M-37 -73q17 -19 17 -50q0 -51 -49 -78t-148 -27q-14 0 -48 2v114q30 -2 40 -2q55 0 55 16q0 8 -13.5 13t-39.5 7v78h150v-46q19 -8 36 -27z" />
    <glyph glyph-name="uni0328" unicode="&#x328;" horiz-adv-x="0" 
d="M-187 -191q-31 23 -31 68q0 29 15.5 61t43.5 62h139q-40 -41 -40 -71q0 -19 21 -19q10 0 19 3v-110q-42 -17 -88 -17q-48 0 -79 23z" />
    <glyph glyph-name="uni0394" unicode="&#x394;" horiz-adv-x="660" 
d="M-10 0l228 700h224l228 -700h-680zM330 465l-82 -305h164z" />
    <glyph glyph-name="uni03A9" unicode="&#x3a9;" horiz-adv-x="782" 
d="M744 268.5q-18 -47.5 -52 -84.5h54v-184h-284v194q46 20 73 61.5t27 94.5q0 48 -22 87t-61 61t-88 22t-88 -22t-61 -61t-22 -87q0 -53 27 -94.5t73 -61.5v-194h-284v184h54q-34 37 -52 84.5t-18 101.5q0 101 49 180t134 122.5t188 43.5t188 -43.5t134 -122.5t49 -180
q0 -54 -18 -101.5z" />
    <glyph glyph-name="pi" unicode="&#x3c0;" horiz-adv-x="650" 
d="M570 324v-324h-185v324h-120v-324h-185v324h-70v176h630v-176h-70z" />
    <glyph glyph-name="uni0401" unicode="&#x401;" horiz-adv-x="540" 
d="M118 755q-25 25 -25 60t25 60t60 25t60 -25t25 -60t-25 -60t-60 -25t-60 25zM318 755q-25 25 -25 60t25 60t60 25t60 -25t25 -60t-25 -60t-60 -25t-60 25zM510 0h-460v700h455v-182h-255v-76h230v-180h-230v-78h260v-184z" />
    <glyph glyph-name="uni0402" unicode="&#x402;" horiz-adv-x="705" 
d="M624.5 385q45.5 -49 45.5 -146v-39q0 -111 -52.5 -164t-159.5 -53q-19 0 -28 1v171q25 -3 35 8t10 37v14q0 21 -12 31.5t-33 10.5q-30 0 -65 -12v-244h-200v506h-155v194h530v-194h-175v-89q74 17 129 17q85 0 130.5 -49z" />
    <glyph glyph-name="uni0403" unicode="&#x403;" horiz-adv-x="480" 
d="M136 749l80 150h210l-116 -150h-174zM250 506v-506h-200v700h430v-194h-230z" />
    <glyph glyph-name="uni0404" unicode="&#x404;" horiz-adv-x="718" 
d="M469.5 196.5q36.5 21.5 54.5 58.5l174 -100q-45 -79 -127.5 -125t-179.5 -46q-106 0 -189.5 48t-130 131.5t-46.5 186.5t46.5 186.5t130 131.5t189.5 48q96 0 178.5 -46.5t128.5 -123.5l-174 -100q-18 35 -55 57t-83 22q-51 0 -88.5 -22.5t-57.5 -62.5h211v-180h-211
q20 -40 57.5 -62.5t88.5 -22.5q47 0 83.5 21.5z" />
    <glyph glyph-name="uni0405" unicode="&#x405;" horiz-adv-x="585" 
d="M112 31.5q-76 47.5 -102 128.5l171 99q18 -46 49.5 -67.5t76.5 -21.5q35 0 51.5 9.5t16.5 26.5q0 20 -19.5 30t-66.5 23q-29 7 -38 10q-97 29 -153 82.5t-56 142.5q0 63 31.5 113.5t88.5 79.5t132 29q89 0 159.5 -42t103.5 -121l-166 -97q-15 38 -40.5 56t-55.5 18
q-26 0 -39.5 -10.5t-13.5 -26.5q0 -22 23.5 -34t90.5 -31q68 -20 113.5 -43t75.5 -66t30 -111q0 -107 -73.5 -165.5t-199.5 -58.5q-114 0 -190 47.5z" />
    <glyph glyph-name="uni0406" unicode="&#x406;" horiz-adv-x="300" 
d="M250 0h-200v700h200v-700z" />
    <glyph glyph-name="uni0407" unicode="&#x407;" horiz-adv-x="300" 
d="M-10 755q-25 25 -25 60t25 60t60 25t60 -25t25 -60t-25 -60t-60 -25t-60 25zM190 755q-25 25 -25 60t25 60t60 25t60 -25t25 -60t-25 -60t-60 -25t-60 25zM250 0h-200v700h200v-700z" />
    <glyph glyph-name="uni0408" unicode="&#x408;" horiz-adv-x="567" 
d="M115 20q-60 36 -95 108l168 99q13 -27 31.5 -38t46.5 -11q30 0 45.5 15t15.5 42v465h200v-470q0 -115 -68 -180.5t-192 -65.5q-92 0 -152 36z" />
    <glyph glyph-name="uni0409" unicode="&#x409;" horiz-adv-x="925" 
d="M785.5 452.5q58.5 -28.5 94 -83t35.5 -129.5t-35.5 -129.5t-94 -83t-125.5 -28.5h-200v1h-60v506h-104v-246q0 -143 -69 -203.5t-180 -60.5q-15 0 -47 2v186q36 -2 56 5.5t30 29.5t10 65v416h504v-219h60q67 0 125.5 -28.5zM715 240q0 47 -55 47h-60v-94h60q55 0 55 47z
" />
    <glyph glyph-name="uni040A" unicode="&#x40a;" horiz-adv-x="935" 
d="M795.5 453.5q58.5 -28.5 94 -83t35.5 -129.5t-35.5 -129.5t-94 -83t-125.5 -28.5h-260v288h-160v-288h-200v700h200v-218h160v218h200v-218h60q67 0 125.5 -28.5zM725 241q0 47 -55 47h-60v-94h60q55 0 55 47z" />
    <glyph glyph-name="uni040B" unicode="&#x40b;" horiz-adv-x="710" 
d="M624.5 395q45.5 -49 45.5 -146v-249h-195v224q0 21 -12 31.5t-33 10.5q-30 0 -65 -12v-254h-200v506h-155v194h530v-194h-175v-79q74 17 129 17q85 0 130.5 -49z" />
    <glyph glyph-name="uni040C" unicode="&#x40c;" horiz-adv-x="636" 
d="M206 749l80 150h210l-116 -150h-174zM250 300v-300h-200v700h200v-280l164 280h222l-208 -340l218 -360h-222z" />
    <glyph glyph-name="uni040E" unicode="&#x40e;" horiz-adv-x="650" 
d="M160 748v150h350v-150h-350zM448 226q-50 -117 -131.5 -174t-212.5 -52v186q9 -1 27 -1q70 0 111 36l-232 479h210l121 -266l99 266h210z" />
    <glyph glyph-name="uni040F" unicode="&#x40f;" horiz-adv-x="650" 
d="M600 0h-175v-134h-200v134h-175v700h200v-506h150v506h200v-700z" />
    <glyph glyph-name="uni0410" unicode="&#x410;" horiz-adv-x="660" 
d="M229 90l-24 -90h-215l223 700h234l223 -700h-215l-24 90h-202zM330 465l-58 -215h116z" />
    <glyph glyph-name="uni0411" unicode="&#x411;" 
d="M528.5 384.5q61.5 -59.5 61.5 -159.5q0 -66 -28 -117t-80 -79.5t-122 -28.5h-310v700h480v-194h-280v-62h110q107 0 168.5 -59.5zM377.5 192q12.5 12 12.5 33t-12.5 33t-32.5 12h-95v-90h95q20 0 32.5 12z" />
    <glyph glyph-name="uni0412" unicode="&#x412;" horiz-adv-x="605" 
d="M566.5 296.5q23.5 -39.5 23.5 -90.5q0 -96 -62.5 -151t-181.5 -55h-296v700h278q118 0 180 -51t62 -146q0 -91 -70 -142q43 -25 66.5 -64.5zM250 434l77 1q19 2 31 13.5t12 32.5q0 23 -16 35t-38 12h-66v-94zM374 186q16 14 16 36q0 21 -12 33.5t-33 15.5l-95 1v-100h84
q24 0 40 14z" />
    <glyph glyph-name="uni0413" unicode="&#x413;" horiz-adv-x="480" 
d="M250 506v-506h-200v700h430v-194h-230z" />
    <glyph glyph-name="uni0414" unicode="&#x414;" horiz-adv-x="715" 
d="M705 -134h-200v134h-300v-134h-200v328h74q42 76 42 212v294h509v-506h75v-328zM430 516h-109v-112q0 -129 -35 -210h144v322z" />
    <glyph glyph-name="uni0415" unicode="&#x415;" horiz-adv-x="540" 
d="M510 0h-460v700h455v-182h-255v-76h230v-180h-230v-78h260v-184z" />
    <glyph glyph-name="uni0416" unicode="&#x416;" horiz-adv-x="932" 
d="M566 298v-298h-200v298l-144 -298h-222l193 352l-183 348h222l134 -295v295h200v-295l134 295h222l-183 -348l193 -352h-222z" />
    <glyph glyph-name="uni0417" unicode="&#x417;" horiz-adv-x="561" 
d="M521.5 293q24.5 -41 24.5 -97q0 -62 -31.5 -110t-91.5 -75t-143 -27q-110 0 -178 44t-97 117l169 99q15 -34 40.5 -52t65.5 -18q66 0 66 48q0 21 -13.5 32t-36.5 13l-106 1v170l83 1q52 3 52 45q0 46 -61 46q-29 0 -53 -15.5t-35 -46.5l-166 97q30 72 101 111.5t158 39.5
q75 0 133.5 -26.5t90.5 -75t32 -111.5q0 -95 -73 -144q45 -25 69.5 -66z" />
    <glyph glyph-name="uni0418" unicode="&#x418;" horiz-adv-x="680" 
d="M210 0h-160v700h200v-320l220 320h160v-700h-200v320z" />
    <glyph glyph-name="uni0419" unicode="&#x419;" horiz-adv-x="680" 
d="M515 899v-150h-350v150h350zM210 0h-160v700h200v-320l220 320h160v-700h-200v320z" />
    <glyph glyph-name="uni041A" unicode="&#x41a;" horiz-adv-x="636" 
d="M250 300v-300h-200v700h200v-280l164 280h222l-208 -340l218 -360h-222z" />
    <glyph glyph-name="uni041B" unicode="&#x41b;" horiz-adv-x="660" 
d="M22 185q40 0 57 21.5t17 77.5v416h514v-700h-200v506h-114v-246q0 -141 -67.5 -202t-177.5 -61q-25 0 -51 3v186q8 -1 22 -1z" />
    <glyph glyph-name="uni041C" unicode="&#x41c;" horiz-adv-x="830" 
d="M580 0v341l-156 -262h-18l-156 262v-341h-200v700h200l165 -285l165 285h200v-700h-200z" />
    <glyph glyph-name="uni041D" unicode="&#x41d;" horiz-adv-x="670" 
d="M620 0h-200v258h-170v-258h-200v700h200v-248h170v248h200v-700z" />
    <glyph glyph-name="uni041E" unicode="&#x41e;" horiz-adv-x="792" 
d="M209 32.5q-85 48.5 -134.5 132t-49.5 185.5t49.5 185.5t134.5 132t187 48.5t187 -48.5t134.5 -132t49.5 -185.5t-49.5 -185.5t-134.5 -132t-187 -48.5t-187 48.5zM484 202q39 22 61 61t22 87t-22 87t-61 61t-88 22t-88 -22t-61 -61t-22 -87t22 -87t61 -61t88 -22t88 22z
" />
    <glyph glyph-name="uni041F" unicode="&#x41f;" horiz-adv-x="650" 
d="M400 0v506h-150v-506h-200v700h550v-700h-200z" />
    <glyph glyph-name="uni0420" unicode="&#x420;" horiz-adv-x="595" 
d="M459 669.5q58 -30.5 92 -87.5t34 -133t-34 -133t-92 -87.5t-129 -30.5h-80v-198h-200v700h280q71 0 129 -30.5zM369 407.5q16 15.5 16 41.5t-16 41.5t-39 15.5h-80v-114h80q23 0 39 15.5z" />
    <glyph glyph-name="uni0421" unicode="&#x421;" horiz-adv-x="718" 
d="M203.5 32q-83.5 48 -131 132t-47.5 186t47.5 186t131 132t187.5 48q97 0 179 -46t128 -124l-174 -100q-17 34 -53 54t-80 20q-49 0 -86.5 -22t-58.5 -61t-21 -87t21 -87t58.5 -61t86.5 -22q45 0 80.5 20t52.5 55l174 -100q-46 -79 -128 -125t-179 -46q-104 0 -187.5 48z
" />
    <glyph glyph-name="uni0422" unicode="&#x422;" horiz-adv-x="550" 
d="M375 506v-506h-200v506h-165v194h530v-194h-165z" />
    <glyph glyph-name="uni0423" unicode="&#x423;" horiz-adv-x="650" 
d="M448 226q-50 -117 -131.5 -174t-212.5 -52v186q9 -1 27 -1q70 0 111 36l-232 479h210l121 -266l99 266h210z" />
    <glyph glyph-name="uni0424" unicode="&#x424;" horiz-adv-x="844" 
d="M744 158q-80 -75 -227 -94v-84h-190v84q-147 19 -227 94t-80 192t80 192t227 94v84h190v-84q147 -19 227 -94t80 -192t-80 -192zM245 281.5q25 -24.5 82 -34.5v212q-57 -10 -82 -36.5t-25 -72.5q0 -44 25 -68.5zM599 281.5q25 24.5 25 68.5q0 46 -25 72.5t-82 36.5v-212
q57 10 82 34.5z" />
    <glyph glyph-name="uni0425" unicode="&#x425;" horiz-adv-x="645" 
d="M323 168l-101 -168h-222l212 354l-207 346h222l96 -160l95 160h222l-206 -346l211 -354h-222z" />
    <glyph glyph-name="uni0426" unicode="&#x426;" horiz-adv-x="715" 
d="M705 -134h-200v134h-455v700h210v-506h150v506h210v-506h85v-328z" />
    <glyph glyph-name="uni0427" unicode="&#x427;" horiz-adv-x="660" 
d="M610 0h-200v218q-58 -16 -119 -16q-117 0 -184 65.5t-67 182.5v250h200v-236q0 -32 20.5 -50t54.5 -18q49 0 95 13v291h200v-700z" />
    <glyph glyph-name="uni0428" unicode="&#x428;" horiz-adv-x="960" 
d="M910 0h-860v700h200v-506h130v506h200v-506h130v506h200v-700z" />
    <glyph glyph-name="uni0429" unicode="&#x429;" horiz-adv-x="1005" 
d="M995 -134h-200v134h-745v700h200v-506h130v506h200v-506h130v506h200v-506h85v-328z" />
    <glyph glyph-name="uni042A" unicode="&#x42a;" horiz-adv-x="705" 
d="M0 506v194l360 -1v-198h80q71 0 129 -30.5t92 -87.5t34 -133t-34 -133t-92 -87.5t-129 -30.5h-280v507h-160zM479 208.5q16 15.5 16 41.5t-16 41.5t-39 15.5h-80v-114h80q23 0 39 15.5z" />
    <glyph glyph-name="uni042B" unicode="&#x42b;" horiz-adv-x="890" 
d="M250 699v-198h80q71 0 129 -30.5t92 -87.5t34 -133t-34 -133t-92 -87.5t-129 -30.5h-280v700h200zM840 699v-700h-200v700h200zM369 208.5q16 15.5 16 41.5t-16 41.5t-39 15.5h-80v-114h80q23 0 39 15.5z" />
    <glyph glyph-name="uni042C" unicode="&#x42c;" horiz-adv-x="595" 
d="M459 471.5q58 -30.5 92 -87.5t34 -133t-34 -133t-92 -87.5t-129 -30.5h-280v700h200v-198h80q71 0 129 -30.5zM369 209.5q16 15.5 16 41.5t-16 41.5t-39 15.5h-80v-114h80q23 0 39 15.5z" />
    <glyph glyph-name="uni042D" unicode="&#x42d;" horiz-adv-x="718" 
d="M516.5 668q83.5 -48 130 -131.5t46.5 -186.5t-46.5 -186.5t-130 -131.5t-189.5 -48q-97 0 -179.5 46t-127.5 125l174 100q18 -37 54.5 -58.5t83.5 -21.5q51 0 88.5 22.5t57.5 62.5h-211v180h211q-20 40 -57.5 62.5t-88.5 22.5q-46 0 -83 -22t-55 -57l-174 100
q46 77 128.5 123.5t178.5 46.5q106 0 189.5 -48z" />
    <glyph glyph-name="uni042E" unicode="&#x42e;" horiz-adv-x="1077" 
d="M868 667.5q85 -48.5 134.5 -132t49.5 -185.5t-49.5 -185.5t-134.5 -132t-187 -48.5q-87 0 -160.5 35.5t-123.5 99t-68 144.5h-79v-263h-200v700h200v-243h85q21 76 70.5 134.5t120.5 91.5t155 33q102 0 187 -48.5zM769 202q39 22 61 61t22 87t-22 87t-61 61t-88 22
t-88 -22t-61 -61t-22 -87t22 -87t61 -61t88 -22t88 22z" />
    <glyph glyph-name="uni042F" unicode="&#x42f;" horiz-adv-x="635" 
d="M385 1v220h-25l-130 -220h-220l155 252q-58 29 -91.5 81.5t-33.5 120.5q0 74 34.5 130t95 86t135.5 30h280v-700h-200zM258.5 499.5q-18.5 -17.5 -18.5 -48.5t18.5 -48t50.5 -16h76v130h-76q-32 0 -50.5 -17.5z" />
    <glyph glyph-name="uni0430" unicode="&#x430;" horiz-adv-x="606" 
d="M566 0h-185v45q-48 -59 -134 -59q-67 0 -119 34.5t-81 94.5t-29 135t29 135t81 94.5t119 34.5q86 0 134 -59v45h185v-500zM356.5 183q24.5 27 24.5 67t-24.5 67t-64.5 27t-64.5 -27t-24.5 -67t24.5 -67t64.5 -27t64.5 27z" />
    <glyph glyph-name="uni0431" unicode="&#x431;" horiz-adv-x="572" 
d="M152.5 18q-63.5 34 -98 98t-34.5 150q0 125 43.5 202.5t134.5 121.5q71 34 105 53.5t53.5 38t30.5 44.5l149 -85q-16 -54 -54.5 -84.5t-118.5 -63.5q-71 -29 -100 -47.5t-43 -46.5q24 19 55.5 29t65.5 10q58 0 108.5 -26.5t81.5 -77t31 -116.5q0 -67 -32 -120t-91 -83.5
t-139 -30.5q-84 0 -147.5 34zM354 160.5q23 21.5 23 54.5q0 34 -24 56t-59 22q-33 0 -57.5 -20.5t-24.5 -54.5q0 -35 24 -57t60 -22q35 0 58 21.5z" />
    <glyph glyph-name="uni0432" unicode="&#x432;" horiz-adv-x="525" 
d="M491.5 211q18.5 -28 18.5 -65q0 -68 -45.5 -107t-134.5 -39h-290v500h275q89 0 134.5 -38.5t45.5 -106.5q0 -32 -15 -58t-43 -42q36 -16 54.5 -44zM220 309h61q16 0 25 8t9 22q0 32 -34 32h-61v-62zM324 161q0 14 -9 22t-25 8h-70v-62h70q34 0 34 32z" />
    <glyph glyph-name="uni0433" unicode="&#x433;" horiz-adv-x="420" 
d="M225 324v-324h-185v500h370v-176h-185z" />
    <glyph glyph-name="uni0434" unicode="&#x434;" 
d="M590 -134h-175v134h-240v-134h-175v310h56q18 30 27 69.5t9 97.5v157h433v-324h65v-310zM345 336h-73q-1 -95 -27 -160h100v160z" />
    <glyph glyph-name="uni0435" unicode="&#x435;" horiz-adv-x="560" 
d="M245 147.5q26 -10.5 62 -10.5q24 0 44 7t41 25l121 -102q-38 -41 -93.5 -61t-118.5 -20q-85 0 -149.5 34.5t-99 94t-34.5 133.5q0 75 34.5 135.5t95 95.5t136.5 35q75 0 134.5 -34.5t93 -94t33.5 -133.5q0 -33 -8 -65h-332q14 -29 40 -39.5zM289 366q-30 0 -53 -15
t-34 -45h168q-17 60 -81 60z" />
    <glyph glyph-name="uni0436" unicode="&#x436;" horiz-adv-x="789" 
d="M487 192v-192h-185v192l-100 -192h-202l144 250l-134 250h202l90 -187v187h185v-187l90 187h202l-134 -250l144 -250h-202z" />
    <glyph glyph-name="uni0437" unicode="&#x437;" horiz-adv-x="460" 
d="M425.5 207q19.5 -31 19.5 -71q0 -44 -27 -78.5t-76 -54t-113 -19.5q-80 0 -135.5 27.5t-88.5 93.5l139 81q13 -29 31 -41.5t46 -12.5q14 0 26 7t12 20q0 27 -34 27h-50v134h50q10 0 17.5 8t7.5 18q0 28 -39 28q-46 0 -62 -51l-139 74q38 63 90 90t131 27q56 0 101.5 -20
t71.5 -54t26 -75q0 -74 -62 -109q38 -18 57.5 -49z" />
    <glyph glyph-name="uni0438" unicode="&#x438;" horiz-adv-x="580" 
d="M540 0h-180v215l-171 -215h-149v500h180v-215l171 215h149v-500z" />
    <glyph glyph-name="uni0439" unicode="&#x439;" horiz-adv-x="580" 
d="M465 699v-150h-350v150h350zM540 0h-180v215l-171 -215h-149v500h180v-215l171 215h149v-500z" />
    <glyph glyph-name="uni043A" unicode="&#x43a;" horiz-adv-x="550" 
d="M225 200v-200h-185v500h185v-194l105 194h210l-152 -250l162 -250h-205z" />
    <glyph glyph-name="uni043B" unicode="&#x43b;" horiz-adv-x="582" 
d="M357 0v324h-90v-117q0 -108 -48 -159t-152 -51q-27 0 -57 3v170q12 -4 24 -4q48 0 48 81v253h460v-500h-185z" />
    <glyph glyph-name="uni043C" unicode="&#x43c;" horiz-adv-x="658" 
d="M438 0v220l-100 -155h-18l-100 155v-220h-180v500h180l109 -170l109 170h180v-500h-180z" />
    <glyph glyph-name="uni043D" unicode="&#x43d;" horiz-adv-x="570" 
d="M530 0h-185v162h-120v-162h-185v500h185v-162h120v162h185v-500z" />
    <glyph glyph-name="uni043E" unicode="&#x43e;" horiz-adv-x="574" 
d="M152 21q-62 35 -98 95t-36 134t36 134.5t97.5 95t135.5 34.5t135.5 -34.5t97.5 -95t36 -134.5t-36 -134.5t-97.5 -95t-135.5 -34.5q-73 0 -135 35zM347.5 186.5q23.5 24.5 23.5 63.5t-23.5 63.5t-60.5 24.5t-60.5 -24.5t-23.5 -63.5t23.5 -63.5t60.5 -24.5t60.5 24.5z
" />
    <glyph glyph-name="uni043F" unicode="&#x43f;" horiz-adv-x="570" 
d="M345 0v324h-120v-324h-185v500h490v-500h-185z" />
    <glyph glyph-name="uni0440" unicode="&#x440;" horiz-adv-x="606" 
d="M478 479.5q52 -34.5 81 -94.5t29 -135t-29 -135t-81 -94.5t-119 -34.5q-86 0 -134 59v-245h-185v700h185v-45q48 59 134 59q67 0 119 -34.5zM378.5 183q24.5 27 24.5 67t-24.5 67t-64.5 27t-64.5 -27t-24.5 -67t24.5 -67t64.5 -27t64.5 27z" />
    <glyph glyph-name="uni0441" unicode="&#x441;" horiz-adv-x="525" 
d="M149 20.5q-61 34.5 -96 95t-35 134.5t35 134.5t96 95t136 34.5q74 0 135.5 -35.5t94.5 -95.5l-156 -89q-11 19 -30.5 30.5t-43.5 11.5q-35 0 -58.5 -24.5t-23.5 -61.5t23.5 -61.5t58.5 -24.5q24 0 44 12t30 31l156 -90q-33 -61 -94.5 -96t-135.5 -35q-75 0 -136 34.5z
" />
    <glyph glyph-name="uni0442" unicode="&#x442;" horiz-adv-x="470" 
d="M329 324v-324h-186v324h-138v176h460v-176h-136z" />
    <glyph glyph-name="uni0443" unicode="&#x443;" horiz-adv-x="570" 
d="M404 15q-39 -115 -123.5 -167.5t-201.5 -47.5v175q51 0 78 7.5t43 27.5l-200 490h210l89 -267l61 267h210z" />
    <glyph glyph-name="uni0444" unicode="&#x444;" horiz-adv-x="730" 
d="M647.5 79q-64.5 -70 -192.5 -89v-190h-180v190q-128 19 -192.5 89t-64.5 171q0 100 64.5 169.5t192.5 88.5v192h180v-192q128 -19 192.5 -88.5t64.5 -169.5q0 -101 -64.5 -171zM275 164v172q-73 -20 -73 -86t73 -86zM528 250q0 66 -73 86v-172q73 20 73 86z" />
    <glyph glyph-name="uni0445" unicode="&#x445;" horiz-adv-x="570" 
d="M285 112l-80 -112h-205l183 256l-175 244h205l72 -101l72 101h205l-174 -244l182 -256h-205z" />
    <glyph glyph-name="uni0446" unicode="&#x446;" horiz-adv-x="615" 
d="M605 -134h-175v134h-390v500h185v-324h110v324h185v-324h85v-310z" />
    <glyph glyph-name="uni0447" unicode="&#x447;" horiz-adv-x="540" 
d="M500 0h-185v130q-46 -11 -90 -11q-91 0 -148 50.5t-57 140.5v190h185v-150q0 -61 65 -61q24 0 45 6v205h185v-500z" />
    <glyph glyph-name="uni0448" unicode="&#x448;" horiz-adv-x="830" 
d="M790 0h-750v500h185v-324h100v324h180v-324h100v324h185v-500z" />
    <glyph glyph-name="uni0449" unicode="&#x449;" horiz-adv-x="875" 
d="M865 -134h-175v134h-650v500h185v-324h95v324h180v-324h95v324h185v-324h85v-310z" />
    <glyph glyph-name="uni044A" unicode="&#x44a;" horiz-adv-x="580" 
d="M517.5 320.5q52.5 -49.5 52.5 -135.5t-52.5 -135.5t-143.5 -49.5h-264v324h-110v176h295v-130h79q91 0 143.5 -49.5zM379.5 159q10.5 9 10.5 26t-10.5 26t-28.5 9h-56v-70h56q18 0 28.5 9z" />
    <glyph glyph-name="uni044B" unicode="&#x44b;" horiz-adv-x="755" 
d="M447.5 320.5q52.5 -49.5 52.5 -135.5t-52.5 -135.5t-143.5 -49.5h-264v500h185v-130h79q91 0 143.5 -49.5zM715 0h-185v500h185v-500zM309.5 159q10.5 9 10.5 26t-10.5 26t-28.5 9h-56v-70h56q18 0 28.5 9z" />
    <glyph glyph-name="uni044C" unicode="&#x44c;" horiz-adv-x="510" 
d="M447.5 320.5q52.5 -49.5 52.5 -135.5t-52.5 -135.5t-143.5 -49.5h-264v500h185v-130h79q91 0 143.5 -49.5zM309.5 159q10.5 9 10.5 26t-10.5 26t-28.5 9h-56v-70h56q18 0 28.5 9z" />
    <glyph glyph-name="uni044D" unicode="&#x44d;" horiz-adv-x="520" 
d="M373.5 479.5q60.5 -34.5 94.5 -95t34 -134.5t-34 -134.5t-94.5 -95t-138.5 -34.5q-74 0 -135.5 35t-94.5 96l146 84q5 -27 28 -42.5t61 -15.5q54 0 81 37h-130v140h130q-27 37 -81 37q-36 0 -58.5 -16.5t-29.5 -40.5l-147 83q33 60 95 95.5t135 35.5q78 0 138.5 -34.5z
" />
    <glyph glyph-name="uni044E" unicode="&#x44e;" horiz-adv-x="798" 
d="M646.5 479.5q61.5 -34.5 97.5 -95t36 -134.5t-36 -134.5t-97.5 -95t-135.5 -34.5q-87 0 -153 48.5t-92 127.5h-41v-162h-185v500h185v-162h40q26 79 92 127.5t154 48.5q74 0 135.5 -34.5zM571.5 186.5q23.5 24.5 23.5 63.5t-23.5 63.5t-60.5 24.5t-60.5 -24.5
t-23.5 -63.5t23.5 -63.5t60.5 -24.5t60.5 24.5z" />
    <glyph glyph-name="uni044F" unicode="&#x44f;" horiz-adv-x="541" 
d="M316 0v140h-13l-88 -140h-210l117 170q-38 24 -59.5 62t-21.5 83q0 86 52.5 135.5t143.5 49.5h264v-500h-185zM231.5 341q-10.5 -9 -10.5 -26t10.5 -26t28.5 -9h56v70h-56q-18 0 -28.5 -9z" />
    <glyph glyph-name="uni0451" unicode="&#x451;" horiz-adv-x="560" 
d="M130 565q-25 25 -25 60t25 60t60 25t60 -25t25 -60t-25 -60t-60 -25t-60 25zM330 565q-25 25 -25 60t25 60t60 25t60 -25t25 -60t-25 -60t-60 -25t-60 25zM245 147.5q26 -10.5 62 -10.5q24 0 44 7t41 25l121 -102q-38 -41 -93.5 -61t-118.5 -20q-85 0 -149.5 34.5t-99 94
t-34.5 133.5q0 75 34.5 135.5t95 95.5t136.5 35q75 0 134.5 -34.5t93 -94t33.5 -133.5q0 -33 -8 -65h-332q14 -29 40 -39.5zM289 366q-30 0 -53 -15t-34 -45h168q-17 60 -81 60z" />
    <glyph glyph-name="uni0452" unicode="&#x452;" horiz-adv-x="590" 
d="M505.5 432.5q49.5 -56.5 49.5 -168.5v-264q0 -112 -54 -164.5t-167 -52.5q-19 0 -29 1v166q34 -3 49.5 9t15.5 41v244q0 33 -16.5 50t-45.5 17q-33 0 -50.5 -21t-17.5 -58v-232h-185v531h-55v119h55v50h185v-50h130v-119h-130v-105q46 63 134 63q82 0 131.5 -56.5z" />
    <glyph glyph-name="uni0453" unicode="&#x453;" horiz-adv-x="420" 
d="M86 550l80 150h210l-116 -150h-174zM225 324v-324h-185v500h370v-176h-185z" />
    <glyph glyph-name="uni0454" unicode="&#x454;" horiz-adv-x="520" 
d="M341 158.5q23 15.5 28 42.5l146 -84q-33 -61 -94.5 -96t-135.5 -35q-78 0 -138.5 34.5t-94.5 95t-34 134.5t34 134.5t94.5 95t138.5 34.5q73 0 135 -35.5t95 -95.5l-147 -83q-7 24 -29.5 40.5t-58.5 16.5q-54 0 -81 -37h130v-140h-130q27 -37 81 -37q38 0 61 15.5z" />
    <glyph glyph-name="uni0455" unicode="&#x455;" horiz-adv-x="484" 
d="M235 335q16 -6 50 -12q53 -10 90.5 -23.5t65.5 -47.5t28 -93q0 -63 -34.5 -102t-85.5 -55t-105 -16q-88 0 -146.5 27.5t-87.5 91.5l161 72q19 -51 71 -51q16 0 25 6t9 16q0 12 -15.5 18.5t-50.5 14.5q-50 11 -86 25.5t-62.5 47.5t-26.5 88t30 94t77.5 58.5t99.5 19.5
q79 0 133.5 -29t83.5 -98l-153 -55q-18 42 -56 42q-15 0 -23 -5.5t-8 -15.5q0 -12 16 -18z" />
    <glyph glyph-name="uni0456" unicode="&#x456;" horiz-adv-x="265" 
d="M60.5 568.5q-30.5 30.5 -30.5 71.5t30.5 71.5t72.5 30.5q41 0 71.5 -30.5t30.5 -71.5t-30.5 -71.5t-71.5 -30.5q-42 0 -72.5 30.5zM225 500v-500h-185v500h185z" />
    <glyph glyph-name="uni0457" unicode="&#x457;" horiz-adv-x="265" 
d="M-29 555q-25 25 -25 60t25 60t60 25t60 -25t25 -60t-25 -60t-60 -25t-60 25zM171 555q-25 25 -25 60t25 60t60 25t60 -25t25 -60t-25 -60t-60 -25t-60 25zM225 500v-500h-185v500h185z" />
    <glyph glyph-name="uni0458" unicode="&#x458;" horiz-adv-x="280" 
d="M75.5 568.5q-30.5 30.5 -30.5 71.5t30.5 71.5t72.5 30.5q41 0 71.5 -30.5t30.5 -71.5t-30.5 -71.5t-71.5 -30.5q-42 0 -72.5 30.5zM240 500v-500q0 -112 -54 -164.5t-167 -52.5q-19 0 -29 1v166q34 -3 49.5 9t15.5 41v500h185z" />
    <glyph glyph-name="uni0459" unicode="&#x459;" horiz-adv-x="802" 
d="M699.5 338.5q42.5 -21.5 67.5 -62t25 -96.5t-25 -96.5t-67.5 -62t-93.5 -21.5h-254v324h-85v-117q0 -113 -52 -164.5t-167 -51.5q-25 0 -38 1v170q5 -1 14 -1q30 0 44 20.5t14 65.5v253h455v-140h69q51 0 93.5 -21.5zM603.5 158.5q8.5 8.5 8.5 21.5t-8.5 21.5t-20.5 8.5
h-46v-60h46q12 0 20.5 8.5z" />
    <glyph glyph-name="uni045A" unicode="&#x45a;" horiz-adv-x="775" 
d="M672.5 338.5q42.5 -21.5 67.5 -62t25 -96.5t-25 -96.5t-67.5 -62t-93.5 -21.5h-254v194h-110v-194h-185v500h185v-140h110v140h185v-140h69q51 0 93.5 -21.5zM576.5 158.5q8.5 8.5 8.5 21.5t-8.5 21.5t-20.5 8.5h-46v-60h46q12 0 20.5 8.5z" />
    <glyph glyph-name="uni045B" unicode="&#x45b;" horiz-adv-x="590" 
d="M505.5 432.5q49.5 -56.5 49.5 -168.5v-264h-185v244q0 33 -16.5 50t-45.5 17q-33 0 -50.5 -21t-17.5 -58v-232h-185v526h-55v119h55v55h185v-55h130v-119h-130v-100q46 63 134 63q82 0 131.5 -56.5z" />
    <glyph glyph-name="uni045C" unicode="&#x45c;" horiz-adv-x="550" 
d="M146 550l80 150h210l-116 -150h-174zM225 200v-200h-185v500h185v-194l105 194h210l-152 -250l162 -250h-205z" />
    <glyph glyph-name="uni045E" unicode="&#x45e;" horiz-adv-x="570" 
d="M116 549v150h350v-150h-350zM404 15q-39 -115 -123.5 -167.5t-201.5 -47.5v175q51 0 78 7.5t43 27.5l-200 490h210l89 -267l61 267h210z" />
    <glyph glyph-name="uni045F" unicode="&#x45f;" horiz-adv-x="570" 
d="M530 0h-157v-134h-175v134h-158v500h185v-324h120v324h185v-500z" />
    <glyph glyph-name="uni0490" unicode="&#x490;" horiz-adv-x="480" 
d="M480 506h-230v-506h-200v700h230v120h200v-314z" />
    <glyph glyph-name="uni0491" unicode="&#x491;" horiz-adv-x="420" 
d="M410 324h-185v-324h-185v500h195v104h175v-280z" />
    <glyph glyph-name="uni10D0" unicode="&#x10d0;" horiz-adv-x="574" 
d="M208 244q0 -39 20 -62.5t54 -23.5t54 23.5t20 62.5v56q0 39 -11 67.5t-28 47.5t-45 44q-31 28 -50.5 50.5t-32.5 58t-13 85.5v47h188v-31q0 -32 16.5 -55t51.5 -55q36 -33 58 -59.5t38 -69t16 -101.5v-97q0 -74 -32.5 -130t-92 -87t-137.5 -31t-137.5 31t-92 87
t-32.5 130v91h188v-79z" />
    <glyph glyph-name="uni10D1" unicode="&#x10d1;" horiz-adv-x="584" 
d="M514.5 372q44.5 -61 44.5 -147q0 -72 -33 -126.5t-93.5 -84.5t-140.5 -30t-140.5 30t-93.5 84.5t-33 126.5q0 93 49 155t136 78v45q0 28 -10 44t-31 35q-22 21 -33 39.5t-11 51.5v27h182v-14q0 -16 8.5 -28t26.5 -30q25 -24 38 -45t13 -55v-75q77 -20 121.5 -81z
M350 178.5q22 20.5 22 53.5t-22 53t-58 20t-58 -20t-22 -53t22 -53.5t58 -20.5t58 20.5z" />
    <glyph glyph-name="uni10D2" unicode="&#x10d2;" horiz-adv-x="580" 
d="M521.5 350q33.5 -52 33.5 -124q0 -71 -33.5 -126t-94 -85.5t-137.5 -30.5t-137.5 30.5t-94 85.5t-33.5 126q0 97 66.5 161t178.5 75q29 3 44.5 16.5t15.5 35.5q0 20 -13 31.5t-36 11.5q-20 0 -34 -13t-14 -32v-2h-184v5q0 59 30 105t83.5 71t123.5 25q107 0 169 -47
t62 -127q0 -43 -23 -74t-66 -47q60 -19 93.5 -71zM346.5 176.5q21.5 18.5 21.5 49.5q0 30 -21.5 48.5t-56.5 18.5t-56.5 -18.5t-21.5 -48.5q0 -31 21.5 -49.5t56.5 -18.5t56.5 18.5z" />
    <glyph glyph-name="uni10D3" unicode="&#x10d3;" horiz-adv-x="594" 
d="M227 273v-51l104 -25q101 -25 149 -72t50 -125h-189q-6 20 -27.5 36t-54.5 24l-76 18q-79 19 -111 61.5t-32 127.5v200q0 75 32.5 131.5t92 87t139.5 30.5t140 -29.5t92.5 -84.5t32.5 -128q0 -98 -60 -149.5t-175 -51.5h-107zM227 427h81q34 0 54 15.5t20 41.5
q0 25 -22 41.5t-56 16.5q-36 0 -56.5 -20.5t-20.5 -56.5v-38z" />
    <glyph glyph-name="uni10D4" unicode="&#x10d4;" horiz-adv-x="594" 
d="M485 652.5q69 -63.5 69 -173.5v-247q0 -74 -32.5 -130t-92 -87t-137.5 -31t-137.5 31t-92 87t-32.5 130v70h188v-58q0 -39 20 -62.5t54 -23.5t54 23.5t20 62.5v212q0 41 -18 63.5t-51 22.5t-51 -22.5t-18 -63.5v-27h-188v50q0 70 32 124t90.5 83.5t134.5 29.5
q119 0 188 -63.5z" />
    <glyph glyph-name="uni10D5" unicode="&#x10d5;" horiz-adv-x="584" 
d="M494.5 331.5q29.5 -22.5 47 -59t17.5 -78.5q0 -98 -72.5 -154t-199.5 -56q-77 0 -136.5 30t-92.5 83.5t-33 123.5v40h187v-21q0 -38 21.5 -60t58.5 -22q36 0 58 16.5t22 42.5q0 31 -18.5 48t-52.5 17h-27v153h20q26 0 41 13.5t15 35.5q0 26 -15.5 42t-42.5 16
q-32 0 -50.5 -20.5t-18.5 -55.5v-7h-188v30q0 66 32.5 117.5t91 80.5t133.5 29q114 0 180.5 -57.5t66.5 -156.5q0 -53 -26 -87.5t-84 -58.5q36 -2 65.5 -24.5z" />
    <glyph glyph-name="uni10D6" unicode="&#x10d6;" horiz-adv-x="727" 
d="M644 385.5q58 -60.5 58 -159.5q0 -70 -33 -125t-92.5 -86t-134.5 -31q-78 0 -136.5 30.5t-90.5 87t-32 131.5v76q-75 10 -116.5 61.5t-41.5 131.5q0 62 29.5 110.5t82 76t119.5 27.5q69 0 121 -27t80 -77t28 -116v-46q101 -4 159 -64.5zM214 540.5q-16 -14.5 -16 -38.5
t16 -38.5t42 -14.5h57v40q0 30 -15.5 48t-41.5 18t-42 -14.5zM494 177q20 19 20 49q0 29 -20.5 48t-51.5 19h-71v-50q0 -38 19.5 -61.5t51.5 -23.5t52 19z" />
    <glyph glyph-name="uni10D7" unicode="&#x10d7;" horiz-adv-x="920" 
d="M776.5 686.5q49.5 -29.5 76.5 -83.5t27 -124v-479h-187v466q0 36 -17 56t-48 20q-30 0 -47 -20t-17 -56v-234q0 -74 -32.5 -130t-92 -87t-137.5 -31t-137.5 31t-92 87t-32.5 130v236q0 74 30 130.5t84.5 87t126.5 30.5q73 0 121.5 -28.5t68.5 -82.5q17 57 70.5 84
t121.5 27q64 0 113.5 -29.5zM376 456q0 39 -20 62.5t-54 23.5t-54.5 -23.5t-20.5 -62.5v-212q0 -39 20.5 -62.5t54.5 -23.5t54 23.5t20 62.5v212z" />
    <glyph glyph-name="uni10D8" unicode="&#x10d8;" horiz-adv-x="604" 
d="M376 456q0 39 -20 62.5t-54 23.5t-54 -23.5t-20 -62.5v-456h-188v468q0 74 32.5 130t92 87t137.5 31t137.5 -31t92 -87t32.5 -130v-468h-188v456z" />
    <glyph glyph-name="uni10D9" unicode="&#x10d9;" horiz-adv-x="590" 
d="M516.5 323.5q35.5 -50.5 35.5 -122.5q0 -103 -72 -160t-200 -57q-77 0 -136.5 30t-92.5 83.5t-33 123.5v40h187v-21q0 -39 21 -60.5t59 -21.5q39 0 59.5 20t20.5 58q0 33 -19.5 51.5t-52.5 18.5h-41v153h24q30 0 48.5 19t18.5 50q0 25 -10 47.5t-33 47.5l146 91
q46 -37 66.5 -80.5t20.5 -102.5q0 -50 -30 -90.5t-79 -58.5q57 -8 92.5 -58.5z" />
    <glyph glyph-name="uni10DA" unicode="&#x10da;" horiz-adv-x="604" 
d="M383 458q0 40 -20.5 63.5t-55.5 23.5t-55.5 -23.5t-20.5 -63.5v-202l86 -25q104 -29 152.5 -86t49.5 -152h-192q-7 34 -32.5 56t-71.5 34l-72 20q-53 15 -82 55t-29 98v214q0 75 33 132.5t93.5 89t140.5 31.5t140.5 -31.5t93.5 -89t33 -132.5v-144h-191v132z" />
    <glyph glyph-name="uni10DB" unicode="&#x10db;" horiz-adv-x="596" 
d="M444 694.5q58 -29.5 90 -82.5t32 -123v-259q0 -77 -33.5 -134.5t-94.5 -88.5t-142 -31q-79 0 -140.5 31.5t-96 87.5t-34.5 128q0 110 70 173t192 63h87v39q0 28 -19 44.5t-51 16.5q-27 0 -45 -12.5t-21 -33.5h-197q2 71 39.5 118.5t98 70t131.5 22.5q76 0 134 -29.5z
M374 292h-78q-36 0 -57.5 -19t-21.5 -50t21.5 -50t57.5 -19t57 23.5t21 63.5v51z" />
    <glyph glyph-name="uni10DC" unicode="&#x10dc;" horiz-adv-x="612" 
d="M519 700v-165h-205q-87 0 -87 -49v-29h86q119 0 187.5 -61.5t68.5 -169.5q0 -71 -33.5 -126t-94 -85.5t-137.5 -30.5q-80 0 -139.5 30.5t-92 87t-32.5 131.5v254q0 104 60 158.5t175 54.5h244zM247.5 181q20.5 -23 56.5 -23q35 0 56.5 18.5t21.5 49.5t-21.5 49t-56.5 18
h-77v-50q0 -39 20.5 -62z" />
    <glyph glyph-name="uni10DD" unicode="&#x10dd;" horiz-adv-x="900" 
d="M752.5 685.5q50.5 -30.5 79 -85t28.5 -122.5v-478h-188v466q0 36 -16.5 56t-47.5 20t-47.5 -20t-16.5 -56v-323h-188v323q0 36 -16.5 56t-47.5 20t-47.5 -20t-16.5 -56v-466h-188v478q0 68 28.5 122.5t79 85t113.5 30.5q74 0 123 -28.5t66 -83.5q17 55 66 83.5t123 28.5
q63 0 113.5 -30.5z" />
    <glyph glyph-name="uni10DE" unicode="&#x10de;" horiz-adv-x="579" 
d="M489 333.5q30 -22.5 47.5 -59.5t17.5 -80q0 -98 -72.5 -154t-199.5 -56q-77 0 -136.5 30t-92.5 84t-33 124v30h187v-12q0 -38 21.5 -60t58.5 -22q36 0 58 16.5t22 43.5q0 28 -19 44t-52 16h-27v157h27q49 0 49 35q0 20 -14.5 30t-47.5 23q-36 13 -59.5 27t-41 44.5
t-17.5 80.5v25h187v-4q0 -18 14.5 -30t48.5 -29q36 -18 59.5 -35t41 -46.5t17.5 -73.5q0 -51 -27 -81t-83 -43q36 -2 66 -24.5z" />
    <glyph glyph-name="uni10DF" unicode="&#x10df;" horiz-adv-x="614" 
d="M574 700v-468q0 -74 -32.5 -130t-92 -87t-137.5 -31q-77 0 -136.5 30t-92.5 84t-33 124v19h188v-7q0 -33 20.5 -54.5t53.5 -21.5q34 0 54.5 23.5t20.5 62.5v309l-128 -22l-2 -15q34 -10 54.5 -39.5t20.5 -67.5q0 -53 -44 -86.5t-114 -33.5q-104 0 -149 71l82 79
q25 -20 50 -20q16 0 26 8t10 20q0 14 -11.5 25.5t-32.5 18.5l-49 17v142l280 50h194z" />
    <glyph glyph-name="uni10E0" unicode="&#x10e0;" horiz-adv-x="880" 
d="M744.5 443q50.5 -28 78 -78.5t27.5 -116.5v-248h-188v221q0 36 -16.5 56t-47.5 20t-47.5 -20t-16.5 -56v-139h-188v139q0 36 -16.5 56t-47.5 20t-47.5 -20t-16.5 -56v-221h-188v395q0 90 41.5 159t115.5 107.5t170 38.5h356v-165h-388q-52 0 -86.5 -27.5t-30.5 -67.5
q17 31 86 31q50 0 91 -31t55 -82q16 56 65 84.5t124 28.5q65 0 115.5 -28z" />
    <glyph glyph-name="uni10E1" unicode="&#x10e1;" horiz-adv-x="589" 
d="M468 471q53 -50 74.5 -100.5t21.5 -123.5q0 -80 -32 -139.5t-91 -91.5t-139 -32q-78 0 -137.5 31t-92 87t-32.5 130v468h188v-456q0 -39 20 -62.5t54 -23.5q35 0 54.5 25t19.5 70q0 65 -44 118z" />
    <glyph glyph-name="uni10E2" unicode="&#x10e2;" horiz-adv-x="790" 
d="M623.5 619q66.5 -48 104 -121t37.5 -156q0 -101 -48.5 -183t-133 -128.5t-188.5 -46.5t-188.5 46.5t-133 128.5t-48.5 183q0 87 37 159.5t103 119t151 57.5l-5 38h169l-6 -38q83 -11 149.5 -59zM528.5 210q49.5 52 49.5 141q0 71 -27 114t-76 53l6 -230h-171l5 230
q-50 -10 -76.5 -53t-26.5 -114q0 -89 49.5 -141t133.5 -52t133.5 52z" />
    <glyph glyph-name="uni10E3" unicode="&#x10e3;" 
d="M514 664q44 -52 44 -147v-284q0 -74 -33 -130.5t-92.5 -87.5t-137.5 -31t-137.5 31t-92 87t-32.5 130v70h188v-58q0 -39 20 -62.5t54 -23.5t54.5 23.5t20.5 62.5v262q0 45 -38 45q-17 0 -27 -12t-10 -33v-113h-170v118q0 40 -37 40q-7 0 -12.5 -1t-9.5 -2q-18 -4 -28 -4
q-26 0 -42 19l36 150q12 -3 25 -3q15 0 33 3q39 3 44 3q47 0 70.5 -24t37.5 -87q4 60 48 85.5t99 25.5q81 0 125 -52z" />
    <glyph glyph-name="uni10E4" unicode="&#x10e4;" horiz-adv-x="816" 
d="M737.5 303q32.5 -43 32.5 -109q0 -101 -78.5 -155.5t-224.5 -54.5q-142 0 -216.5 56t-76.5 164h189q6 -27 34 -41.5t75 -14.5q52 0 81 19.5t29 54.5q0 25 -14 40t-38 15h4v158h13q24 0 39.5 13.5t15.5 36.5q0 26 -15 41.5t-40 15.5q-27 0 -42.5 -16t-15.5 -43v-26
q0 -92 -61.5 -146t-165.5 -54q-68 0 -122 29t-84.5 80.5t-30.5 116.5q0 67 27.5 120t77 83t112.5 30q58 0 99.5 -22t65.5 -80q32 102 177 102q59 0 105.5 -24.5t73.5 -68t28 -98.5q0 -69 -35 -112t-106 -63q55 -4 87.5 -47zM304.5 435.5q16.5 18.5 16.5 47.5
q0 28 -16.5 46.5t-42.5 18.5q-27 0 -43 -18t-16 -47t16 -47.5t43 -18.5q26 0 42.5 18.5z" />
    <glyph glyph-name="uni10E5" unicode="&#x10e5;" 
d="M557 700v-468q0 -74 -32.5 -130t-92 -87t-137.5 -31t-137.5 31t-92 87t-32.5 130v70h188v-58q0 -39 20 -62.5t54 -23.5t54 23.5t20 62.5v205h-80q-51 0 -79 -43l-157 85q31 67 80.5 97.5t126.5 30.5h109v81h188z" />
    <glyph glyph-name="uni10E6" unicode="&#x10e6;" horiz-adv-x="901" 
d="M437.5 41.5q-31.5 21.5 -81.5 32.5l-154 30q-82 16 -122 68.5t-40 145.5v163q0 69 29 124.5t80 86.5t116 31q76 0 125.5 -29t67.5 -85q18 56 67.5 85t125.5 29q65 0 116 -31t80 -86.5t29 -124.5v-197h-191v184q0 37 -17 57t-49 20q-31 0 -48 -20t-17 -57v-142h-192v142
q0 37 -17 57t-48 20t-48.5 -20t-17.5 -57v-197l202 -47q118 -27 174 -83t58 -148h-192q-4 27 -35.5 48.5z" />
    <glyph glyph-name="uni10E7" unicode="&#x10e7;" horiz-adv-x="607" 
d="M40 700h197v-94q0 -45 16.5 -62.5t59.5 -17.5h66v174h188v-489q0 -68 -32.5 -119.5t-91.5 -79.5t-138 -28q-78 0 -137.5 29t-92 81.5t-32.5 121.5v63h188v-51q0 -36 20.5 -58t53.5 -22q35 0 54.5 21t19.5 59v123h-109q-112 0 -171 60t-59 174v115z" />
    <glyph glyph-name="uni10E8" unicode="&#x10e8;" 
d="M514 664q44 -52 44 -147v-284q0 -75 -32.5 -131.5t-92.5 -87t-140 -30.5q-77 0 -137.5 30.5t-94 85.5t-33.5 126q0 106 66.5 163.5t189.5 57.5h86v63q0 41 -39 41q-36 0 -36 -41v-15h-153v13q0 19 -12 31t-31 12q-22 0 -42 -14l-68 144q21 16 51.5 25.5t59.5 9.5
q61 0 94.5 -25.5t44.5 -80.5q5 49 46 77.5t104 28.5q81 0 125 -52zM370 293h-77q-35 0 -56 -18.5t-21 -48.5q0 -31 21 -49.5t56 -18.5q36 0 56.5 23t20.5 62v50z" />
    <glyph glyph-name="uni10E9" unicode="&#x10e9;" horiz-adv-x="589" 
d="M516.5 334q32.5 -47 32.5 -130v-204h-188v221q0 31 -21 49.5t-56 18.5h-56v-289h-188v489q0 106 65 166.5t179 60.5q72 0 122.5 -25.5t76 -66t25.5 -84.5q0 -54 -23.5 -91t-67.5 -53q67 -15 99.5 -62zM223 453h56q26 2 37.5 14t11.5 39q0 23 -15 37.5t-38 14.5
q-24 0 -38 -14t-14 -38v-53z" />
    <glyph glyph-name="uni10EA" unicode="&#x10ea;" horiz-adv-x="693" 
d="M621.5 83q-46.5 -52 -118.5 -75.5t-149 -23.5q-110 0 -180.5 40.5t-102 107t-31.5 147.5v421h188v-401q0 -68 32.5 -104.5t93.5 -36.5t93.5 19.5t32.5 56.5q0 28 -19 44t-53 16h-46v157h48q49 0 49 35q0 21 -11.5 34.5t-35.5 30.5q-23 17 -37 30.5t-24.5 36.5t-10.5 57
v25h187v-4q0 -24 13 -40t40 -37q32 -24 49.5 -47t17.5 -60q0 -55 -27 -85.5t-83 -41.5q65 -18 98 -61t33 -108q0 -81 -46.5 -133z" />
    <glyph glyph-name="uni10EB" unicode="&#x10eb;" horiz-adv-x="597" 
d="M557 233q0 -75 -32.5 -131.5t-92 -87t-139.5 -30.5q-77 0 -137.5 30.5t-94 85.5t-33.5 126q0 108 68.5 169.5t187.5 61.5h86v243h187v-467zM370 293h-77q-35 0 -56.5 -18t-21.5 -49t21.5 -49.5t56.5 -18.5q36 0 56.5 23t20.5 62v50z" />
    <glyph glyph-name="uni10EC" unicode="&#x10ec;" 
d="M315.5 688q40.5 -28 45.5 -78q12 60 46.5 83t83.5 23q51 0 90 -33l-38 -142q-22 10 -41 10q-20 0 -32 -12t-12 -31v-13h-153v15q0 41 -36 41q-39 0 -39 -41v-63h86q123 0 189.5 -57.5t66.5 -163.5q0 -71 -33.5 -126t-94 -85.5t-137.5 -30.5q-80 0 -139.5 30.5t-92 87
t-32.5 131.5v284q0 95 43.5 147t124.5 52q64 0 104.5 -28zM250.5 181q20.5 -23 56.5 -23q35 0 56 18.5t21 49.5q0 30 -21 48.5t-56 18.5h-77v-50q0 -39 20.5 -62z" />
    <glyph glyph-name="uni10ED" unicode="&#x10ed;" horiz-adv-x="650" 
d="M639 493h-78v-284q0 -69 -32.5 -121.5t-90.5 -81.5t-134 -29q-107 0 -175 37t-95 109l169 73q15 -27 37 -39.5t54 -12.5q76 0 76 81v42h-153q-98 0 -151 48.5t-53 138.5q0 46 23.5 87t76 67.5t134.5 26.5h123v72h191v-72h78v-142zM374 493h-93q-67 0 -67 -39t67 -39h93
v78z" />
    <glyph glyph-name="uni10EE" unicode="&#x10ee;" horiz-adv-x="594" 
d="M227 457h86q119 0 187.5 -61.5t68.5 -169.5q0 -71 -33.5 -126t-94 -85.5t-137.5 -30.5q-80 0 -139.5 30.5t-92 87t-32.5 131.5v467h187v-243zM247.5 181q20.5 -23 56.5 -23q35 0 56.5 18.5t21.5 49.5t-21.5 49t-56.5 18h-77v-50q0 -39 20.5 -62z" />
    <glyph glyph-name="uni10EF" unicode="&#x10ef;" 
d="M517.5 354.5q44.5 -51.5 44.5 -142.5q0 -110 -70 -169t-202 -59q-77 0 -136.5 28t-92.5 78.5t-33 115.5v34h187v-15q0 -31 21 -49t59 -18q39 0 59.5 17.5t20.5 51.5q0 33 -19.5 51.5t-52.5 18.5h-98v179h-157v158h157v66h178v-66h159v-158h-159v-54q90 -16 134.5 -67.5z
" />
    <glyph glyph-name="uni10F0" unicode="&#x10f0;" horiz-adv-x="568" 
d="M509.5 67.5q-33.5 -39.5 -93 -61.5t-134.5 -22q-126 0 -193 50t-69 147h189q2 -20 20.5 -31.5t47.5 -11.5q34 0 53 11.5t19 31.5q0 17 -16 26.5t-47 9.5h-27v126h44q18 0 30 5t12 23q0 29 -42 29h-44v127h37q20 0 29.5 5.5t9.5 18.5q0 12 -10.5 18t-32.5 13
q-29 9 -47.5 19.5t-33.5 34t-16 64.5h191q9 -15 23 -23.5t37 -18.5q25 -11 40.5 -21t26 -30t10.5 -54q0 -35 -25 -57.5t-78 -35.5q52 -3 81.5 -27.5t29.5 -62.5q0 -40 -22.5 -62t-78.5 -32q48 -3 80.5 -37.5t32.5 -81.5q0 -50 -33.5 -89.5z" />
    <glyph glyph-name="uni10F1" unicode="&#x10f1;" 
 />
    <glyph glyph-name="uni10F2" unicode="&#x10f2;" 
 />
    <glyph glyph-name="uni10F3" unicode="&#x10f3;" 
 />
    <glyph glyph-name="uni10F4" unicode="&#x10f4;" 
 />
    <glyph glyph-name="uni10F5" unicode="&#x10f5;" 
 />
    <glyph glyph-name="uni10F6" unicode="&#x10f6;" 
 />
    <glyph glyph-name="uni10F7" unicode="&#x10f7;" 
 />
    <glyph glyph-name="uni10F8" unicode="&#x10f8;" 
 />
    <glyph glyph-name="uni10F9" unicode="&#x10f9;" 
 />
    <glyph glyph-name="uni10FA" unicode="&#x10fa;" 
 />
    <glyph glyph-name="uni10FD" unicode="&#x10fd;" 
 />
    <glyph glyph-name="uni10FE" unicode="&#x10fe;" 
 />
    <glyph glyph-name="uni10FF" unicode="&#x10ff;" 
 />
    <glyph glyph-name="Wgrave" unicode="&#x1e80;" horiz-adv-x="1010" 
d="M340 900l116 -150h174l-80 150h-210zM220 700l95 -385l113 385h154l113 -385l95 385h220l-198 -700h-197l-110 374l-110 -374h-197l-198 700h220z" />
    <glyph glyph-name="wgrave" unicode="&#x1e81;" horiz-adv-x="830" 
d="M225 700h210l80 -150h-174zM665 0h-188l-62 235l-62 -235h-188l-145 500h195l58 -277l72 277h140l72 -277l58 277h195z" />
    <glyph glyph-name="Wacute" unicode="&#x1e82;" horiz-adv-x="1010" 
d="M710 900h-210l-80 -150h174zM220 700l95 -385l113 385h154l113 -385l95 385h220l-198 -700h-197l-110 374l-110 -374h-197l-198 700h220z" />
    <glyph glyph-name="wacute" unicode="&#x1e83;" horiz-adv-x="830" 
d="M305 550l80 150h210l-116 -150h-174zM665 0h-188l-62 235l-62 -235h-188l-145 500h195l58 -277l72 277h140l72 -277l58 277h195z" />
    <glyph glyph-name="Wdieresis" unicode="&#x1e84;" horiz-adv-x="1010" 
d="M370 755q-25 25 -25 60t25 60t60 25t60 -25t25 -60t-25 -60t-60 -25t-60 25zM570 755q-25 25 -25 60t25 60t60 25t60 -25t25 -60t-25 -60t-60 -25t-60 25zM220 700l95 -385l113 385h154l113 -385l95 385h220l-198 -700h-197l-110 374l-110 -374h-197l-198 700h220z" />
    <glyph glyph-name="wdieresis" unicode="&#x1e85;" horiz-adv-x="830" 
d="M255 555q-25 25 -25 60t25 60t60 25t60 -25t25 -60t-25 -60t-60 -25t-60 25zM455 555q-25 25 -25 60t25 60t60 25t60 -25t25 -60t-25 -60t-60 -25t-60 25zM665 0h-188l-62 235l-62 -235h-188l-145 500h195l58 -277l72 277h140l72 -277l58 277h195z" />
    <glyph glyph-name="Ygrave" unicode="&#x1ef2;" horiz-adv-x="674" 
d="M147 900h210l80 -150h-174zM437 0h-200v266l-237 434h222l115 -246l115 246h222l-237 -434v-266z" />
    <glyph glyph-name="ygrave" unicode="&#x1ef3;" horiz-adv-x="570" 
d="M101 700h210l80 -150h-174zM400 1q-37 -109 -115 -157.5t-206 -43.5v175q51 0 78 7.5t43 27.5l-200 490h210l89 -267l61 267h210z" />
    <glyph glyph-name="endash" unicode="&#x2013;" horiz-adv-x="640" 
d="M590 391v-174h-540v174h540z" />
    <glyph glyph-name="emdash" unicode="&#x2014;" horiz-adv-x="740" 
d="M690 391v-174h-640v174h640z" />
    <glyph glyph-name="quoteleft" unicode="&#x2018;" horiz-adv-x="315" 
d="M275 700l-30 -335h-210l90 335h150z" />
    <glyph glyph-name="quoteright" unicode="&#x2019;" horiz-adv-x="315" 
d="M40 365l30 335h210l-90 -335h-150z" />
    <glyph glyph-name="quotesinglbase" unicode="&#x201a;" horiz-adv-x="315" 
d="M40 -140l30 335h210l-90 -335h-150z" />
    <glyph glyph-name="quotedblleft" unicode="&#x201c;" horiz-adv-x="565" 
d="M275 700l-30 -335h-210l90 335h150zM525 700l-30 -335h-210l90 335h150z" />
    <glyph glyph-name="quotedblright" unicode="&#x201d;" horiz-adv-x="565" 
d="M40 365l30 335h210l-90 -335h-150zM290 365l30 335h210l-90 -335h-150z" />
    <glyph glyph-name="quotedblbase" unicode="&#x201e;" horiz-adv-x="565" 
d="M40 -140l30 335h210l-90 -335h-150zM290 -140l30 335h210l-90 -335h-150z" />
    <glyph glyph-name="dagger" unicode="&#x2020;" horiz-adv-x="460" 
d="M323 416v-416h-185v416h-108v174h108v110h185v-110h107v-174h-107z" />
    <glyph glyph-name="daggerdbl" unicode="&#x2021;" horiz-adv-x="460" 
d="M323 284h107v-174h-107v-110h-185v110h-108v174h108v132h-108v174h108v110h185v-110h107v-174h-107v-132z" />
    <glyph glyph-name="bullet" unicode="&#x2022;" horiz-adv-x="420" 
d="M120.5 194.5q-41.5 24.5 -66 66t-24.5 90.5t24.5 90t66 65t90.5 24t90 -24t65 -65t24 -90t-24 -90.5t-65 -66t-90 -24.5t-90.5 24.5z" />
    <glyph glyph-name="ellipsis" unicode="&#x2026;" horiz-adv-x="820" 
d="M68.5 18.5q-33.5 33.5 -33.5 81.5t33.5 81.5t81.5 33.5t81.5 -33.5t33.5 -81.5t-33.5 -81.5t-81.5 -33.5t-81.5 33.5zM328.5 18.5q-33.5 33.5 -33.5 81.5t33.5 81.5t81.5 33.5t81.5 -33.5t33.5 -81.5t-33.5 -81.5t-81.5 -33.5t-81.5 33.5zM588.5 18.5
q-33.5 33.5 -33.5 81.5t33.5 81.5t81.5 33.5t81.5 -33.5t33.5 -81.5t-33.5 -81.5t-81.5 -33.5t-81.5 33.5z" />
    <glyph glyph-name="perthousand" unicode="&#x2030;" horiz-adv-x="1283" 
d="M125.5 361.5q-44.5 25.5 -70 69t-25.5 95.5t25.5 95.5t70 69t99.5 25.5q54 0 98 -25.5t69.5 -69t25.5 -95.5t-25.5 -95.5t-69.5 -69t-98 -25.5q-55 0 -99.5 25.5zM700 567l-471 -497l-72 41l470 498zM259 491q14 15 14 35q0 21 -14 35.5t-35 14.5t-34.5 -14.5
t-13.5 -35.5t13.5 -35.5t34.5 -14.5t35 15zM545.5 9.5q-44.5 25.5 -70 69t-25.5 95.5t25.5 95.5t70 69t99.5 25.5q54 0 98 -25.5t69.5 -69t25.5 -95.5t-25.5 -95.5t-69.5 -69t-98 -25.5q-55 0 -99.5 25.5zM960.5 9.5q-44.5 25.5 -70 69t-25.5 95.5t25.5 95.5t70 69
t99.5 25.5q54 0 98 -25.5t69.5 -69t25.5 -95.5t-25.5 -95.5t-69.5 -69t-98 -25.5q-55 0 -99.5 25.5zM679 139q14 15 14 35q0 21 -14 35.5t-35 14.5t-34.5 -14.5t-13.5 -35.5t13.5 -35.5t34.5 -14.5t35 15zM1094 139q14 15 14 35q0 21 -14 35.5t-35 14.5t-34.5 -14.5
t-13.5 -35.5t13.5 -35.5t34.5 -14.5t35 15z" />
    <glyph glyph-name="guilsinglleft" unicode="&#x2039;" horiz-adv-x="367" 
d="M317 109h-152l-115 200l115 200h152l-115 -200z" />
    <glyph glyph-name="guilsinglright" unicode="&#x203a;" horiz-adv-x="367" 
d="M202 109h-152l115 200l-115 200h152l115 -200z" />
    <glyph glyph-name="fraction" unicode="&#x2044;" horiz-adv-x="180" 
d="M230 700h130l-410 -700h-130z" />
    <glyph glyph-name="Euro" unicode="&#x20ac;" horiz-adv-x="643" 
d="M530 25.5q-63 -41.5 -155 -41.5q-117 0 -194 70t-101 192h-70v84h60v20v18h-60v84h69q24 123 101 193.5t195 70.5q88 0 152 -41t101 -116l-167 -96q-32 59 -86 59q-31 0 -54 -17.5t-36 -52.5h140v-84h-155v-18v-20h155v-84h-139q25 -68 89 -68q56 0 87 68l171 -97
q-40 -82 -103 -123.5z" />
    <glyph glyph-name="uni20BD" unicode="&#x20bd;" horiz-adv-x="615" 
d="M270 194h200v-100h-200v-93h-200v93h-60v100h60v39h-60v180h60v288h280q71 0 129 -27.5t92 -80t34 -123.5q0 -118 -71 -177.5t-184 -59.5h-80v-39zM350 413q55 0 55 47t-55 47h-80v-94h80z" />
    <glyph glyph-name="uni20BE" unicode="&#x20be;" horiz-adv-x="792" 
d="M693 578.5q74 -91.5 74 -232.5v-6h-200v6q0 117 -73 163v-163l-70 1v181q-18 2 -28 2q-18 0 -27 -1v-183l-70 1v166q-74 -40 -74 -153q0 -77 50 -125.5t149 -48.5h308v-186h-669v163h75q-56 39 -84.5 98t-28.5 116q0 129 74.5 212t199.5 111v100h70v-95q9 1 27 1
q19 0 28 -1v95h70v-100q125 -30 199 -121.5z" />
    <glyph glyph-name="uni2116" unicode="&#x2116;" horiz-adv-x="1066" 
d="M769 380.5q-42 24.5 -65.5 65.5t-23.5 90q0 50 23.5 91t65.5 65t94 24t94 -24t65.5 -65t23.5 -91q0 -49 -23.5 -90t-65 -65.5t-94.5 -24.5q-52 0 -94 24.5zM630 0h-160l-220 320v-320h-200v700h160l220 -320v320h200v-700zM891.5 507q10.5 11 10.5 29q0 17 -11 28.5
t-28 11.5t-28 -11.5t-11 -28.5t11 -28.5t28 -11.5q18 0 28.5 11zM1030 326v-180h-334v180h334z" />
    <glyph glyph-name="trademark" unicode="&#x2122;" horiz-adv-x="486" 
d="M157 623v-123h-80v123h-47v77h173v-77h-46zM456 500h-77v87l-37 -58h-8l-37 58v-87h-77v200h77l41 -64l41 64h77v-200z" />
    <glyph glyph-name="estimated" unicode="&#x212e;" horiz-adv-x="780" 
d="M582.5 662q84.5 -48 131 -130.5t46.5 -181.5q0 -15 -15 -15h-560q-15 0 -15 -15v-192q0 -11 7 -19q84 -89 233 -89q73 0 131.5 25t99.5 72q8 9 18 9h37q6 0 10 -2.5t4 -6.5q0 -5 -5 -10q-52 -55 -127 -86t-168 -31q-117 0 -205.5 48t-136.5 130t-48 182q0 99 46.5 181.5
t131 130.5t192.5 48t192.5 -48zM603 591q-41 43 -95.5 66t-117.5 23t-117.5 -23t-95.5 -66q-7 -8 -7 -19v-192q0 -15 15 -15h410q15 0 15 15v192q0 11 -7 19z" />
    <glyph glyph-name="oneeighth" unicode="&#x215b;" horiz-adv-x="803" 
d="M33 532l-33 120l132 48h121v-400h-142v251zM229 0h-130l410 700h130zM777.5 167q15.5 -26 15.5 -57q0 -57 -43.5 -90.5t-118.5 -33.5t-118.5 33.5t-43.5 90.5q0 31 15.5 57t43.5 42q-45 31 -45 83q0 56 42 89t106 33t106 -33t42 -89q0 -52 -45 -83q28 -16 43.5 -42z
M606 280q0 -21 25 -21q11 0 18 5.5t7 15.5q0 11 -7 17t-18 6q-25 0 -25 -23zM655 106q8 8 8 21q0 12 -8 20t-24 8t-24 -8t-8 -20q0 -13 8 -21t24 -8t24 8z" />
    <glyph glyph-name="threeeighths" unicode="&#x215c;" horiz-adv-x="847" 
d="M282.5 323.5q-45.5 -37.5 -118.5 -37.5q-119 0 -164 98l114 65q7 -19 18 -29.5t32 -10.5q14 0 21 5.5t7 14.5q0 19 -23 19h-32l-50 75l48 54h-114v123h292v-89l-64 -72q37 -14 58 -41.5t21 -68.5q0 -68 -45.5 -105.5zM273 0h-130l410 700h130zM821.5 167
q15.5 -26 15.5 -57q0 -57 -43.5 -90.5t-118.5 -33.5t-118.5 33.5t-43.5 90.5q0 31 15.5 57t43.5 42q-45 31 -45 83q0 56 42 89t106 33t106 -33t42 -89q0 -52 -45 -83q28 -16 43.5 -42zM650 280q0 -21 25 -21q11 0 18 5.5t7 15.5q0 11 -7 17t-18 6q-25 0 -25 -23zM699 106
q8 8 8 21q0 12 -8 20t-24 8t-24 -8t-8 -20q0 -13 8 -21t24 -8t24 8z" />
    <glyph glyph-name="fiveeighths" unicode="&#x215d;" horiz-adv-x="854" 
d="M276 320.5q-44 -34.5 -114 -34.5q-118 0 -162 98l115 55q6 -18 16.5 -26.5t28.5 -8.5q29 0 29 21t-26 21h-136l17 254h261v-123h-144l-1 -24h8q70 0 111 -32.5t41 -97.5q0 -68 -44 -102.5zM280 0h-130l410 700h130zM828.5 167q15.5 -26 15.5 -57q0 -57 -43.5 -90.5
t-118.5 -33.5t-118.5 33.5t-43.5 90.5q0 31 15.5 57t43.5 42q-45 31 -45 83q0 56 42 89t106 33t106 -33t42 -89q0 -52 -45 -83q28 -16 43.5 -42zM657 280q0 -21 25 -21q11 0 18 5.5t7 15.5q0 11 -7 17t-18 6q-25 0 -25 -23zM706 106q8 8 8 21q0 12 -8 20t-24 8t-24 -8
t-8 -20q0 -13 8 -21t24 -8t24 8z" />
    <glyph glyph-name="seveneighths" unicode="&#x215e;" horiz-adv-x="834" 
d="M149 577h-149v123h300v-106l-107 -294h-145zM260 0h-130l410 700h130zM808.5 167q15.5 -26 15.5 -57q0 -57 -43.5 -90.5t-118.5 -33.5t-118.5 33.5t-43.5 90.5q0 31 15.5 57t43.5 42q-45 31 -45 83q0 56 42 89t106 33t106 -33t42 -89q0 -52 -45 -83q28 -16 43.5 -42z
M637 280q0 -21 25 -21q11 0 18 5.5t7 15.5q0 11 -7 17t-18 6q-25 0 -25 -23zM686 106q8 8 8 21q0 12 -8 20t-24 8t-24 -8t-8 -20q0 -13 8 -21t24 -8t24 8z" />
    <glyph glyph-name="arrowleft" unicode="&#x2190;" horiz-adv-x="780" 
d="M356 262l212 -212h-238l-300 300l300 300h238l-213 -213h395v-175h-394z" />
    <glyph glyph-name="arrowup" unicode="&#x2191;" horiz-adv-x="660" 
d="M423 369v-369h-185v370l-208 -208v238l300 300l300 -300v-238z" />
    <glyph glyph-name="arrowright" unicode="&#x2192;" horiz-adv-x="780" 
d="M450 50h-238l212 212h-394v175h395l-213 213h238l300 -300z" />
    <glyph glyph-name="arrowdown" unicode="&#x2193;" horiz-adv-x="660" 
d="M630 300l-300 -300l-300 300v238l208 -208v370h185v-369l207 207v-238z" />
    <glyph glyph-name="arrowboth" unicode="&#x2194;" horiz-adv-x="1180" 
d="M860 60h-238l202 202h-468l202 -202h-238l-290 290l290 290h238l-203 -203h470l-203 203h238l290 -290z" />
    <glyph glyph-name="arrowupdn" unicode="&#x2195;" horiz-adv-x="640" 
d="M413 131l197 197v-238l-290 -290l-290 290v238l198 -198v440l-198 -198v238l290 290l290 -290v-238l-197 197v-438z" />
    <glyph glyph-name="uni2196" unicode="&#x2196;" horiz-adv-x="660" 
d="M198 333v-293l-168 168v424h424l168 -168h-294l302 -301l-131 -131z" />
    <glyph glyph-name="uni2197" unicode="&#x2197;" horiz-adv-x="660" 
d="M630 208l-168 -168v293l-301 -301l-131 131l302 301h-294l168 168h424v-424z" />
    <glyph glyph-name="uni2198" unicode="&#x2198;" horiz-adv-x="660" 
d="M630 62h-424l-168 168h294l-302 301l131 131l301 -301v293l168 -168v-424z" />
    <glyph glyph-name="uni2199" unicode="&#x2199;" horiz-adv-x="660" 
d="M622 230l-168 -168h-424v424l168 168v-293l301 301l131 -131l-302 -301h294z" />
    <glyph glyph-name="partialdiff" unicode="&#x2202;" horiz-adv-x="581" 
d="M390.5 671q69.5 -45 110 -128.5t40.5 -192.5q0 -119 -36.5 -201.5t-103 -123.5t-155.5 -41q-69 0 -120 29t-78.5 78t-27.5 109q0 67 28.5 120.5t81 84t121.5 30.5q48 0 94 -18q-24 125 -135 125q-60 0 -114 -31v169q29 19 63 27.5t78 8.5q84 0 153.5 -45zM313.5 180.5
q21.5 26.5 30.5 77.5q-34 17 -73 17q-29 0 -47.5 -18t-18.5 -47q0 -24 16 -40t39 -16q32 0 53.5 26.5z" />
    <glyph glyph-name="emptyset" unicode="&#x2205;" horiz-adv-x="804" 
d="M736.5 489q27.5 -66 27.5 -139q0 -98 -48.5 -181.5t-132 -132t-181.5 -48.5q-88 0 -166 40l-36 -48h-140l85 115q-50 50 -77.5 116t-27.5 139q0 98 48.5 181.5t132 132t181.5 48.5q88 0 166 -40l36 48h140l-85 -115q50 -50 77.5 -116zM184 270q14 -38 39 -69l268 365
q-41 18 -89 18q-63 0 -116.5 -31.5t-84.5 -85t-31 -117.5q0 -42 14 -80zM518.5 147.5q53.5 31.5 84.5 85t31 117.5q0 42 -14 80t-39 69l-268 -365q40 -18 89 -18q63 0 116.5 31.5z" />
    <glyph glyph-name="product" unicode="&#x220f;" horiz-adv-x="620" 
d="M570 700v-900h-185v724h-150v-724h-185v900h520z" />
    <glyph glyph-name="summation" unicode="&#x2211;" horiz-adv-x="550" 
d="M206 260l-171 284v156h470v-184h-238l154 -256l-168 -276h267v-184h-500v155z" />
    <glyph glyph-name="minus" unicode="&#x2212;" horiz-adv-x="560" 
d="M530 440v-180h-500v180h500z" />
    <glyph glyph-name="radical" unicode="&#x221a;" horiz-adv-x="700" 
d="M20 172v172h218l77 -133l195 589h190l-280 -800h-179l-108 172h-113z" />
    <glyph glyph-name="infinity" unicode="&#x221e;" horiz-adv-x="830" 
d="M701 529q46 -26 72.5 -73t26.5 -106t-26.5 -106t-72.5 -73t-104 -26q-99 0 -182 91q-83 -91 -182 -91q-58 0 -104 26t-72.5 73t-26.5 106t26.5 106t72.5 73t104 26q99 0 182 -91q83 91 182 91q58 0 104 -26zM291.5 324q17.5 9 34.5 26q-17 17 -34.5 26t-33.5 9
q-15 0 -26.5 -9t-11.5 -26t11.5 -26t26.5 -9q16 0 33.5 9zM598.5 324q11.5 9 11.5 26t-11.5 26t-26.5 9q-16 0 -33.5 -9t-34.5 -26q17 -17 34.5 -26t33.5 -9q15 0 26.5 9z" />
    <glyph glyph-name="integral" unicode="&#x222b;" horiz-adv-x="482" 
d="M33 -31q25 0 43.5 15.5t23.5 43.5l86 505q16 90 73.5 134t141.5 44q39 0 81 -9v-180q-19 7 -33 7q-25 0 -43.5 -15.5t-23.5 -43.5l-86 -505q-16 -90 -73.5 -134t-141.5 -44q-39 0 -81 9v180q19 -7 33 -7z" />
    <glyph glyph-name="approxequal" unicode="&#x2248;" horiz-adv-x="578" 
d="M193 396q-26 0 -49 -8.5t-47 -24.5l-67 50q16 83 58.5 126.5t104.5 43.5q47 0 96 -23q66 -30 88 -30q16 0 25 11t16 36l130 -59q-16 -83 -58.5 -126t-103.5 -43q-47 0 -97 23q-54 24 -96 24zM88.5 304q42.5 43 103.5 43q47 0 97 -23q54 -24 96 -24q26 0 49 8.5t47 24.5
l67 -50q-16 -83 -58.5 -126.5t-104.5 -43.5q-47 0 -96 23q-66 30 -88 30q-16 0 -25 -11t-16 -36l-130 59q16 83 58.5 126z" />
    <glyph glyph-name="notequal" unicode="&#x2260;" horiz-adv-x="500" 
d="M279 325h191v-180h-269l-41 -95h-80l41 95h-91v180h169l22 50h-191v180h269l41 95h80l-41 -95h91v-180h-169z" />
    <glyph glyph-name="lessequal" unicode="&#x2264;" horiz-adv-x="510" 
d="M200 450l280 -56v-194l-450 145v210l450 145v-194zM480 180v-180h-450v180h450z" />
    <glyph glyph-name="greaterequal" unicode="&#x2265;" horiz-adv-x="510" 
d="M480 345l-450 -145v194l280 56l-280 56v194l450 -145v-210zM480 180v-180h-450v180h450z" />
    <glyph glyph-name="lozenge" unicode="&#x25ca;" horiz-adv-x="620" 
d="M216 700h188l186 -350l-186 -350h-188l-186 350zM310 488l-73 -138l73 -138l73 138z" />
    <glyph glyph-name="i.loclTRK" horiz-adv-x="265" 
d="M64 568q-28 28 -28 67t28 67t67 28t67 -28t28 -67t-28 -67t-67 -28t-67 28zM225 500v-500h-185v500h185z" />
    <glyph glyph-name="f_f_j" horiz-adv-x="860" 
d="M766 -164.5q-54 -52.5 -167 -52.5q-19 0 -29 1v166q34 -3 49.5 9t15.5 41v324h-97v-324h-185v324h-100v-324h-185v324h-58v176h58q0 102 60 159.5t175 57.5q18 0 27 -1v-166q-36 3 -56.5 -11t-20.5 -39h100v10q0 106 66 161t196 55q72 0 135 -16v-152q-67 10 -120 10
q-92 0 -92 -58v-10h282v-500q0 -112 -54 -164.5z" />
    <glyph glyph-name="f_j" horiz-adv-x="575" 
d="M481 -164.5q-54 -52.5 -167 -52.5q-19 0 -29 1v166q34 -3 49.5 9t15.5 41v324h-97v-324h-185v324h-58v176h58q0 106 66 161t196 55q72 0 135 -16v-152q-67 10 -120 10q-92 0 -92 -58h282v-500q0 -112 -54 -164.5z" />
    <glyph glyph-name="uni0414.loclBGR" horiz-adv-x="740" 
d="M735 -134h-200v134h-330v-134h-200v328h81l172 506h224l172 -506h81v-328zM370 475l-80 -281h160z" />
    <glyph glyph-name="uni041B.loclBGR" horiz-adv-x="670" 
d="M670 0h-220l-115 445l-115 -445h-220l223 700h224z" />
    <glyph glyph-name="uni0424.loclBGR" horiz-adv-x="874" 
d="M810 181.5q-39 -74.5 -110.5 -122t-167.5 -63.5v-96h-190v96q-96 16 -167.5 63.5t-110.5 122t-39 168.5t39 168.5t110.5 122t167.5 63.5v96h190v-96q96 -16 167.5 -63.5t110.5 -122t39 -168.5t-39 -168.5zM342 186v328q-117 -35 -117 -164t117 -164zM649 350
q0 129 -117 164v-328q117 35 117 164z" />
    <glyph glyph-name="uni0414.ss01" horiz-adv-x="715" 
d="M705 0h-700v194h74q42 76 42 212v294h509v-506h75v-194zM430 516h-109v-112q0 -129 -35 -210h144v322z" />
    <glyph glyph-name="uni0426.ss01" horiz-adv-x="715" 
d="M705 0h-655v700h210v-506h150v506h210v-506h85v-194z" />
    <glyph glyph-name="uni0429.ss01" horiz-adv-x="1005" 
d="M995 0h-945v700h200v-506h130v506h200v-506h130v506h200v-506h85v-194z" />
    <glyph glyph-name="uni0414.loclBGR.ss01" horiz-adv-x="740" 
d="M735 0h-730v194h81l172 506h224l172 -506h81v-194zM370 475l-80 -281h160z" />
    <glyph glyph-name="uni0432.loclBGR" horiz-adv-x="558" 
d="M514 332.5q26 -47.5 26 -114.5q0 -107 -68.5 -169.5t-186.5 -62.5q-73 0 -128.5 29.5t-86 84t-30.5 128.5v239q0 75 29.5 131t84 86t127.5 30q97 0 153 -51t56 -135q0 -70 -50 -123q48 -25 74 -72.5zM237 528q-12 -16 -12 -46v-61l9 2q19 4 39 6q36 33 36 68q0 47 -39 47
q-21 0 -33 -16zM337.5 175.5q17.5 15.5 17.5 42.5q0 29 -16.5 44.5t-46.5 15.5q-14 0 -29 -3l-38 -8v-39q0 -31 17.5 -49.5t47.5 -18.5t47.5 15.5z" />
    <glyph glyph-name="uni0433.loclBGR" horiz-adv-x="479" 
d="M381.5 13.5q-58.5 -27.5 -146.5 -27.5q-86 0 -150.5 40.5t-64.5 132.5q0 59 27.5 93t64 47.5t88.5 23.5q34 6 49.5 12t15.5 18q0 10 -8 15.5t-23 5.5q-38 0 -56 -42l-153 55q28 68 84.5 97.5t136.5 29.5q52 0 98.5 -19.5t75.5 -58.5t29 -94t-26 -88t-61.5 -47.5
t-84.5 -25.5q-34 -8 -49 -15t-15 -18q0 -10 9 -16t25 -6q52 0 71 51l151 -72q-29 -64 -87.5 -91.5z" />
    <glyph glyph-name="uni0434.loclBGR" horiz-adv-x="613" 
d="M573 15q0 -79 -37 -131t-96.5 -76t-128.5 -24q-88 0 -156 32t-101 90l150 87q19 -26 42.5 -37.5t54.5 -11.5q35 0 61 17.5t26 53.5v50q-48 -59 -134 -59q-66 0 -118.5 34t-81.5 92t-29 128t29 128t81.5 92t118.5 34q86 0 134 -59v45h185v-485zM363.5 196q24.5 26 24.5 64
t-24.5 64t-64.5 26t-64.5 -26t-24.5 -64t24.5 -64t64.5 -26t64.5 26z" />
    <glyph glyph-name="uni0436.loclBGR" horiz-adv-x="789" 
d="M487 192v-192h-185v192l-100 -192h-202l144 250l-134 250h202l90 -187v387h185v-387l90 187h202l-134 -250l144 -250h-202z" />
    <glyph glyph-name="uni0438.loclBGR" horiz-adv-x="575" 
d="M535 0h-185v49q-46 -63 -134 -63q-82 0 -131.5 56.5t-49.5 168.5v289h185v-269q0 -33 16.5 -50t45.5 -17q33 0 50.5 21t17.5 58v257h185v-500z" />
    <glyph glyph-name="uni0439.loclBGR" horiz-adv-x="575" 
d="M110 549v150h350v-150h-350zM535 0h-185v49q-46 -63 -134 -63q-82 0 -131.5 56.5t-49.5 168.5v289h185v-269q0 -33 16.5 -50t45.5 -17q33 0 50.5 21t17.5 58v257h185v-500z" />
    <glyph glyph-name="uni043A.loclBGR" horiz-adv-x="550" 
d="M225 200v-200h-185v700h185v-394l105 194h210l-152 -250l162 -250h-205z" />
    <glyph glyph-name="uni043B.loclBGR" horiz-adv-x="570" 
d="M285 250l-80 -250h-205l190 500h190l190 -500h-205z" />
    <glyph glyph-name="uni043F.loclBGR" horiz-adv-x="575" 
d="M490.5 457.5q49.5 -56.5 49.5 -168.5v-289h-185v269q0 33 -16.5 50t-45.5 17q-33 0 -50.5 -21t-17.5 -58v-257h-185v500h185v-49q46 63 134 63q82 0 131.5 -56.5z" />
    <glyph glyph-name="uni0442.loclBGR" horiz-adv-x="850" 
d="M766 459.5q49 -54.5 49 -155.5v-304h-185v279q0 26 -13 41.5t-38 15.5q-30 0 -44.5 -20.5t-14.5 -53.5v-262h-185v279q0 26 -13 41.5t-38 15.5q-30 0 -44.5 -20.5t-14.5 -53.5v-262h-185v500h185v-47q23 28 57.5 44.5t78.5 16.5q86 0 125 -62q54 62 144 62
q87 0 136 -54.5z" />
    <glyph glyph-name="uni0446.loclBGR" horiz-adv-x="620" 
d="M610 -134h-170v148q-38 15 -60 46q-52 -74 -164 -74q-82 0 -131.5 56.5t-49.5 168.5v289h185v-269q0 -33 16.5 -50t45.5 -17q33 0 50.5 21t17.5 58v257h185v-304q0 -14 8 -22t22 -8h45v-300z" />
    <glyph glyph-name="uni0448.loclBGR" horiz-adv-x="850" 
d="M810 0h-185v47q-23 -28 -57.5 -44.5t-78.5 -16.5q-86 0 -125 62q-54 -62 -144 -62q-87 0 -136 54.5t-49 155.5v304h185v-279q0 -26 13 -41.5t38 -15.5q30 0 44.5 20.5t14.5 53.5v262h185v-279q0 -26 13 -41.5t38 -15.5q30 0 44.5 20.5t14.5 53.5v262h185v-500z" />
    <glyph glyph-name="uni0449.loclBGR" horiz-adv-x="895" 
d="M885 -134h-170v148q-37 15 -59 44q-55 -72 -157 -72q-89 0 -133 65q-53 -65 -146 -65q-87 0 -136 54.5t-49 155.5v304h185v-279q0 -26 13 -41.5t38 -15.5q30 0 44.5 20.5t14.5 53.5v262h185v-279q0 -26 13 -41.5t38 -15.5q30 0 44.5 20.5t14.5 53.5v262h185v-304
q0 -14 8 -22t22 -8h45v-300z" />
    <glyph glyph-name="uni044C.loclBGR" horiz-adv-x="495" 
d="M430 324q55 -54 55 -144q0 -56 -26.5 -100.5t-77.5 -70t-121 -25.5q-110 0 -167.5 54.5t-57.5 151.5v310h180v-122h55q105 0 160 -54zM305 187q0 40 -45 40h-45v-32q0 -46 45 -46t45 38z" />
    <glyph glyph-name="uni044A.loclBGR" horiz-adv-x="570" 
d="M505 324q55 -54 55 -144q0 -56 -26.5 -100.5t-77.5 -70t-121 -25.5q-110 0 -167.5 54.5t-57.5 151.5v140h-110v170h290v-122h55q105 0 160 -54zM380 187q0 40 -45 40h-45v-32q0 -46 45 -46t45 38z" />
    <glyph glyph-name="uni044E.loclBGR" horiz-adv-x="798" 
d="M646.5 479.5q61.5 -34.5 97.5 -95t36 -134.5t-36 -134.5t-97.5 -95t-135.5 -34.5q-87 0 -153 48.5t-92 127.5h-41v-162h-185v700h185v-362h40q26 79 92 127.5t154 48.5q74 0 135.5 -34.5zM571.5 186.5q23.5 24.5 23.5 63.5t-23.5 63.5t-60.5 24.5t-60.5 -24.5
t-23.5 -63.5t23.5 -63.5t60.5 -24.5t60.5 24.5z" />
    <glyph glyph-name="zero.sinf" horiz-adv-x="410" 
d="M106.5 -148q-43.5 26 -67.5 74.5t-24 113.5t24 113.5t67.5 74.5t98.5 26t98.5 -26t67.5 -74.5t24 -113.5t-24 -113.5t-67.5 -74.5t-98.5 -26t-98.5 26zM237.5 -13.5q10.5 19.5 10.5 53.5t-10.5 53.5t-32.5 19.5t-32.5 -19.5t-10.5 -53.5t10.5 -53.5t32.5 -19.5t32.5 19.5
z" />
    <glyph glyph-name="one.sinf" horiz-adv-x="283" 
d="M253 -160h-142v251l-78 -19l-33 120l132 48h121v-400z" />
    <glyph glyph-name="two.sinf" horiz-adv-x="349" 
d="M163 73q27 25 27 41q0 18 -20 18q-23 0 -39 -42l-116 66q50 98 162 98q39 0 74 -16.5t56 -46.5t21 -69q0 -34 -17 -63.5t-53 -61.5l-36 -32h107v-125h-306v102z" />
    <glyph glyph-name="three.sinf" horiz-adv-x="338" 
d="M307 37.5q21 -27.5 21 -68.5q0 -68 -45.5 -105.5t-118.5 -37.5q-119 0 -164 98l114 65q7 -19 18 -29.5t32 -10.5q14 0 21 5.5t7 14.5q0 19 -23 19h-32l-50 75l48 54h-114v123h292v-89l-64 -72q37 -14 58 -41.5z" />
    <glyph glyph-name="four.sinf" horiz-adv-x="366" 
d="M323 -109v-51h-128v51h-190v120l110 229h147l-104 -229h37v66h128v-66h33v-120h-33z" />
    <glyph glyph-name="five.sinf" horiz-adv-x="330" 
d="M279 60.5q41 -32.5 41 -97.5q0 -68 -44 -102.5t-114 -34.5q-118 0 -162 98l115 55q6 -18 16.5 -26.5t28.5 -8.5q29 0 29 21t-26 21h-136l17 254h261v-123h-144l-1 -24h8q70 0 111 -32.5z" />
    <glyph glyph-name="six.sinf" horiz-adv-x="344" 
d="M303.5 65q30.5 -38 30.5 -92q0 -66 -43.5 -106.5t-118.5 -40.5t-118.5 40.5t-43.5 106.5q0 45 22 81l110 186h148l-72 -125q55 -12 85.5 -50zM194.5 -49.5q8.5 7.5 8.5 22.5t-8.5 22.5t-22.5 7.5t-22.5 -7.5t-8.5 -22.5t8.5 -22.5t22.5 -7.5t22.5 7.5z" />
    <glyph glyph-name="seven.sinf" horiz-adv-x="310" 
d="M300 134l-107 -294h-145l101 277h-149v123h300v-106z" />
    <glyph glyph-name="eight.sinf" horiz-adv-x="344" 
d="M318.5 7q15.5 -26 15.5 -57q0 -57 -43.5 -90.5t-118.5 -33.5t-118.5 33.5t-43.5 90.5q0 31 15.5 57t43.5 42q-45 31 -45 83q0 56 42 89t106 33t106 -33t42 -89q0 -52 -45 -83q28 -16 43.5 -42zM147 120q0 -21 25 -21q11 0 18 5.5t7 15.5q0 11 -7 17t-18 6q-25 0 -25 -23z
M196 -54q8 8 8 21q0 12 -8 20t-24 8t-24 -8t-8 -20q0 -13 8 -21t24 -8t24 8z" />
    <glyph glyph-name="nine.sinf" horiz-adv-x="344" 
d="M312 26l-110 -186h-148l72 125q-55 12 -85.5 50t-30.5 92q0 66 43.5 106.5t118.5 40.5t118.5 -40.5t43.5 -106.5q0 -45 -22 -81zM149.5 129.5q-8.5 -7.5 -8.5 -22.5t8.5 -22.5t22.5 -7.5t22.5 7.5t8.5 22.5t-8.5 22.5t-22.5 7.5t-22.5 -7.5z" />
    <glyph glyph-name="zero.tf" 
d="M139.5 29.5q-66.5 45.5 -100.5 128t-34 192.5t34 192.5t100.5 128t160.5 45.5t160.5 -45.5t100.5 -128t34 -192.5t-34 -192.5t-100.5 -128t-160.5 -45.5t-160.5 45.5zM371.5 220q23.5 42 23.5 130t-23.5 130t-71.5 42t-71.5 -42t-23.5 -130t23.5 -130t71.5 -42t71.5 42z
" />
    <glyph glyph-name="one.tf" 
d="M585 0h-560v194h192v297l-121 -29l-46 167l197 71h170v-506h168v-194z" />
    <glyph glyph-name="two.tf" 
d="M300 383q30 26 44 46.5t14 40.5q0 24 -17.5 38t-45.5 14q-71 0 -102 -89l-173 100q32 90 106.5 136.5t168.5 46.5q69 0 129 -27.5t97 -81t37 -129.5q0 -60 -25 -106t-79 -94l-94 -84h213v-194h-541v146z" />
    <glyph glyph-name="three.tf" 
d="M534 345.5q41 -49.5 41 -125.5q0 -117 -75 -176.5t-200 -59.5q-103 0 -180 47.5t-105 140.5l176 100q24 -94 109 -94q75 0 75 52q0 26 -19 38t-61 12h-37l-81 119l99 107h-229v194h490v-154l-118 -132q74 -19 115 -68.5z" />
    <glyph glyph-name="four.tf" 
d="M515 102v-102h-196v102h-314v180l213 418h227l-213 -418h87v108h196v-108h70v-180h-70z" />
    <glyph glyph-name="five.tf" 
d="M508 397.5q72 -55.5 72 -173.5q0 -77 -36 -131t-99.5 -81.5t-144.5 -27.5q-99 0 -174.5 44.5t-106.5 130.5l178 96q10 -36 36 -56.5t67 -20.5q80 0 80 51q0 25 -20 36t-60 11h-243l29 424h449v-194h-264l-3 -53h42q126 0 198 -55.5z" />
    <glyph glyph-name="six.tf" 
d="M523.5 402.5q61.5 -67.5 61.5 -166.5q0 -73 -34 -130t-98.5 -89.5t-152.5 -32.5t-152.5 32.5t-98.5 89.5t-34 130q0 80 39 138l1 2l2 2l218 322h225l-145 -216q107 -14 168.5 -81.5zM362.5 182.5q22.5 19.5 22.5 53.5t-22.5 53.5t-62.5 19.5t-62.5 -19.5t-22.5 -53.5
t22.5 -53.5t62.5 -19.5t62.5 19.5z" />
    <glyph glyph-name="seven.tf" 
d="M570 536l-238 -536h-220l222 506h-314v194h550v-164z" />
    <glyph glyph-name="eight.tf" 
d="M556.5 294q25.5 -44 25.5 -97q0 -98 -73 -154.5t-209 -56.5t-209 56.5t-73 154.5q0 53 25.5 97t74.5 72q-37 24 -56.5 60t-19.5 80q0 65 33 112t91.5 71.5t133.5 24.5t133.5 -24.5t91.5 -71.5t33 -112q0 -44 -19.5 -80t-56.5 -60q49 -28 74.5 -72zM222 487q0 -51 78 -51
q36 0 57 13t21 38t-21 38t-57 13q-78 0 -78 -51zM361.5 181.5q20.5 15.5 20.5 43.5t-20.5 43.5t-61.5 15.5t-61.5 -15.5t-20.5 -43.5t20.5 -43.5t61.5 -15.5t61.5 15.5z" />
    <glyph glyph-name="nine.tf" 
d="M543 322l-218 -322h-225l145 216q-107 14 -168.5 81.5t-61.5 166.5q0 73 34 130t98.5 89.5t152.5 32.5t152.5 -32.5t98.5 -89.5t34 -130q0 -79 -39 -138l-1 -2zM237.5 410.5q22.5 -19.5 62.5 -19.5t62.5 19.5t22.5 53.5t-22.5 53.5t-62.5 19.5t-62.5 -19.5t-22.5 -53.5
t22.5 -53.5z" />
    <glyph glyph-name="zero.dnom" horiz-adv-x="410" 
d="M106.5 12q-43.5 26 -67.5 74.5t-24 113.5t24 113.5t67.5 74.5t98.5 26t98.5 -26t67.5 -74.5t24 -113.5t-24 -113.5t-67.5 -74.5t-98.5 -26t-98.5 26zM237.5 146.5q10.5 19.5 10.5 53.5t-10.5 53.5t-32.5 19.5t-32.5 -19.5t-10.5 -53.5t10.5 -53.5t32.5 -19.5t32.5 19.5z
" />
    <glyph glyph-name="one.dnom" horiz-adv-x="279" 
d="M253 0h-142v251l-78 -19l-33 120l132 48h121v-400z" />
    <glyph glyph-name="two.dnom" horiz-adv-x="351" 
d="M163 233q27 25 27 41q0 18 -20 18q-23 0 -39 -42l-116 66q50 98 162 98q39 0 74 -16.5t56 -46.5t21 -69q0 -34 -17 -63.5t-53 -61.5l-36 -32h107v-125h-306v102z" />
    <glyph glyph-name="three.dnom" horiz-adv-x="323" 
d="M307 197.5q21 -27.5 21 -68.5q0 -68 -45.5 -105.5t-118.5 -37.5q-119 0 -164 98l114 65q7 -19 18 -29.5t32 -10.5q14 0 21 5.5t7 14.5q0 19 -23 19h-32l-50 75l48 54h-114v123h292v-89l-64 -72q37 -14 58 -41.5z" />
    <glyph glyph-name="four.dnom" horiz-adv-x="366" 
d="M323 51v-51h-128v51h-190v120l110 229h147l-104 -229h37v66h128v-66h33v-120h-33z" />
    <glyph glyph-name="five.dnom" horiz-adv-x="330" 
d="M279 220.5q41 -32.5 41 -97.5q0 -68 -44 -102.5t-114 -34.5q-118 0 -162 98l115 55q6 -18 16.5 -26.5t28.5 -8.5q29 0 29 21t-26 21h-136l17 254h261v-123h-144l-1 -24h8q70 0 111 -32.5z" />
    <glyph glyph-name="six.dnom" horiz-adv-x="344" 
d="M303.5 225q30.5 -38 30.5 -92q0 -66 -43.5 -106.5t-118.5 -40.5t-118.5 40.5t-43.5 106.5q0 45 22 81l110 186h148l-72 -125q55 -12 85.5 -50zM194.5 110.5q8.5 7.5 8.5 22.5t-8.5 22.5t-22.5 7.5t-22.5 -7.5t-8.5 -22.5t8.5 -22.5t22.5 -7.5t22.5 7.5z" />
    <glyph glyph-name="seven.dnom" horiz-adv-x="310" 
d="M300 294l-107 -294h-145l101 277h-149v123h300v-106z" />
    <glyph glyph-name="eight.dnom" horiz-adv-x="344" 
d="M318.5 167q15.5 -26 15.5 -57q0 -57 -43.5 -90.5t-118.5 -33.5t-118.5 33.5t-43.5 90.5q0 31 15.5 57t43.5 42q-45 31 -45 83q0 56 42 89t106 33t106 -33t42 -89q0 -52 -45 -83q28 -16 43.5 -42zM147 280q0 -21 25 -21q11 0 18 5.5t7 15.5q0 11 -7 17t-18 6
q-25 0 -25 -23zM196 106q8 8 8 21q0 12 -8 20t-24 8t-24 -8t-8 -20q0 -13 8 -21t24 -8t24 8z" />
    <glyph glyph-name="nine.dnom" horiz-adv-x="344" 
d="M307 186l-110 -186h-148l72 125q-55 12 -85.5 50t-30.5 92q0 66 43.5 106.5t118.5 40.5t118.5 -40.5t43.5 -106.5q0 -45 -22 -81zM144.5 289.5q-8.5 -7.5 -8.5 -22.5t8.5 -22.5t22.5 -7.5t22.5 7.5t8.5 22.5t-8.5 22.5t-22.5 7.5t-22.5 -7.5z" />
    <glyph glyph-name="zero.numr" horiz-adv-x="410" 
d="M106.5 312q-43.5 26 -67.5 74.5t-24 113.5t24 113.5t67.5 74.5t98.5 26t98.5 -26t67.5 -74.5t24 -113.5t-24 -113.5t-67.5 -74.5t-98.5 -26t-98.5 26zM237.5 446.5q10.5 19.5 10.5 53.5t-10.5 53.5t-32.5 19.5t-32.5 -19.5t-10.5 -53.5t10.5 -53.5t32.5 -19.5t32.5 19.5z
" />
    <glyph glyph-name="one.numr" horiz-adv-x="279" 
d="M253 300h-142v251l-78 -19l-33 120l132 48h121v-400z" />
    <glyph glyph-name="two.numr" horiz-adv-x="351" 
d="M163 533q27 25 27 41q0 18 -20 18q-23 0 -39 -42l-116 66q50 98 162 98q39 0 74 -16.5t56 -46.5t21 -69q0 -34 -17 -63.5t-53 -61.5l-36 -32h107v-125h-306v102z" />
    <glyph glyph-name="three.numr" horiz-adv-x="323" 
d="M307 497.5q21 -27.5 21 -68.5q0 -68 -45.5 -105.5t-118.5 -37.5q-119 0 -164 98l114 65q7 -19 18 -29.5t32 -10.5q14 0 21 5.5t7 14.5q0 19 -23 19h-32l-50 75l48 54h-114v123h292v-89l-64 -72q37 -14 58 -41.5z" />
    <glyph glyph-name="four.numr" horiz-adv-x="366" 
d="M323 351v-51h-128v51h-190v120l110 229h147l-104 -229h37v66h128v-66h33v-120h-33z" />
    <glyph glyph-name="five.numr" horiz-adv-x="330" 
d="M279 520.5q41 -32.5 41 -97.5q0 -68 -44 -102.5t-114 -34.5q-118 0 -162 98l115 55q6 -18 16.5 -26.5t28.5 -8.5q29 0 29 21t-26 21h-136l17 254h261v-123h-144l-1 -24h8q70 0 111 -32.5z" />
    <glyph glyph-name="six.numr" horiz-adv-x="344" 
d="M303.5 525q30.5 -38 30.5 -92q0 -66 -43.5 -106.5t-118.5 -40.5t-118.5 40.5t-43.5 106.5q0 45 22 81l110 186h148l-72 -125q55 -12 85.5 -50zM194.5 410.5q8.5 7.5 8.5 22.5t-8.5 22.5t-22.5 7.5t-22.5 -7.5t-8.5 -22.5t8.5 -22.5t22.5 -7.5t22.5 7.5z" />
    <glyph glyph-name="seven.numr" horiz-adv-x="310" 
d="M300 594l-107 -294h-145l101 277h-149v123h300v-106z" />
    <glyph glyph-name="eight.numr" horiz-adv-x="344" 
d="M318.5 467q15.5 -26 15.5 -57q0 -57 -43.5 -90.5t-118.5 -33.5t-118.5 33.5t-43.5 90.5q0 31 15.5 57t43.5 42q-45 31 -45 83q0 56 42 89t106 33t106 -33t42 -89q0 -52 -45 -83q28 -16 43.5 -42zM147 580q0 -21 25 -21q11 0 18 5.5t7 15.5q0 11 -7 17t-18 6
q-25 0 -25 -23zM196 406q8 8 8 21q0 12 -8 20t-24 8t-24 -8t-8 -20q0 -13 8 -21t24 -8t24 8z" />
    <glyph glyph-name="nine.numr" horiz-adv-x="344" 
d="M307 486l-110 -186h-148l72 125q-55 12 -85.5 50t-30.5 92q0 66 43.5 106.5t118.5 40.5t118.5 -40.5t43.5 -106.5q0 -45 -22 -81zM144.5 589.5q-8.5 -7.5 -8.5 -22.5t8.5 -22.5t22.5 -7.5t22.5 7.5t8.5 22.5t-8.5 22.5t-22.5 7.5t-22.5 -7.5z" />
    <glyph glyph-name="zero.sups" horiz-adv-x="410" 
d="M106.5 472q-43.5 26 -67.5 74.5t-24 113.5t24 113.5t67.5 74.5t98.5 26t98.5 -26t67.5 -74.5t24 -113.5t-24 -113.5t-67.5 -74.5t-98.5 -26t-98.5 26zM237.5 606.5q10.5 19.5 10.5 53.5t-10.5 53.5t-32.5 19.5t-32.5 -19.5t-10.5 -53.5t10.5 -53.5t32.5 -19.5t32.5 19.5z
" />
    <glyph glyph-name="one.sups" horiz-adv-x="279" 
d="M253 460h-142v251l-78 -19l-33 120l132 48h121v-400z" />
    <glyph glyph-name="two.sups" horiz-adv-x="351" 
d="M163 693q27 25 27 41q0 18 -20 18q-23 0 -39 -42l-116 66q50 98 162 98q39 0 74 -16.5t56 -46.5t21 -69q0 -34 -17 -63.5t-53 -61.5l-36 -32h107v-125h-306v102z" />
    <glyph glyph-name="three.sups" horiz-adv-x="323" 
d="M307 657.5q21 -27.5 21 -68.5q0 -68 -45.5 -105.5t-118.5 -37.5q-119 0 -164 98l114 65q7 -19 18 -29.5t32 -10.5q14 0 21 5.5t7 14.5q0 19 -23 19h-32l-50 75l48 54h-114v123h292v-89l-64 -72q37 -14 58 -41.5z" />
    <glyph glyph-name="four.sups" horiz-adv-x="366" 
d="M323 511v-51h-128v51h-190v120l110 229h147l-104 -229h37v66h128v-66h33v-120h-33z" />
    <glyph glyph-name="five.sups" horiz-adv-x="330" 
d="M279 680.5q41 -32.5 41 -97.5q0 -68 -44 -102.5t-114 -34.5q-118 0 -162 98l115 55q6 -18 16.5 -26.5t28.5 -8.5q29 0 29 21t-26 21h-136l17 254h261v-123h-144l-1 -24h8q70 0 111 -32.5z" />
    <glyph glyph-name="six.sups" horiz-adv-x="344" 
d="M303.5 685q30.5 -38 30.5 -92q0 -66 -43.5 -106.5t-118.5 -40.5t-118.5 40.5t-43.5 106.5q0 45 22 81l110 186h148l-72 -125q55 -12 85.5 -50zM194.5 570.5q8.5 7.5 8.5 22.5t-8.5 22.5t-22.5 7.5t-22.5 -7.5t-8.5 -22.5t8.5 -22.5t22.5 -7.5t22.5 7.5z" />
    <glyph glyph-name="seven.sups" horiz-adv-x="310" 
d="M300 754l-107 -294h-145l101 277h-149v123h300v-106z" />
    <glyph glyph-name="eight.sups" horiz-adv-x="344" 
d="M318.5 627q15.5 -26 15.5 -57q0 -57 -43.5 -90.5t-118.5 -33.5t-118.5 33.5t-43.5 90.5q0 31 15.5 57t43.5 42q-45 31 -45 83q0 56 42 89t106 33t106 -33t42 -89q0 -52 -45 -83q28 -16 43.5 -42zM147 740q0 -21 25 -21q11 0 18 5.5t7 15.5q0 11 -7 17t-18 6
q-25 0 -25 -23zM196 566q8 8 8 21q0 12 -8 20t-24 8t-24 -8t-8 -20q0 -13 8 -21t24 -8t24 8z" />
    <glyph glyph-name="nine.sups" horiz-adv-x="344" 
d="M307 646l-110 -186h-148l72 125q-55 12 -85.5 50t-30.5 92q0 66 43.5 106.5t118.5 40.5t118.5 -40.5t43.5 -106.5q0 -45 -22 -81zM144.5 749.5q-8.5 -7.5 -8.5 -22.5t8.5 -22.5t22.5 -7.5t22.5 7.5t8.5 22.5t-8.5 22.5t-22.5 7.5t-22.5 -7.5z" />
    <glyph glyph-name="cent.tf" 
d="M375 276.5q19 11.5 29 30.5l156 -90q-33 -61 -94.5 -96t-135.5 -35q-25 0 -53 5l-29 -91h-65l35 109q-71 30 -113 94.5t-42 146.5q0 74 35 134.5t96 95t136 34.5q18 0 50 -4l29 90h65l-35 -108q79 -35 121 -109l-156 -89q-7 14 -21 24l-50 -154q23 1 42 12.5zM275 285
l49 151q-33 -2 -54.5 -26t-21.5 -60q0 -41 27 -65z" />
    <glyph glyph-name="dollar.tf" 
d="M516 52q-64 -58 -176 -67v-85h-70v85q-100 7 -165 51.5t-90 118.5l176 95q19 -62 79 -78v95q-80 26 -130 53.5t-76.5 69t-26.5 102.5q0 98 63.5 157t169.5 66v85h70v-86q160 -17 227 -161l-171 -92q-14 49 -56 66v-99l6 -2q78 -25 127 -50.5t78 -66t29 -101.5
q0 -98 -64 -156zM241.5 470.5q9.5 -9.5 28.5 -18.5v80q-19 -4 -28.5 -14.5t-9.5 -24.5q0 -13 9.5 -22.5zM385 202q0 14 -11.5 23.5t-33.5 18.5v-77q45 6 45 35z" />
    <glyph glyph-name="Euro.tf" 
d="M502 26q-62 -42 -147 -42q-111 0 -184.5 70t-96.5 192h-69v84h60v20v18h-60v84h69q22 122 94.5 193t181.5 71q86 0 145.5 -42.5t94.5 -117.5l-169 -97q-12 32 -28 47.5t-43 15.5q-24 0 -43 -18t-29 -52h117v-84h-130v-18v-20h130v-84h-116q22 -68 76 -68q45 0 71 58
l169 -97q-31 -71 -93 -113z" />
    <glyph glyph-name="florin.tf" 
d="M539 534q-35 0 -57.5 -15t-29.5 -43l-9 -38h107v-176h-147l-68 -292q-21 -90 -87 -134t-156 -44q-41 0 -82 9v180q27 -6 48 -6q67 0 81 58l57 229h-106v176h150l25 100q22 89 88.5 133.5t155.5 44.5q40 0 81 -9v-180q-32 7 -51 7z" />
    <glyph glyph-name="uni20BD.tf" 
d="M265 194h190v-100h-190v-93h-200v93h-55v100h55v39h-55v180h55v288h270q71 0 129 -27.5t92 -80t34 -123.5q0 -118 -71 -177.5t-184 -59.5h-70v-39zM335 413q55 0 55 47t-55 47h-70v-94h70z" />
    <glyph glyph-name="sterling.tf" 
d="M590 0h-570v194h57v81h-47v140h47v62q0 76 34 130t89.5 81.5t119.5 27.5q94 0 157.5 -39.5t103.5 -124.5l-173 -93q-11 36 -27.5 52.5t-44.5 16.5q-30 0 -44.5 -18.5t-14.5 -45.5v-49h203v-140h-203v-81h313v-194z" />
    <glyph glyph-name="yen.tf" 
d="M550 377v-100h-150v-42h150v-100h-150v-135h-200v135h-150v100h150v42h-150v100h116l-166 323h222l78 -190l78 190h222l-166 -323h116z" />
    <glyph glyph-name="brevecy" horiz-adv-x="430" 
d="M390 699v-150h-350v150h350z" />
    <glyph glyph-name="uni10D0.case" 
 />
    <glyph glyph-name="uni10D1.case" 
 />
    <glyph glyph-name="uni10D2.case" 
 />
    <glyph glyph-name="uni10D3.case" 
 />
    <glyph glyph-name="uni10D4.case" 
 />
    <glyph glyph-name="uni10D5.case" 
 />
    <glyph glyph-name="uni10D6.case" 
 />
    <glyph glyph-name="uni10D7.case" 
 />
    <glyph glyph-name="uni10D8.case" 
 />
    <glyph glyph-name="uni10D9.case" 
 />
    <glyph glyph-name="uni10DA.case" 
 />
    <glyph glyph-name="uni10DB.case" 
 />
    <glyph glyph-name="uni10DC.case" 
 />
    <glyph glyph-name="uni10DD.case" 
 />
    <glyph glyph-name="uni10DE.case" 
 />
    <glyph glyph-name="uni10DF.case" 
 />
    <glyph glyph-name="uni10E0.case" 
 />
    <glyph glyph-name="uni10E1.case" 
 />
    <glyph glyph-name="uni10E2.case" 
 />
    <glyph glyph-name="uni10E3.case" 
 />
    <glyph glyph-name="uni10E4.case" 
 />
    <glyph glyph-name="uni10E5.case" 
 />
    <glyph glyph-name="uni10E6.case" 
 />
    <glyph glyph-name="uni10E7.case" 
 />
    <glyph glyph-name="uni10E8.case" 
 />
    <glyph glyph-name="uni10E9.case" 
 />
    <glyph glyph-name="uni10EA.case" 
 />
    <glyph glyph-name="uni10EB.case" 
 />
    <glyph glyph-name="uni10EC.case" 
 />
    <glyph glyph-name="uni10ED.case" 
 />
    <glyph glyph-name="uni10EE.case" 
 />
    <glyph glyph-name="uni10EF.case" 
 />
    <glyph glyph-name="uni10F0.case" 
 />
    <glyph glyph-name="uni10F1.case" 
 />
    <glyph glyph-name="uni10F2.case" 
 />
    <glyph glyph-name="uni10F3.case" 
 />
    <glyph glyph-name="uni10F4.case" 
 />
    <glyph glyph-name="uni10F5.case" 
 />
    <glyph glyph-name="uni10F6.case" 
 />
    <glyph glyph-name="uni10F7.case" 
 />
    <glyph glyph-name="uni10F8.case" 
 />
    <glyph glyph-name="uni10F9.case" 
 />
    <glyph glyph-name="uni10FA.case" 
 />
    <glyph glyph-name="uni10FD.case" 
 />
    <glyph glyph-name="uni10FE.case" 
 />
    <glyph glyph-name="uni10FF.case" 
 />
    <glyph glyph-name="uni10D1.ss01" horiz-adv-x="604" 
d="M564 457v-224q0 -75 -32 -131.5t-91.5 -87t-138.5 -30.5t-138.5 30.5t-91.5 87t-32 131.5v224h180v46q0 28 -10 44t-31 35q-22 21 -33 39.5t-11 51.5v27h182v-14q0 -16 8.5 -28t26.5 -30q25 -24 38 -45t13 -55v-71h161zM376 293h-148v-50q0 -39 20 -62t54 -23t54 23
t20 62v50z" />
    </font>
</defs>
</svg>
