<svg xmlns="http://www.w3.org/2000/svg" width="20.41" height="23.813" viewBox="0 0 20.41 23.813">
  <path id="file-pdf-o" d="M19.507,5.049a3.086,3.086,0,0,1,.638,1.01,3.082,3.082,0,0,1,.266,1.169V22.537a1.271,1.271,0,0,1-1.276,1.276H1.276a1.229,1.229,0,0,1-.9-.372,1.234,1.234,0,0,1-.372-.9V1.276a1.229,1.229,0,0,1,.372-.9A1.234,1.234,0,0,1,1.276,0H13.182a3.065,3.065,0,0,1,1.169.266A3.1,3.1,0,0,1,15.361.9Zm-5.9-3.242v5h5a1.452,1.452,0,0,0-.292-.545L14.152,2.1a1.452,1.452,0,0,0-.545-.292Zm5.1,20.3V8.5H13.182a1.271,1.271,0,0,1-1.276-1.276V1.7H1.7v20.41H18.709Zm-6.83-7.88A10.142,10.142,0,0,0,13,14.975a13.146,13.146,0,0,1,1.554-.093q1.953,0,2.352.651a.643.643,0,0,1,.026.691.038.038,0,0,1-.013.026l-.026.026v.013q-.08.5-.943.5a5.479,5.479,0,0,1-1.528-.266,9.7,9.7,0,0,1-1.728-.7,23.929,23.929,0,0,0-5.209,1.1q-2.033,3.481-3.216,3.481a.774.774,0,0,1-.372-.093l-.319-.159q-.013-.013-.08-.066a.549.549,0,0,1-.08-.478A2.884,2.884,0,0,1,4.158,18.4a6.434,6.434,0,0,1,1.754-1.283.194.194,0,0,1,.306.08.076.076,0,0,1,.026.053q.691-1.13,1.422-2.618a20.271,20.271,0,0,0,1.382-3.481,10.756,10.756,0,0,1-.405-2.119A5.111,5.111,0,0,1,8.73,7.335q.146-.532.558-.532h.292a.56.56,0,0,1,.465.2,1.06,1.06,0,0,1,.12.9.288.288,0,0,1-.053.106.347.347,0,0,1,.013.106v.4a17.4,17.4,0,0,1-.186,2.551,6.72,6.72,0,0,0,1.94,3.162ZM4.225,19.693a5.862,5.862,0,0,0,1.82-2.1A7.571,7.571,0,0,0,4.883,18.71a4.413,4.413,0,0,0-.657.984ZM9.514,7.468a3.956,3.956,0,0,0-.026,1.754q.013-.093.093-.585,0-.04.093-.571a.3.3,0,0,1,.053-.106.038.038,0,0,1-.013-.026.1.1,0,0,1-.013-.04.764.764,0,0,0-.173-.478.038.038,0,0,1-.013.026v.026ZM7.867,16.251a19.471,19.471,0,0,1,3.774-1.076,2.008,2.008,0,0,1-.173-.126,2.388,2.388,0,0,1-.212-.179A7.033,7.033,0,0,1,9.568,12.53a17.728,17.728,0,0,1-1.1,2.618q-.4.744-.6,1.1Zm8.584-.212a3.181,3.181,0,0,0-1.861-.319,5.023,5.023,0,0,0,1.648.372,1.3,1.3,0,0,0,.239-.013q0-.013-.026-.04Z" fill="#878787"/>
</svg>
